<svg width="38" height="44" viewBox="0 0 38 44" fill="none" xmlns="http://www.w3.org/2000/svg">
<path d="M27 0.304253C30 -0.695736 30.9162 0.978228 33 2.30425C34.8638 3.49029 37.9461 5.30426 37 6.30425C36.0539 7.30425 32.6485 9.14973 25 13.8043C17.3515 18.4588 14 21.3043 14 21.3043C14 21.3043 22.4826 26.7636 27 31.3043C29.5394 33.8567 33.9748 34.8383 33 38.3043C32.2376 41.0152 29.7811 41.8614 27 42.3043C23.7049 42.829 21.9224 40.9144 19 39.3043C14.3983 36.7689 12.8089 33.9232 9 30.3043C5.39659 26.8805 0 25.3043 0 21.3043C0 17.3043 5 16.3043 12 11.3043C19 6.30425 24 1.30424 27 0.304253Z" fill="#F4F6FC"/>
</svg>
