<svg width="34" height="31" viewBox="0 0 34 31" fill="none" xmlns="http://www.w3.org/2000/svg">
<path d="M8.60961 5.86314C10.1949 5.88617 13.4395 9.96924 14.5143 11.4376C15.8056 13.2018 13.9356 13.3001 10.3071 13.593C9.90281 20.448 15.2077 22.7416 18.9072 23.4287C20.9802 23.8137 26.4929 20.0495 27.4303 15.8473C27.1024 11.3038 25.5083 7.58636 17.2853 7.46689C17.2853 7.46689 15.8071 6.81217 15.888 5.44117C15.9688 4.07018 17.4905 3.98673 17.4905 3.98673C26.8011 2.96093 32.4906 11.0468 31.3106 16.4314C30.0729 22.0794 24.6849 27.3125 18.6833 27.2253C13.3611 27.148 9.69755 23.9282 7.68908 21.4713C6.03902 18.703 6.13849 17.0157 6.34377 13.5354C6.34377 13.5354 0.0658644 14.2887 2.73751 11.2666C5.40916 8.24439 7.93017 5.85326 8.60961 5.86314Z" fill="#F4F6FC"/>
</svg>
