<svg width="840" height="756" viewBox="0 0 840 756" fill="none" xmlns="http://www.w3.org/2000/svg">
<path d="M744.811 241.638C746.602 249.421 746.325 255.774 744.292 261.029C742.261 266.279 738.436 270.542 732.931 274.075C721.861 281.18 704.193 285.213 681.436 288.3C667.794 290.15 652.362 291.654 635.528 293.295C596.391 297.11 549.675 301.664 500.256 313.017C454.005 323.643 410.658 337.468 372.951 349.495C353.069 355.836 334.756 361.677 318.411 366.286C294.673 372.978 275.135 377.059 260.855 376.417C253.727 376.097 248.005 374.602 243.739 371.751C239.501 368.92 236.609 364.691 235.231 358.703C227.557 325.354 220.267 293.67 217.623 263.951C214.981 234.244 216.991 206.581 227.861 181.272C249.58 130.7 306.881 89.0917 434.687 59.7309C575.458 27.3919 714.263 108.899 744.811 241.638ZM525.081 420.89C610.094 401.36 665.266 380.482 701.733 366.682C710.517 363.358 718.215 360.445 724.984 358.06C733.705 354.987 740.84 352.807 746.756 351.743C752.676 350.679 757.276 350.751 760.977 352.085C768.297 354.724 772.631 362.52 776.281 378.38C783.92 411.574 782.58 438.355 774.162 460.37C765.745 482.381 750.211 499.732 729.272 513.995C687.33 542.564 623.911 558.617 553.236 574.853C482.56 591.089 418.493 604.324 368.274 596.927C343.203 593.234 321.644 584.404 304.449 568.276C287.252 552.146 274.34 528.638 266.701 495.445C265.748 491.307 266.721 487.588 269.489 484.111C272.291 480.591 276.94 477.317 283.319 474.224C296.074 468.04 315.374 462.75 339.45 457.541C359.183 453.273 382.057 449.073 407.066 444.481C412.546 443.475 418.128 442.45 423.802 441.401C455.362 435.569 489.746 429.007 525.081 420.89Z" fill="#CEA11C" stroke="black"/>
<path d="M710.736 259.237L710.752 259.231L710.767 259.224C737.613 247.765 769.448 261.575 781.808 290.243C794.167 318.91 782.285 351.382 755.439 362.842C718.64 378.55 696.606 386.205 684.033 388.445C680.899 389.003 678.389 389.218 676.406 389.147C674.418 389.076 673.021 388.72 672.066 388.191C671.14 387.678 670.59 386.982 670.297 386.109C669.993 385.203 669.949 384.046 670.17 382.62C670.614 379.751 672.076 376.124 673.997 371.978C674.774 370.303 675.631 368.532 676.514 366.707C677.776 364.098 679.092 361.379 680.302 358.672C682.374 354.036 684.217 349.265 685.139 344.709C686.06 340.155 686.08 335.722 684.399 331.824C682.697 327.875 679.044 324.882 674.518 322.501C669.978 320.112 664.425 318.269 658.726 316.692C655.068 315.68 651.304 314.766 647.691 313.889C645.686 313.402 643.727 312.926 641.858 312.451C636.57 311.107 632.002 309.768 628.872 308.177C627.307 307.381 626.185 306.563 625.507 305.72C624.856 304.911 624.615 304.088 624.775 303.16C624.944 302.181 625.58 300.966 626.955 299.478C628.323 297.998 630.358 296.317 633.193 294.403C644.563 286.731 668.191 275.726 710.736 259.237Z" fill="#216E3F" stroke="black"/>
<path d="M213.067 450.4C214.33 447.297 214.297 443.827 212.976 440.754C211.654 437.681 209.152 435.256 206.02 434.012C182.872 424.447 160.338 413.494 138.543 401.213C104.84 382.152 79.6281 363.103 64.2163 345.236C66.6982 340.373 67.5616 334.86 66.6824 329.49C65.8032 324.119 63.2268 319.165 59.3226 315.34C55.4184 311.515 50.3872 309.015 44.9507 308.198C39.5141 307.381 33.9516 308.289 29.061 310.793C24.1705 313.296 20.2033 317.266 17.7285 322.133C15.2537 327 14.3985 332.514 15.2856 337.883C16.1726 343.253 18.7564 348.202 22.6662 352.022C26.576 355.842 31.6109 358.335 37.0487 359.144C39.0031 359.431 40.9845 359.5 42.9553 359.347C88.4851 414.106 191.6 455.475 196.488 457.412C199.621 458.654 203.127 458.613 206.236 457.298C209.345 455.984 211.802 453.502 213.067 450.4Z" fill="#FAC014" stroke="black" stroke-miterlimit="10"/>
<path d="M742.6 89.857C744.254 91.7007 746.196 93.2686 748.352 94.5016C745.483 115.685 735.8 142.674 719.635 173.84C709.158 193.959 697.46 213.435 684.605 232.159C683.691 233.392 683.033 234.793 682.671 236.279C682.308 237.765 682.248 239.305 682.494 240.811C682.739 242.316 683.286 243.756 684.102 245.046C684.917 246.335 685.985 247.448 687.243 248.32C688.501 249.192 689.924 249.805 691.427 250.122C692.93 250.44 694.484 250.456 695.998 250.17C697.511 249.884 698.954 249.301 700.241 248.456C701.527 247.61 702.633 246.52 703.491 245.248C706.247 241.357 764.13 158.897 771.544 94.7243C775.849 92.378 779.321 88.7659 781.477 84.3885C783.633 80.0112 784.368 75.0853 783.578 70.2936C782.789 65.5019 780.515 61.0816 777.071 57.6454C773.628 54.2092 769.185 51.9271 764.359 51.1156C759.533 50.304 754.563 51.0032 750.138 53.116C745.712 55.2289 742.05 58.651 739.659 62.9079C737.268 67.1648 736.267 72.0457 736.794 76.8744C737.321 81.703 739.35 86.2402 742.6 89.857Z" fill="#FAC014" stroke="black" stroke-miterlimit="10"/>
<path d="M307.94 702.372C305.815 701.086 303.496 700.147 301.069 699.59C297.61 678.516 298.978 649.93 305.33 615.485C309.472 593.236 314.971 571.252 321.799 549.652C322.313 548.21 322.533 546.681 322.445 545.157C322.357 543.632 321.963 542.142 321.287 540.774C320.61 539.406 319.664 538.187 318.505 537.19C317.346 536.192 315.997 535.436 314.536 534.965C313.076 534.494 311.534 534.318 310.001 534.448C308.467 534.577 306.974 535.009 305.608 535.719C304.242 536.429 303.031 537.401 302.046 538.58C301.061 539.759 300.322 541.12 299.872 542.583C298.372 547.095 267.086 642.586 278.788 706.058C275.351 709.541 273.084 713.994 272.301 718.799C271.518 723.604 272.258 728.524 274.418 732.876C276.578 737.229 280.052 740.798 284.358 743.091C288.663 745.383 293.587 746.284 298.448 745.669C303.309 745.055 307.865 742.955 311.485 739.66C315.106 736.366 317.611 732.04 318.654 727.282C319.697 722.525 319.226 717.571 317.306 713.108C315.386 708.644 312.113 704.892 307.94 702.372Z" fill="#FAC014" stroke="black" stroke-miterlimit="10"/>
<path d="M676.543 622.647C677.892 620.563 679.568 618.706 681.508 617.146C675.407 596.679 661.679 571.561 640.907 543.347C627.456 525.14 612.897 507.763 597.313 491.313C596.22 490.239 595.354 488.96 594.767 487.55C594.179 486.141 593.882 484.628 593.893 483.102C593.903 481.576 594.221 480.068 594.828 478.664C595.434 477.261 596.318 475.992 597.426 474.931C598.534 473.87 599.844 473.039 601.28 472.486C602.715 471.934 604.248 471.671 605.787 471.713C607.326 471.756 608.84 472.102 610.242 472.732C611.643 473.363 612.903 474.265 613.947 475.385C617.269 478.789 687.158 551.037 704.379 613.242C708.993 614.875 712.979 617.891 715.784 621.872C718.589 625.853 720.074 630.602 720.034 635.46C719.993 640.318 718.429 645.045 715.558 648.986C712.687 652.926 708.651 655.886 704.01 657.454C699.369 659.022 694.352 659.121 689.655 657.738C684.958 656.354 680.813 653.556 677.795 649.731C674.777 645.906 673.035 641.245 672.811 636.392C672.587 631.539 673.891 626.736 676.543 622.647Z" fill="#FAC014" stroke="black" stroke-miterlimit="10"/>
<rect x="1.19889" y="0.75063" width="288.024" height="56.9781" rx="24.5" transform="matrix(1.94923 -0.447792 0.448548 1.94905 143.798 399.023)" fill="#2D9555" stroke="black"/>
<path d="M512.447 372.312C531.633 382.541 545.082 402.156 550.388 434.816C540.02 441.795 515.976 452.528 489.738 461.684C463.054 470.996 434.322 478.598 415.644 478.984C378.083 479.762 359.071 474.671 337.775 468.283C336.633 467.94 335.824 467.35 335.269 466.56C334.706 465.759 334.357 464.684 334.266 463.31C334.081 460.534 334.959 456.749 336.859 452.2C340.647 443.131 348.314 431.444 358.52 419.577C378.955 395.819 409.273 371.677 438.338 366.414C467.655 361.107 493.079 361.986 512.447 372.312Z" fill="#FF5833" stroke="black"/>
<path d="M659.981 268.337C661.772 276.119 661.495 282.472 659.462 287.728C657.431 292.977 653.605 297.241 648.1 300.774C637.03 307.879 619.362 311.912 596.606 314.998C582.964 316.848 567.532 318.353 550.697 319.994C511.561 323.809 464.845 328.363 415.425 339.716C369.174 350.341 325.827 364.167 288.12 376.194C268.239 382.535 249.925 388.376 233.581 392.984C209.842 399.677 190.305 403.758 176.025 403.116C168.897 402.796 163.175 401.301 158.908 398.45C154.67 395.619 151.779 391.39 150.401 385.402C119.853 252.663 209.086 118.769 349.857 86.4296C490.627 54.0907 629.433 135.598 659.981 268.337ZM440.251 447.589C525.263 428.059 580.435 407.181 616.902 393.381C625.686 390.057 633.385 387.144 640.154 384.759C648.874 381.686 656.009 379.506 661.926 378.442C667.846 377.377 672.446 377.45 676.147 378.784C683.467 381.423 687.8 389.219 691.45 405.079C699.089 438.272 697.75 465.054 689.331 487.069C680.914 509.08 665.38 526.431 644.441 540.694C602.499 569.263 539.081 585.316 468.405 601.552C397.73 617.788 333.663 631.022 283.444 623.625C258.372 619.932 236.813 611.103 219.619 594.975C202.422 578.845 189.509 555.337 181.87 522.144C180.918 518.006 181.89 514.287 184.658 510.81C187.461 507.29 192.11 504.016 198.489 500.923C211.243 494.739 230.543 489.448 254.619 484.24C274.353 479.972 297.227 475.772 322.235 471.18C327.715 470.174 333.297 469.149 338.971 468.1C370.531 462.267 404.915 455.706 440.251 447.589Z" fill="#FAC014" stroke="black"/>
<path d="M273.008 133.062C272.96 133.272 272.9 133.532 272.829 133.838C272.617 134.747 272.305 136.061 271.903 137.678C271.102 140.905 269.947 145.341 268.528 150.183C266.347 153.522 264.239 155.567 262.363 156.568C260.491 157.568 258.868 157.522 257.603 156.714C256.313 155.891 255.491 154.63 255.511 152.754C255.53 150.861 256.407 148.324 258.585 144.976C261.78 141.849 265.515 138.778 268.455 136.486C269.928 135.338 271.2 134.386 272.104 133.721C272.469 133.452 272.775 133.231 273.008 133.062Z" stroke="black" stroke-width="0.25"/>
<path d="M302.235 133.559C302.187 133.769 302.127 134.029 302.056 134.335C301.844 135.244 301.531 136.558 301.13 138.175C300.329 141.402 299.174 145.838 297.754 150.68C295.574 154.019 293.465 156.064 291.59 157.065C289.718 158.065 288.095 158.019 286.83 157.211C285.54 156.388 284.718 155.127 284.737 153.251C284.757 151.358 285.633 148.821 287.811 145.473C291.007 142.346 294.741 139.275 297.682 136.983C299.154 135.835 300.427 134.883 301.331 134.218C301.696 133.949 302.001 133.728 302.235 133.559Z" stroke="black" stroke-width="0.25"/>
<path d="M303.204 169.39C303.156 169.6 303.096 169.86 303.024 170.166C302.812 171.075 302.5 172.389 302.099 174.006C301.298 177.234 300.142 181.669 298.723 186.511C296.542 189.85 294.434 191.895 292.559 192.896C290.687 193.896 289.064 193.85 287.799 193.042C286.509 192.219 285.687 190.958 285.706 189.082C285.725 187.189 286.602 184.652 288.78 181.304C291.976 178.177 295.71 175.106 298.65 172.814C300.123 171.666 301.396 170.714 302.3 170.049C302.665 169.781 302.97 169.559 303.204 169.39Z" stroke="black" stroke-width="0.25"/>
<path d="M336.799 125.619C336.751 125.829 336.691 126.089 336.62 126.395C336.408 127.304 336.096 128.618 335.694 130.235C334.893 133.463 333.738 137.898 332.319 142.74C330.138 146.079 328.03 148.124 326.154 149.125C324.282 150.125 322.659 150.079 321.394 149.271C320.104 148.448 319.282 147.187 319.302 145.311C319.321 143.418 320.198 140.881 322.376 137.533C325.571 134.406 329.306 131.335 332.246 129.043C333.719 127.895 334.991 126.943 335.895 126.278C336.26 126.01 336.566 125.788 336.799 125.619Z" stroke="black" stroke-width="0.25"/>
<path d="M351.591 158.274C351.542 158.484 351.483 158.744 351.411 159.05C351.199 159.959 350.887 161.273 350.486 162.89C349.685 166.117 348.529 170.553 347.11 175.395C344.929 178.734 342.821 180.779 340.946 181.78C339.073 182.78 337.451 182.734 336.186 181.926C334.896 181.102 334.074 179.841 334.093 177.966C334.112 176.073 334.989 173.536 337.167 170.188C340.362 167.061 344.097 163.99 347.037 161.697C348.51 160.549 349.783 159.598 350.687 158.933C351.052 158.664 351.357 158.443 351.591 158.274Z" stroke="black" stroke-width="0.25"/>
<path d="M323.582 99.813C323.534 100.023 323.474 100.283 323.403 100.589C323.191 101.498 322.878 102.812 322.477 104.429C321.676 107.656 320.521 112.092 319.101 116.934C316.921 120.273 314.813 122.318 312.937 123.319C311.065 124.319 309.442 124.273 308.177 123.465C306.887 122.641 306.065 121.381 306.084 119.505C306.104 117.612 306.981 115.075 309.159 111.727C312.354 108.6 316.088 105.529 319.029 103.237C320.502 102.088 321.774 101.137 322.678 100.472C323.043 100.203 323.348 99.9818 323.582 99.813Z" stroke="black" stroke-width="0.25"/>
<path d="M227.469 172.367C227.421 172.578 227.361 172.837 227.29 173.143C227.078 174.052 226.766 175.366 226.364 176.983C225.563 180.211 224.408 184.646 222.989 189.488C220.808 192.827 218.7 194.872 216.824 195.873C214.952 196.873 213.329 196.827 212.064 196.02C210.774 195.196 209.952 193.935 209.971 192.059C209.991 190.166 210.868 187.629 213.046 184.281C216.241 181.154 219.976 178.083 222.916 175.791C224.389 174.643 225.661 173.691 226.565 173.026C226.93 172.758 227.235 172.536 227.469 172.367Z" stroke="black" stroke-width="0.25"/>
<path d="M237.778 337.591C242.356 357.482 229.803 377.358 209.719 381.972C189.635 386.586 169.654 374.184 165.076 354.293C160.499 334.401 173.051 314.525 193.135 309.912C213.219 305.298 233.2 317.7 237.778 337.591Z" fill="#F4F6FC" stroke="black"/>
<ellipse rx="13.0212" ry="12.9105" transform="matrix(1.94923 -0.447792 0.448548 1.94905 199.211 336.309)" fill="#070C2A"/>
<path d="M205.129 331.053L204.447 316.316C210.084 316.438 212.759 317.694 216.605 322.192L205.129 331.053Z" fill="#F4F6FC"/>
<path d="M623.001 256.305C627.579 276.196 615.026 296.072 594.942 300.686C574.858 305.3 554.877 292.897 550.3 273.006C545.722 253.115 558.275 233.239 578.359 228.625C598.443 224.012 618.424 236.414 623.001 256.305Z" fill="#F4F6FC" stroke="black"/>
<ellipse rx="13.0212" ry="12.9105" transform="matrix(1.94923 -0.447792 0.448548 1.94905 584.433 255.024)" fill="#070C2A"/>
<path d="M590.353 249.767L589.671 235.031C595.308 235.152 597.983 236.408 601.829 240.907L590.353 249.767Z" fill="#F4F6FC"/>
<path d="M379.851 122.939C379.802 123.15 379.743 123.41 379.671 123.715C379.459 124.624 379.147 125.938 378.746 127.556C377.945 130.783 376.789 135.218 375.37 140.06C373.189 143.399 371.081 145.444 369.206 146.446C367.333 147.445 365.711 147.4 364.446 146.592C363.156 145.768 362.334 144.507 362.353 142.631C362.372 140.739 363.249 138.201 365.427 134.853C368.622 131.726 372.357 128.655 375.297 126.363C376.77 125.215 378.043 124.263 378.947 123.598C379.312 123.33 379.617 123.108 379.851 122.939Z" stroke="black" stroke-width="0.25"/>
<path d="M370.089 96.3389C370.041 96.5492 369.981 96.809 369.91 97.1144C369.698 98.0237 369.385 99.3376 368.984 100.955C368.183 104.182 367.028 108.617 365.608 113.459C363.428 116.799 361.319 118.844 359.444 119.845C357.572 120.845 355.949 120.799 354.684 119.991C353.394 119.167 352.572 117.906 352.591 116.031C352.611 114.138 353.487 111.601 355.665 108.253C358.861 105.126 362.595 102.055 365.536 99.7624C367.008 98.6144 368.281 97.6625 369.185 96.9978C369.55 96.7293 369.855 96.5077 370.089 96.3389Z" stroke="black" stroke-width="0.25"/>
<path d="M399.979 147.158C399.931 147.369 399.871 147.628 399.8 147.934C399.588 148.843 399.276 150.157 398.874 151.774C398.073 155.002 396.918 159.437 395.499 164.279C393.318 167.618 391.21 169.663 389.334 170.664C387.462 171.664 385.839 171.618 384.574 170.811C383.284 169.987 382.462 168.726 382.482 166.85C382.501 164.957 383.378 162.42 385.556 159.072C388.751 155.945 392.486 152.874 395.426 150.582C396.899 149.434 398.171 148.482 399.075 147.817C399.44 147.549 399.745 147.327 399.979 147.158Z" stroke="black" stroke-width="0.25"/>
<path d="M424.78 112.617C424.732 112.828 424.672 113.087 424.601 113.393C424.389 114.302 424.077 115.616 423.675 117.233C422.874 120.461 421.719 124.896 420.3 129.738C418.119 133.077 416.011 135.122 414.135 136.123C412.263 137.123 410.64 137.077 409.375 136.27C408.085 135.446 407.263 134.185 407.283 132.309C407.302 130.416 408.179 127.879 410.357 124.531C413.552 121.404 417.287 118.333 420.227 116.041C421.7 114.893 422.972 113.941 423.876 113.276C424.241 113.008 424.546 112.786 424.78 112.617Z" stroke="black" stroke-width="0.25"/>
<path d="M404.652 88.399C404.604 88.6093 404.544 88.8691 404.473 89.1745C404.261 90.0838 403.949 91.3976 403.547 93.0151C402.746 96.2423 401.591 100.678 400.172 105.52C397.991 108.859 395.883 110.904 394.008 111.905C392.135 112.905 390.512 112.859 389.248 112.051C387.957 111.227 387.135 109.966 387.155 108.091C387.174 106.198 388.051 103.661 390.229 100.313C393.424 97.1857 397.159 94.1148 400.099 91.8225C401.572 90.6744 402.844 89.7226 403.748 89.0578C404.114 88.7893 404.419 88.5677 404.652 88.399Z" stroke="black" stroke-width="0.25"/>
<path d="M453.703 127.605C453.655 127.816 453.595 128.076 453.524 128.381C453.312 129.29 453 130.604 452.598 132.222C451.797 135.449 450.642 139.884 449.223 144.726C447.042 148.065 444.934 150.11 443.059 151.112C441.186 152.111 439.563 152.066 438.299 151.258C437.008 150.434 436.186 149.173 436.206 147.297C436.225 145.405 437.102 142.867 439.28 139.52C442.475 136.392 446.21 133.321 449.15 131.029C450.623 129.881 451.895 128.929 452.799 128.264C453.165 127.996 453.47 127.774 453.703 127.605Z" stroke="black" stroke-width="0.25"/>
<path d="M480.746 150.236C480.698 150.446 480.638 150.706 480.567 151.011C480.355 151.921 480.042 153.235 479.641 154.852C478.84 158.079 477.685 162.514 476.265 167.356C474.085 170.696 471.976 172.741 470.101 173.742C468.229 174.742 466.606 174.696 465.341 173.888C464.051 173.064 463.229 171.803 463.248 169.928C463.268 168.035 464.144 165.498 466.322 162.15C469.518 159.023 473.252 155.952 476.193 153.659C477.665 152.511 478.938 151.559 479.842 150.895C480.207 150.626 480.512 150.405 480.746 150.236Z" stroke="black" stroke-width="0.25"/>
<path d="M525.983 125.422C525.935 125.633 525.875 125.892 525.804 126.198C525.592 127.107 525.279 128.421 524.878 130.039C524.077 133.266 522.922 137.701 521.502 142.543C519.322 145.882 517.213 147.927 515.338 148.929C513.466 149.928 511.843 149.882 510.578 149.075C509.288 148.251 508.466 146.99 508.485 145.114C508.505 143.222 509.381 140.684 511.559 137.336C514.755 134.209 518.489 131.138 521.43 128.846C522.902 127.698 524.175 126.746 525.079 126.081C525.444 125.813 525.749 125.591 525.983 125.422Z" stroke="black" stroke-width="0.25"/>
<path d="M493.604 111.229C493.556 111.439 493.496 111.699 493.425 112.004C493.213 112.913 492.9 114.227 492.499 115.845C491.698 119.072 490.543 123.507 489.123 128.349C486.943 131.688 484.835 133.733 482.959 134.735C481.087 135.734 479.464 135.689 478.199 134.881C476.909 134.057 476.087 132.796 476.106 130.92C476.126 129.028 477.002 126.49 479.18 123.143C482.376 120.015 486.11 116.944 489.051 114.652C490.524 113.504 491.796 112.552 492.7 111.887C493.065 111.619 493.37 111.397 493.604 111.229Z" stroke="black" stroke-width="0.25"/>
<path d="M456.191 90.9805C456.143 91.1908 456.083 91.4506 456.012 91.756C455.8 92.6653 455.488 93.9792 455.086 95.5966C454.285 98.8239 453.13 103.259 451.711 108.101C449.53 111.44 447.422 113.485 445.547 114.487C443.674 115.486 442.051 115.441 440.787 114.633C439.497 113.809 438.674 112.548 438.694 110.672C438.713 108.78 439.59 106.242 441.768 102.895C444.963 99.7672 448.698 96.6963 451.638 94.404C453.111 93.256 454.383 92.3041 455.287 91.6394C455.653 91.3709 455.958 91.1493 456.191 90.9805Z" stroke="black" stroke-width="0.25"/>
<path d="M267.064 170.482C267.016 170.692 266.956 170.952 266.885 171.258C266.673 172.167 266.361 173.481 265.959 175.098C265.159 178.325 264.003 182.761 262.584 187.603C260.403 190.942 258.295 192.987 256.42 193.988C254.547 194.988 252.924 194.942 251.66 194.134C250.37 193.31 249.547 192.049 249.567 190.174C249.586 188.281 250.463 185.744 252.641 182.396C255.836 179.269 259.571 176.198 262.511 173.906C263.984 172.757 265.256 171.806 266.16 171.141C266.526 170.872 266.831 170.651 267.064 170.482Z" stroke="black" stroke-width="0.25"/>
<ellipse rx="6.20604" ry="2.63537" transform="matrix(1.94923 -0.447792 0.448548 1.94905 370.781 327.564)" fill="#070C2A"/>
<ellipse rx="6.20604" ry="2.63537" transform="matrix(1.94923 -0.447792 0.448548 1.94905 453.73 308.507)" fill="#070C2A"/>
<ellipse rx="12.6475" ry="36.34" transform="matrix(1.96258 -0.385075 0.393362 1.96094 478.884 520.13)" fill="#070C2A"/>
<ellipse rx="8.37228" ry="28.5781" transform="matrix(1.96258 -0.385075 0.393362 1.96094 478.745 519.438)" fill="#FAC014"/>
<path d="M400.094 480.58L402.662 493.379L414.03 477.846L438.386 599.265L447.524 597.472L419.074 455.643L400.094 480.58Z" fill="#070C2A"/>
</svg>
