<svg width="500" height="374" viewBox="0 0 500 374" fill="none" xmlns="http://www.w3.org/2000/svg">
<path d="M432.545 141C432.545 145.487 431.601 148.886 429.879 151.453C428.161 154.013 425.604 155.841 422.198 157.075C415.319 159.569 405.19 159.568 392.288 158.379C384.584 157.669 375.928 156.54 366.478 155.306C344.476 152.434 318.171 149 289.545 149C262.767 149 237.151 151.149 214.893 153.016C203.171 153.999 192.381 154.904 182.843 155.376C168.949 156.064 157.761 155.832 150.07 153.678C146.237 152.604 143.365 151.076 141.454 149.03C139.567 147.009 138.545 144.403 138.545 141C138.545 121.515 138.546 103.041 140.848 86.2523C143.148 69.4747 147.736 54.4615 156.854 41.8849C175.059 16.7755 211.625 1 285.545 1C366.777 1 432.545 63.7252 432.545 141ZM289.545 212.865C338.771 212.865 371.769 208.31 393.556 205.302C398.799 204.578 403.394 203.944 407.408 203.484C412.585 202.891 416.753 202.595 420.102 202.757C423.454 202.919 425.884 203.537 427.656 204.688C431.132 206.947 432.545 211.59 432.545 220.865C432.545 240.192 428.434 254.79 421.082 265.841C413.731 276.889 403.08 284.485 389.83 289.704C363.258 300.171 326.463 301 285.545 301C244.626 301 207.831 300.171 181.259 289.704C168.009 284.485 157.358 276.889 150.008 265.841C142.655 254.79 138.545 240.192 138.545 220.865C138.545 218.59 139.481 216.77 141.35 215.268C143.261 213.731 146.157 212.527 150.026 211.631C157.761 209.839 168.989 209.362 182.88 209.541C194.258 209.688 207.352 210.272 221.678 210.912C224.817 211.052 228.015 211.195 231.268 211.337C249.352 212.123 269.087 212.865 289.545 212.865Z" fill="#CEA11C" stroke="black"/>
<path d="M412.088 146.847L412.105 146.844L412.121 146.841C428.056 143.954 443.606 155.478 446.736 172.755C448.347 181.645 449.577 192.645 444.213 201.425C438.901 210.119 426.864 217 401 217C389.728 217 381.138 216.737 374.724 216.246C368.288 215.752 364.119 215.033 361.644 214.153C360.401 213.711 359.687 213.264 359.316 212.871C358.989 212.526 358.932 212.237 358.99 211.926C359.061 211.539 359.338 211.012 359.936 210.337C360.523 209.675 361.345 208.952 362.37 208.167C364.422 206.596 367.155 204.878 370.129 203.018L370.372 202.866C373.257 201.062 376.336 199.136 379.121 197.134C381.978 195.08 384.588 192.903 386.386 190.634C388.181 188.37 389.274 185.877 388.799 183.252C388.337 180.705 386.624 178.499 384.406 176.574C382.178 174.64 379.326 172.892 376.385 171.286C374.498 170.256 372.532 169.263 370.652 168.313C369.614 167.788 368.601 167.277 367.643 166.78C364.904 165.359 362.604 164.054 361.126 162.807C360.388 162.185 359.926 161.634 359.698 161.158C359.488 160.72 359.477 160.36 359.629 159.993C359.801 159.58 360.229 159.046 361.138 158.42C362.038 157.799 363.335 157.141 365.118 156.447C372.284 153.661 386.613 150.572 412.088 146.847Z" fill="#216E3F" stroke="black"/>
<path d="M114.329 189.043C115.416 187.482 115.836 185.553 115.499 183.68C115.161 181.807 114.093 180.143 112.529 179.054C101.016 170.798 90.017 161.85 79.5916 152.26C63.4796 137.392 52.0326 123.611 45.8221 111.736C47.8013 109.355 48.973 106.407 49.1691 103.315C49.3653 100.224 48.5758 97.1477 46.9139 94.5282C45.252 91.9088 42.8031 89.8805 39.9185 88.7345C37.0339 87.5885 33.8618 87.3835 30.8573 88.1491C27.8528 88.9146 25.1703 90.6113 23.1946 92.9958C21.2188 95.3802 20.0514 98.3299 19.8598 101.422C19.6681 104.513 20.4621 107.588 22.1279 110.205C23.7936 112.822 26.2454 114.847 29.1317 115.989C30.1695 116.397 31.2498 116.688 32.3522 116.855C50.4494 153.033 101.889 189.122 104.33 190.82C105.895 191.908 107.827 192.332 109.702 191.999C111.577 191.666 113.241 190.602 114.329 189.043Z" fill="#FAC014" stroke="black" stroke-miterlimit="10"/>
<path d="M450.962 56.5203C451.638 57.7538 452.507 58.871 453.536 59.8298C449.28 71.2154 440.544 84.9529 427.718 100.182C419.415 110.007 410.523 119.32 401.089 128.069C400.431 128.636 399.892 129.33 399.505 130.108C399.118 130.886 398.89 131.733 398.834 132.599C398.779 133.466 398.897 134.334 399.183 135.153C399.468 135.973 399.914 136.726 400.495 137.37C401.076 138.014 401.78 138.535 402.566 138.903C403.353 139.271 404.205 139.478 405.073 139.512C405.941 139.546 406.807 139.407 407.621 139.102C408.435 138.797 409.181 138.333 409.814 137.736C411.82 135.929 454.062 97.5628 466.254 62.9088C468.917 62.1559 471.282 60.5946 473.021 58.4411C474.759 56.2877 475.786 53.6487 475.958 50.89C476.13 48.1313 475.44 45.3894 473.982 43.0444C472.524 40.6994 470.371 38.8673 467.821 37.8021C465.271 36.737 462.451 36.4914 459.752 37.0995C457.052 37.7076 454.607 39.1392 452.754 41.196C450.902 43.2527 449.734 45.8327 449.413 48.5785C449.092 51.3242 449.633 54.0997 450.962 56.5203Z" fill="#FAC014" stroke="black" stroke-miterlimit="10"/>
<path d="M134.6 340.909C133.595 339.925 132.439 339.108 131.176 338.49C131.941 326.359 136.308 310.676 144.156 292.377C149.246 280.563 155.049 269.069 161.534 257.957C161.999 257.222 162.313 256.402 162.457 255.545C162.602 254.688 162.574 253.812 162.375 252.967C162.176 252.121 161.811 251.325 161.3 250.624C160.789 249.923 160.143 249.331 159.4 248.884C158.657 248.437 157.832 248.142 156.973 248.019C156.114 247.895 155.238 247.945 154.398 248.164C153.557 248.384 152.769 248.769 152.078 249.297C151.388 249.826 150.809 250.487 150.377 251.241C148.982 253.553 119.709 302.538 118.112 339.239C115.783 340.733 113.974 342.914 112.936 345.48C111.897 348.046 111.682 350.869 112.319 353.559C112.955 356.249 114.413 358.671 116.489 360.492C118.566 362.312 121.158 363.439 123.907 363.718C126.656 363.996 129.426 363.412 131.833 362.046C134.239 360.68 136.163 358.599 137.338 356.093C138.513 353.587 138.881 350.779 138.39 348.058C137.9 345.337 136.575 342.839 134.6 340.909Z" fill="#FAC014" stroke="black" stroke-miterlimit="10"/>
<path d="M347.269 343.657C348.274 342.674 349.43 341.857 350.693 341.239C349.929 329.107 345.561 313.425 337.714 295.126C332.624 283.312 326.82 271.817 320.336 260.705C319.871 259.971 319.557 259.151 319.412 258.294C319.268 257.437 319.296 256.56 319.495 255.715C319.693 254.87 320.059 254.073 320.57 253.372C321.081 252.671 321.727 252.08 322.47 251.632C323.213 251.185 324.038 250.891 324.897 250.767C325.756 250.644 326.631 250.693 327.472 250.913C328.312 251.132 329.101 251.518 329.792 252.046C330.482 252.574 331.06 253.235 331.493 253.989C332.888 256.302 362.16 305.286 363.757 341.987C366.087 343.482 367.896 345.663 368.934 348.228C369.972 350.794 370.188 353.618 369.551 356.307C368.914 358.997 367.457 361.42 365.38 363.24C363.304 365.06 360.711 366.188 357.962 366.466C355.213 366.745 352.443 366.16 350.037 364.794C347.631 363.428 345.707 361.348 344.532 358.841C343.357 356.335 342.989 353.527 343.479 350.807C343.97 348.086 345.294 345.588 347.269 343.657Z" fill="#FAC014" stroke="black" stroke-miterlimit="10"/>
<path d="M81.4746 152.88C82.4662 152.346 84.4637 151.817 87.4969 151.34C90.486 150.87 94.3561 150.467 98.9942 150.126C108.268 149.445 120.548 149.015 134.863 148.781C163.488 148.313 200.19 148.625 237.119 149.25C280.942 149.991 325.105 151.174 356.424 152.013C377.862 152.587 393.282 153 398.456 153C404.474 153 410.224 156.016 414.937 160.898C419.647 165.776 423.255 172.458 424.972 179.608C426.688 186.758 426.5 194.316 423.702 200.972C420.913 207.607 415.501 213.421 406.619 217.075C402.209 218.89 394.166 220.38 383.301 221.559C372.475 222.733 358.957 223.587 343.674 224.173C313.111 225.344 275.54 225.438 238.424 224.875C201.309 224.313 164.662 223.094 135.951 221.642C121.594 220.916 109.228 220.131 99.7816 219.341C90.2903 218.548 83.8512 217.756 81.2683 217.037C76.2686 215.644 72.6056 211.682 70.2209 206.166C67.8352 200.647 66.7813 193.675 66.9662 186.526C67.1509 179.382 68.5712 172.129 71.0712 166.069C73.5793 159.989 77.1233 155.227 81.4746 152.88Z" fill="#2D9555" stroke="black"/>
<path d="M288.455 184.199C297.531 192.165 302.417 204.53 301.273 223.082C294.633 225.586 280.284 228.42 264.91 230.132C249.071 231.897 232.38 232.444 222.139 230.294C201.457 225.951 191.696 220.726 180.824 214.483C180.318 214.192 180.018 213.833 179.852 213.421C179.68 212.996 179.622 212.437 179.737 211.717C179.971 210.25 180.888 208.327 182.494 206.064C185.687 201.567 191.341 196.092 198.43 190.825C212.638 180.27 232.253 170.814 248.74 171.592C265.484 172.381 279.227 176.099 288.455 184.199Z" fill="#FF5833" stroke="black"/>
<path d="M382.545 145C382.545 149.487 381.601 152.886 379.879 155.453C378.161 158.013 375.604 159.841 372.198 161.075C365.319 163.569 355.19 163.568 342.288 162.379C334.584 161.669 325.928 160.54 316.478 159.306C294.476 156.434 268.171 153 239.545 153C212.767 153 187.151 155.149 164.893 157.016C153.171 157.999 142.381 158.904 132.843 159.376C118.949 160.064 107.761 159.832 100.07 157.678C96.2368 156.604 93.3646 155.076 91.4543 153.03C89.5669 151.009 88.5447 148.403 88.5447 145C88.5447 67.7252 154.313 5 235.545 5C316.777 5 382.545 67.7252 382.545 145ZM239.545 216.865C288.771 216.865 321.769 212.31 343.556 209.302C348.799 208.578 353.394 207.944 357.408 207.484C362.585 206.891 366.753 206.595 370.102 206.757C373.454 206.919 375.884 207.537 377.656 208.688C381.132 210.947 382.545 215.59 382.545 224.865C382.545 244.192 378.434 258.79 371.082 269.841C363.731 280.889 353.08 288.485 339.83 293.704C313.258 304.171 276.463 305 235.545 305C194.626 305 157.831 304.171 131.259 293.704C118.009 288.485 107.358 280.889 100.008 269.841C92.6552 258.79 88.5447 244.192 88.5447 224.865C88.5447 222.59 89.4811 220.77 91.3499 219.268C93.2611 217.731 96.1565 216.527 100.026 215.631C107.761 213.839 118.989 213.362 132.88 213.541C144.258 213.688 157.352 214.272 171.678 214.912C174.817 215.052 178.015 215.195 181.268 215.337C199.352 216.123 219.087 216.865 239.545 216.865Z" fill="#FAC014" stroke="black"/>
<path d="M187.187 20.8581C187.165 20.9044 187.141 20.9533 187.116 21.0046C186.885 21.4816 186.548 22.1701 186.123 23.0157C185.276 24.6998 184.084 27.0061 182.696 29.5042C181.086 31.065 179.688 31.914 178.558 32.223C177.432 32.5311 176.589 32.3012 176.03 31.7265C175.45 31.1303 175.17 30.3635 175.409 29.3634C175.651 28.347 176.435 27.0712 178.044 25.5014C180.188 24.1793 182.62 22.9562 184.521 22.0615C185.475 21.6128 186.294 21.2473 186.874 20.9941C186.988 20.9444 187.093 20.8989 187.187 20.8581Z" stroke="black" stroke-width="0.25"/>
<path d="M203.187 24.8581C203.165 24.9044 203.141 24.9533 203.116 25.0046C202.885 25.4816 202.548 26.1701 202.123 27.0157C201.276 28.6998 200.084 31.0061 198.696 33.5042C197.086 35.065 195.688 35.914 194.558 36.223C193.432 36.5311 192.589 36.3012 192.03 35.7265C191.45 35.1303 191.17 34.3635 191.409 33.3634C191.651 32.347 192.435 31.0712 194.044 29.5014C196.188 28.1793 198.62 26.9562 200.521 26.0615C201.475 25.6128 202.294 25.2473 202.874 24.9941C202.988 24.9444 203.093 24.8989 203.187 24.8581Z" stroke="black" stroke-width="0.25"/>
<path d="M199.187 44.8581C199.165 44.9044 199.141 44.9533 199.116 45.0046C198.885 45.4816 198.548 46.1701 198.123 47.0157C197.276 48.6998 196.084 51.0061 194.696 53.5042C193.086 55.065 191.688 55.914 190.558 56.223C189.432 56.5311 188.589 56.3012 188.03 55.7265C187.45 55.1303 187.17 54.3635 187.409 53.3634C187.651 52.347 188.435 51.0712 190.044 49.5014C192.188 48.1793 194.62 46.9562 196.521 46.0615C197.475 45.6128 198.294 45.2473 198.874 44.9941C198.988 44.9444 199.093 44.8989 199.187 44.8581Z" stroke="black" stroke-width="0.25"/>
<path d="M223.187 24.8581C223.165 24.9044 223.141 24.9533 223.116 25.0046C222.885 25.4816 222.548 26.1701 222.123 27.0157C221.276 28.6998 220.084 31.0061 218.696 33.5042C217.086 35.065 215.688 35.914 214.558 36.223C213.432 36.5311 212.589 36.3012 212.03 35.7265C211.45 35.1303 211.17 34.3635 211.409 33.3634C211.651 32.347 212.435 31.0712 214.044 29.5014C216.188 28.1793 218.62 26.9562 220.521 26.0615C221.475 25.6128 222.294 25.2473 222.874 24.9941C222.988 24.9444 223.093 24.8989 223.187 24.8581Z" stroke="black" stroke-width="0.25"/>
<path d="M227.187 44.8581C227.165 44.9044 227.141 44.9533 227.116 45.0046C226.885 45.4816 226.548 46.1701 226.123 47.0157C225.276 48.6998 224.084 51.0061 222.696 53.5042C221.086 55.065 219.688 55.914 218.558 56.223C217.432 56.5311 216.589 56.3012 216.03 55.7265C215.45 55.1303 215.17 54.3635 215.409 53.3634C215.651 52.347 216.435 51.0712 218.044 49.5014C220.188 48.1793 222.62 46.9562 224.521 46.0615C225.475 45.6128 226.294 45.2473 226.874 44.9941C226.988 44.9444 227.093 44.8989 227.187 44.8581Z" stroke="black" stroke-width="0.25"/>
<path d="M219.187 8.85805C219.165 8.90441 219.141 8.95328 219.116 9.00461C218.885 9.48159 218.548 10.1701 218.123 11.0157C217.276 12.6998 216.084 15.0061 214.696 17.5042C213.086 19.065 211.688 19.914 210.558 20.223C209.432 20.5311 208.589 20.3012 208.03 19.7265C207.45 19.1303 207.17 18.3635 207.409 17.3634C207.651 16.347 208.435 15.0712 210.044 13.5014C212.188 12.1793 214.62 10.9562 216.521 10.0615C217.475 9.6128 218.294 9.24734 218.874 8.99414C218.988 8.94436 219.093 8.89892 219.187 8.85805Z" stroke="black" stroke-width="0.25"/>
<path d="M157.187 36.8581C157.165 36.9044 157.141 36.9533 157.116 37.0046C156.885 37.4816 156.548 38.1701 156.123 39.0157C155.276 40.6998 154.084 43.0061 152.696 45.5042C151.086 47.065 149.688 47.914 148.558 48.223C147.432 48.5311 146.589 48.3012 146.03 47.7265C145.45 47.1303 145.17 46.3635 145.409 45.3634C145.651 44.347 146.435 43.0712 148.044 41.5014C150.188 40.1793 152.62 38.9562 154.521 38.0615C155.475 37.6128 156.294 37.2473 156.874 36.9941C156.988 36.9444 157.093 36.8989 157.187 36.8581Z" stroke="black" stroke-width="0.25"/>
<path d="M141.742 129.613C141.742 140.998 132.519 150.226 121.143 150.226C109.768 150.226 100.545 140.998 100.545 129.613C100.545 118.228 109.768 109 121.143 109C132.519 109 141.742 118.228 141.742 129.613Z" fill="white" stroke="black"/>
<ellipse cx="121.143" cy="123.987" rx="14.6871" ry="14.6968" fill="#070C2A"/>
<path d="M125.062 121.826L126.551 113.564C129.634 114.35 130.945 115.388 132.49 118.373L125.062 121.826Z" fill="white"/>
<path d="M363.742 133.613C363.742 144.998 354.519 154.226 343.143 154.226C331.768 154.226 322.545 144.998 322.545 133.613C322.545 122.228 331.768 113 343.143 113C354.519 113 363.742 122.228 363.742 133.613Z" fill="white" stroke="black"/>
<ellipse cx="343.143" cy="127.987" rx="14.6871" ry="14.6968" fill="#070C2A"/>
<path d="M347.062 125.826L348.551 117.564C351.634 118.35 352.945 119.388 354.49 122.373L347.062 125.826Z" fill="white"/>
<path d="M247.187 28.8581C247.165 28.9044 247.141 28.9533 247.116 29.0046C246.885 29.4816 246.548 30.1701 246.123 31.0157C245.276 32.6998 244.084 35.0061 242.696 37.5042C241.086 39.065 239.688 39.914 238.558 40.223C237.432 40.5311 236.589 40.3012 236.03 39.7265C235.45 39.1303 235.17 38.3635 235.409 37.3634C235.651 36.347 236.435 35.0712 238.044 33.5014C240.188 32.1793 242.62 30.9562 244.521 30.0615C245.475 29.6128 246.294 29.2473 246.874 28.9941C246.988 28.9444 247.093 28.8989 247.187 28.8581Z" stroke="black" stroke-width="0.25"/>
<path d="M245.187 12.8581C245.165 12.9044 245.141 12.9533 245.116 13.0046C244.885 13.4816 244.548 14.1701 244.123 15.0157C243.276 16.6998 242.084 19.0061 240.696 21.5042C239.086 23.065 237.688 23.914 236.558 24.223C235.432 24.5311 234.589 24.3012 234.03 23.7265C233.45 23.1303 233.17 22.3635 233.409 21.3634C233.651 20.347 234.435 19.0712 236.044 17.5014C238.188 16.1793 240.62 14.9562 242.521 14.0615C243.475 13.6128 244.294 13.2473 244.874 12.9941C244.988 12.9444 245.093 12.8989 245.187 12.8581Z" stroke="black" stroke-width="0.25"/>
<path d="M255.187 44.8581C255.165 44.9044 255.141 44.9533 255.116 45.0046C254.885 45.4816 254.548 46.1701 254.123 47.0157C253.276 48.6998 252.084 51.0061 250.696 53.5042C249.086 55.065 247.688 55.914 246.558 56.223C245.432 56.5311 244.589 56.3012 244.03 55.7265C243.45 55.1303 243.17 54.3635 243.409 53.3634C243.651 52.347 244.435 51.0712 246.044 49.5014C248.188 48.1793 250.62 46.9562 252.521 46.0615C253.475 45.6128 254.294 45.2473 254.874 44.9941C254.988 44.9444 255.093 44.8989 255.187 44.8581Z" stroke="black" stroke-width="0.25"/>
<path d="M273.187 28.8581C273.165 28.9044 273.141 28.9533 273.116 29.0046C272.885 29.4816 272.548 30.1701 272.123 31.0157C271.276 32.6998 270.084 35.0061 268.696 37.5042C267.086 39.065 265.688 39.914 264.558 40.223C263.432 40.5311 262.589 40.3012 262.03 39.7265C261.45 39.1303 261.17 38.3635 261.409 37.3634C261.651 36.347 262.435 35.0712 264.044 33.5014C266.188 32.1793 268.62 30.9562 270.521 30.0615C271.475 29.6128 272.294 29.2473 272.874 28.9941C272.988 28.9444 273.093 28.8989 273.187 28.8581Z" stroke="black" stroke-width="0.25"/>
<path d="M265.187 12.8581C265.165 12.9044 265.141 12.9533 265.116 13.0046C264.885 13.4816 264.548 14.1701 264.123 15.0157C263.276 16.6998 262.084 19.0061 260.696 21.5042C259.086 23.065 257.688 23.914 256.558 24.223C255.432 24.5311 254.589 24.3012 254.03 23.7265C253.45 23.1303 253.17 22.3635 253.409 21.3634C253.651 20.347 254.435 19.0712 256.044 17.5014C258.188 16.1793 260.62 14.9562 262.521 14.0615C263.475 13.6128 264.294 13.2473 264.874 12.9941C264.988 12.9444 265.093 12.8989 265.187 12.8581Z" stroke="black" stroke-width="0.25"/>
<path d="M287.187 40.8581C287.165 40.9044 287.141 40.9533 287.116 41.0046C286.885 41.4816 286.548 42.1701 286.123 43.0157C285.276 44.6998 284.084 47.0061 282.696 49.5042C281.086 51.065 279.688 51.914 278.558 52.223C277.432 52.5311 276.589 52.3012 276.03 51.7265C275.45 51.1303 275.17 50.3635 275.409 49.3634C275.651 48.347 276.435 47.0712 278.044 45.5014C280.188 44.1793 282.62 42.9562 284.521 42.0615C285.475 41.6128 286.294 41.2473 286.874 40.9941C286.988 40.9444 287.093 40.8989 287.187 40.8581Z" stroke="black" stroke-width="0.25"/>
<path d="M299.187 56.8581C299.165 56.9044 299.141 56.9533 299.116 57.0046C298.885 57.4816 298.548 58.1701 298.123 59.0157C297.276 60.6998 296.084 63.0061 294.696 65.5042C293.086 67.065 291.688 67.914 290.558 68.223C289.432 68.5311 288.589 68.3012 288.03 67.7265C287.45 67.1303 287.17 66.3635 287.409 65.3634C287.651 64.347 288.435 63.0712 290.044 61.5014C292.188 60.1793 294.62 58.9562 296.521 58.0615C297.475 57.6128 298.294 57.2473 298.874 56.9941C298.988 56.9444 299.093 56.8989 299.187 56.8581Z" stroke="black" stroke-width="0.25"/>
<path d="M327.187 48.8581C327.165 48.9044 327.141 48.9533 327.116 49.0046C326.885 49.4816 326.548 50.1701 326.123 51.0157C325.276 52.6998 324.084 55.0061 322.696 57.5042C321.086 59.065 319.688 59.914 318.558 60.223C317.432 60.5311 316.589 60.3012 316.03 59.7265C315.45 59.1303 315.17 58.3635 315.409 57.3634C315.651 56.347 316.435 55.0712 318.044 53.5014C320.188 52.1793 322.62 50.9562 324.521 50.0615C325.475 49.6128 326.294 49.2473 326.874 48.9941C326.988 48.9444 327.093 48.8989 327.187 48.8581Z" stroke="black" stroke-width="0.25"/>
<path d="M311.187 36.8581C311.165 36.9044 311.141 36.9533 311.116 37.0046C310.885 37.4816 310.548 38.1701 310.123 39.0157C309.276 40.6998 308.084 43.0061 306.696 45.5042C305.086 47.065 303.688 47.914 302.558 48.223C301.432 48.5311 300.589 48.3012 300.03 47.7265C299.45 47.1303 299.17 46.3635 299.409 45.3634C299.651 44.347 300.435 43.0712 302.044 41.5014C304.188 40.1793 306.62 38.9562 308.521 38.0615C309.475 37.6128 310.294 37.2473 310.874 36.9941C310.988 36.9444 311.093 36.8989 311.187 36.8581Z" stroke="black" stroke-width="0.25"/>
<path d="M293.187 20.8581C293.165 20.9044 293.141 20.9533 293.116 21.0046C292.885 21.4816 292.548 22.1701 292.123 23.0157C291.276 24.6998 290.084 27.0061 288.696 29.5042C287.086 31.065 285.688 31.914 284.558 32.223C283.432 32.5311 282.589 32.3012 282.03 31.7265C281.45 31.1303 281.17 30.3635 281.409 29.3634C281.651 28.347 282.435 27.0712 284.044 25.5014C286.188 24.1793 288.62 22.9562 290.521 22.0615C291.475 21.6128 292.294 21.2473 292.874 20.9941C292.988 20.9444 293.093 20.8989 293.187 20.8581Z" stroke="black" stroke-width="0.25"/>
<path d="M179.187 40.8581C179.165 40.9044 179.141 40.9533 179.116 41.0046C178.885 41.4816 178.548 42.1701 178.123 43.0157C177.276 44.6998 176.084 47.0061 174.696 49.5042C173.086 51.065 171.688 51.914 170.558 52.223C169.432 52.5311 168.589 52.3012 168.03 51.7265C167.45 51.1303 167.17 50.3635 167.409 49.3634C167.651 48.347 168.435 47.0712 170.044 45.5014C172.188 44.1793 174.62 42.9562 176.521 42.0615C177.475 41.6128 178.294 41.2473 178.874 40.9941C178.988 40.9444 179.093 40.8989 179.187 40.8581Z" stroke="black" stroke-width="0.25"/>
<ellipse cx="216.545" cy="141" rx="7" ry="3" fill="#070C2A"/>
<ellipse cx="264.545" cy="141" rx="7" ry="3" fill="#070C2A"/>
</svg>
