<svg width="290" height="806" viewBox="0 0 290 806" fill="none" xmlns="http://www.w3.org/2000/svg">
<path d="M80.1295 714.066C76.7815 714.043 73.5738 712.713 71.1838 710.358C68.7938 708.003 67.4087 704.807 67.321 701.445C66.9377 686.689 65.17 612.26 68.1186 596.044C71.1598 579.257 105.413 510.95 112.239 497.423C113.005 495.906 114.061 494.555 115.346 493.447C116.632 492.34 118.122 491.497 119.732 490.968C121.342 490.439 123.04 490.234 124.729 490.364C126.417 490.494 128.064 490.957 129.575 491.726C131.085 492.495 132.431 493.556 133.533 494.847C134.636 496.139 135.474 497.636 136.001 499.253C136.527 500.87 136.732 502.575 136.602 504.272C136.473 505.968 136.012 507.622 135.246 509.14C115.966 547.353 95.0642 592.043 93.4975 600.694C91.5969 611.18 92.2525 667.645 93.1098 700.765C93.1565 702.467 92.8687 704.162 92.2627 705.752C91.6566 707.342 90.7444 708.797 89.5781 710.033C88.4118 711.268 87.0143 712.261 85.4658 712.953C83.9172 713.646 82.2478 714.025 80.5533 714.069L80.1295 714.066Z" fill="#9A56DE" stroke="#000419" stroke-miterlimit="10"/>
<path d="M204.342 730.303C200.983 730.301 197.757 728.984 195.349 726.63C192.942 724.277 191.543 721.073 191.45 717.7L185.874 512.212C185.824 508.802 187.114 505.51 189.465 503.049C191.815 500.588 195.036 499.157 198.43 499.065C201.824 498.974 205.117 500.23 207.595 502.561C210.074 504.892 211.538 508.11 211.67 511.518L217.246 716.994C217.336 720.43 216.065 723.76 213.713 726.255C211.361 728.75 208.119 730.206 204.699 730.303H204.342Z" fill="#9A56DE" stroke="#000419" stroke-miterlimit="10"/>
<path d="M35.6331 359.626C35.6339 359.625 35.6348 359.624 35.6358 359.623C35.6258 359.634 35.6233 359.634 35.6331 359.626ZM136.979 19.784C136.508 19.3324 135.838 18.741 134.981 18.1106C133.172 16.7801 130.509 15.261 127.111 14.5321C120.228 13.0558 110.673 14.8856 99.4424 27.1056L99.4423 27.1056C97.3919 29.3371 95.5232 32.8986 93.7974 37.3375C92.0629 41.7991 90.4384 47.24 88.9156 53.3076C85.8696 65.4438 83.2102 80.1689 80.8913 94.7492C79.1791 105.515 77.6497 116.221 76.2871 125.759C75.8042 129.139 75.3423 132.372 74.9006 135.41C74.0558 141.219 73.2855 146.309 72.5834 150.349C71.8765 154.415 71.2512 157.338 70.7085 158.864C68.4347 165.257 66.4102 168.388 64.9977 170.132C64.4932 170.755 64.0844 171.183 63.7228 171.562C63.5606 171.732 63.4079 171.893 63.2603 172.056C62.8218 172.541 62.3533 173.133 62.3533 173.997C62.3533 174.583 62.4429 175.194 62.7887 175.663C63.2048 176.226 63.8192 176.372 64.3547 176.306C64.8285 176.249 65.2855 176.029 65.6662 175.803C66.0647 175.566 66.474 175.263 66.8668 174.947C67.464 174.465 68.0847 173.899 68.6223 173.409C68.785 173.26 68.9401 173.119 69.0846 172.989C69.1336 172.945 69.1812 172.902 69.2274 172.861C68.7623 173.954 67.6509 175.832 65.3179 178.955C62.6071 182.584 60.821 184.148 59.4869 185.265C59.3981 185.339 59.3106 185.412 59.2242 185.484C57.9719 186.527 56.9689 187.363 56.0114 189.292C55.8769 189.563 55.7551 189.869 55.7219 190.181C55.6866 190.513 55.7454 191.008 56.1793 191.356C56.5454 191.65 56.9696 191.657 57.193 191.643C57.4486 191.627 57.7091 191.563 57.9413 191.492C58.611 191.288 59.5318 190.858 60.403 190.451C60.6825 190.321 60.9569 190.193 61.2163 190.075C61.7841 189.818 62.3037 189.598 62.7388 189.455C62.7833 189.44 62.8261 189.426 62.8671 189.414C62.7813 189.612 62.6575 189.863 62.4813 190.177C60.7244 193.306 58.7206 195.547 57.0235 197.246C56.598 197.672 56.1922 198.064 55.8112 198.43L55.6916 198.545C55.3573 198.866 55.0395 199.171 54.7537 199.457C54.1397 200.069 53.561 200.694 53.2472 201.321C53.0185 201.777 52.9673 202.3 53.1586 202.803C53.34 203.28 53.6985 203.634 54.0926 203.885C54.867 204.377 56.0067 204.62 57.3639 204.621C60.118 204.623 64.2022 203.627 69.3655 200.797C72.0536 199.324 74.3321 197.079 76.186 194.951C77.1166 193.882 77.9529 192.828 78.6842 191.9L78.8083 191.743C79.4942 190.873 80.0694 190.143 80.5591 189.599C80.7447 189.393 80.9063 189.227 81.046 189.097C81.1409 189.621 81.1924 190.479 81.1685 191.794C81.141 193.306 81.017 195.334 80.7918 197.987C79.896 208.542 73.2349 239.927 66.5396 269.234C63.1971 283.865 59.8537 297.946 57.2314 308.599C55.9201 313.926 54.79 318.392 53.9309 321.639C53.5012 323.264 53.1406 324.578 52.8599 325.541C52.5659 326.549 52.3864 327.073 52.3205 327.205C52.1787 327.49 51.8796 327.848 51.3799 328.266C50.8903 328.675 50.2642 329.096 49.5409 329.522C48.0916 330.377 46.3498 331.197 44.7293 331.954L44.4994 332.061C43.0086 332.757 41.5823 333.423 40.74 333.983C40.5119 334.134 40.2863 334.304 40.1024 334.491C39.9406 334.655 39.6881 334.954 39.6276 335.372C39.5503 335.907 39.8161 336.327 40.1299 336.571C40.3955 336.777 40.7186 336.887 40.9965 336.956C42.184 337.252 43.492 337.013 44.6189 336.699C45.1985 336.537 45.7707 336.344 46.2996 336.159C46.4169 336.118 46.5313 336.078 46.6431 336.039C47.0463 335.898 47.4154 335.768 47.7611 335.66C48.2068 335.52 48.5479 335.435 48.7995 335.408C48.8205 335.406 48.8399 335.404 48.8577 335.403C48.848 335.629 48.7796 336.006 48.5861 336.59C48.2216 337.691 47.0944 338.983 45.421 340.374C43.7851 341.733 41.7823 343.064 39.8817 344.277C39.4385 344.56 38.9982 344.838 38.569 345.109C37.1906 345.979 35.927 346.777 35.0536 347.428C34.5138 347.83 33.9629 348.288 33.683 348.759C33.5391 349.002 33.3383 349.466 33.5421 349.99C33.7423 350.505 34.1966 350.722 34.4778 350.815C34.8232 350.929 35.1947 350.944 35.5268 350.925C35.8708 350.907 36.246 350.848 36.6339 350.766C37.4088 350.603 38.3238 350.329 39.2976 350.008C40.1445 349.73 41.0612 349.407 41.9962 349.078C42.1401 349.027 42.2844 348.976 42.429 348.926C43.5184 348.543 44.627 348.157 45.7033 347.815C47.9004 347.117 49.8117 346.655 51.0787 346.704C51.7109 346.729 51.9878 346.876 52.0961 346.984C52.1651 347.053 52.3139 347.252 52.2255 347.877C52.1609 348.335 51.8004 348.944 50.9759 349.686C50.1749 350.407 49.0612 351.141 47.7514 351.869C45.1413 353.321 41.9264 354.654 39.2688 355.756L39.2448 355.766C37.9287 356.311 36.7365 356.806 35.8564 357.222C35.4187 357.428 35.0261 357.63 34.7227 357.822C34.5718 357.918 34.4164 358.028 34.2815 358.151C34.1663 358.257 33.9644 358.463 33.866 358.768C33.8108 358.939 33.7852 359.153 33.8398 359.384C33.8945 359.615 34.0134 359.796 34.1407 359.925C34.3677 360.156 34.6456 360.252 34.8083 360.298C35.1608 360.397 35.627 360.432 36.1471 360.438C37.2242 360.452 38.9122 360.346 41.3331 360.114C46.2863 359.641 51.0976 358.223 55.4113 356.831C56.1408 356.596 56.8536 356.363 57.5491 356.135C61.0205 354.997 64.0624 354.001 66.6123 353.628C68.1281 353.406 69.3707 353.423 70.3622 353.713C71.3188 353.992 72.0805 354.536 72.6594 355.475C73.2571 356.445 73.69 357.889 73.8471 360C74.0037 362.104 73.8816 364.807 73.4252 368.24C72.9423 371.873 73.3542 376.556 74.4671 381.915C75.5831 387.288 77.4179 393.405 79.8298 399.932C84.6537 412.986 91.8078 427.739 100.217 441.56C108.622 455.376 118.307 468.301 128.206 477.672C138.064 487.003 148.321 492.987 157.853 492.509C176.291 491.584 198.467 481.991 217.392 472.848C221.429 470.898 225.31 468.973 228.983 467.15C233.968 464.676 238.57 462.393 242.651 460.501C246.186 458.861 249.289 457.535 251.869 456.648C254.482 455.75 256.43 455.35 257.708 455.449C263.919 455.931 268.98 454.258 272.395 451.932C274.098 450.772 275.413 449.433 276.249 448.094C277.07 446.778 277.499 445.337 277.18 444.041C276.921 442.993 276.442 442.106 275.437 441.768C274.99 441.618 274.529 441.612 274.103 441.656C273.676 441.7 273.215 441.802 272.745 441.92C272.471 441.989 272.181 442.067 271.874 442.149C270.063 442.634 267.648 443.28 264.231 443.28C260.577 443.28 257.644 440.605 256.375 438.051C256.065 437.426 255.872 436.842 255.791 436.346C255.708 435.839 255.752 435.488 255.835 435.279C255.904 435.107 256.001 435.013 256.176 434.957C256.394 434.887 256.81 434.858 257.509 435.059C259.373 435.593 261.824 435.369 264.327 434.793C266.866 434.21 269.605 433.229 272.124 432.11C274.64 430.991 276.972 429.717 278.691 428.531C279.547 427.94 280.282 427.35 280.814 426.791C281.08 426.511 281.317 426.217 281.493 425.914C281.664 425.618 281.815 425.247 281.815 424.833C281.815 424.456 281.771 423.852 281.318 423.425C280.83 422.964 280.208 423.015 279.882 423.067C279.519 423.124 279.089 423.259 278.667 423.393L278.524 423.439C278.11 423.571 277.644 423.719 277.098 423.868C274.703 424.522 270.72 425.202 264.441 423.855C263.103 423.568 261.75 422.697 260.405 421.203C259.062 419.71 257.777 417.651 256.571 415.107C254.161 410.017 252.139 403.133 250.594 395.361C247.505 379.823 246.361 360.943 247.718 346.25C249.093 331.35 247.692 303.727 245.5 278.281C244.403 265.543 243.105 253.324 241.85 243.477C240.599 233.662 239.383 226.128 238.438 222.813C238.026 221.366 237.632 220.057 237.272 218.858C236.812 217.33 236.406 215.981 236.084 214.75C235.509 212.558 235.276 211.003 235.467 209.84C235.641 208.788 236.173 207.989 237.432 207.304C238.764 206.581 240.86 206.018 244.064 205.559C250.67 204.613 257.045 201.779 260.407 199.369C261.249 198.766 261.95 198.155 262.42 197.57C262.654 197.278 262.862 196.955 262.986 196.609C263.112 196.26 263.173 195.825 263.013 195.382C262.684 194.472 261.723 194.198 260.975 194.113C260.133 194.018 259.004 194.093 257.587 194.329C252.3 195.213 247.684 193.881 245.091 192.472C244.594 192.202 244.184 191.936 243.865 191.692C245.547 191.931 247.698 191.298 249.834 190.338C252.07 189.334 254.489 187.878 256.716 186.288C258.942 184.698 261.01 182.95 262.533 181.346C263.293 180.545 263.938 179.758 264.399 179.028C264.841 178.327 265.198 177.55 265.198 176.798C265.198 176.109 264.971 175.476 264.446 175.018C263.96 174.596 263.34 174.43 262.764 174.367C261.629 174.244 260.13 174.475 258.6 174.756C258.151 174.838 257.694 174.926 257.229 175.016C256.043 175.244 254.81 175.481 253.558 175.656C251.821 175.899 250.141 176.007 248.663 175.807C245.58 175.389 244.394 174.33 244.025 173.515C243.662 172.71 243.917 171.741 244.629 171.031C244.654 171.006 244.751 170.927 244.972 170.797C245.181 170.674 245.454 170.532 245.792 170.372C246.468 170.052 247.348 169.681 248.373 169.271C249.396 168.862 250.545 168.42 251.754 167.955L251.777 167.946C252.977 167.484 254.234 167.001 255.471 166.509C257.948 165.525 260.389 164.493 262.162 163.52C263.04 163.037 263.818 162.536 264.357 162.025C264.825 161.58 265.467 160.786 265.146 159.824C264.915 159.129 264.248 158.892 263.913 158.798C263.504 158.683 262.996 158.624 262.469 158.581C262.018 158.545 261.548 158.518 261.04 158.49C260.242 158.446 259.35 158.396 258.289 158.293C254.955 157.969 250.66 157.156 246.407 154.549C237.968 149.375 229.265 136.849 229.265 105.528C229.265 73.8296 219.284 49.7848 207.296 33.4185C201.305 25.239 194.809 18.9732 188.802 14.6277C182.819 10.2994 177.243 7.82085 173.088 7.33037C157.625 5.50495 144.693 10.751 136.979 19.784Z" fill="#2D9555" stroke="black"/>
<path d="M221.35 225.899C221.123 225.899 220.899 225.843 220.698 225.736C220.498 225.629 220.326 225.474 220.2 225.285C220.073 225.095 219.994 224.878 219.971 224.65C219.948 224.423 219.981 224.194 220.067 223.983C220.235 223.568 223.993 213.497 211.324 204.311C200.896 196.738 195.911 175.42 196.893 142.698C196.893 141.992 196.893 141.488 196.893 141.219C196.875 141.027 196.898 140.833 196.96 140.65C197.021 140.467 197.12 140.299 197.249 140.157C197.379 140.015 197.536 139.901 197.712 139.823C197.888 139.745 198.078 139.705 198.27 139.705C198.462 139.705 198.652 139.745 198.828 139.823C199.003 139.901 199.161 140.015 199.291 140.157C199.42 140.299 199.519 140.467 199.58 140.65C199.642 140.833 199.664 141.027 199.647 141.219C199.647 141.51 199.647 142.037 199.647 142.787C198.699 174.154 203.428 195.215 212.93 202.161C220.447 207.605 222.699 213.509 223.268 217.497C223.678 220.055 223.456 222.674 222.621 225.126C222.504 225.362 222.322 225.56 222.097 225.696C221.872 225.833 221.613 225.903 221.35 225.899Z" fill="#34AD62"/>
<path d="M175.547 188.393H175.491C175.126 188.378 174.782 188.219 174.533 187.95C174.285 187.682 174.152 187.325 174.164 186.959L175.96 138.967C175.977 138.6 176.138 138.254 176.407 138.004C176.676 137.755 177.032 137.622 177.398 137.634C177.579 137.64 177.758 137.682 177.923 137.757C178.088 137.832 178.236 137.94 178.359 138.073C178.483 138.206 178.579 138.363 178.642 138.534C178.704 138.704 178.733 138.886 178.725 139.068L176.93 187.082C176.91 187.437 176.755 187.77 176.498 188.014C176.241 188.258 175.901 188.393 175.547 188.393Z" fill="#34AD62"/>
<path d="M232.402 381.356C232.05 381.356 231.711 381.22 231.455 380.976C231.2 380.732 231.048 380.399 231.03 380.045C229.201 345.194 233.752 269.577 233.796 268.815C233.795 268.625 233.833 268.437 233.907 268.262C233.982 268.087 234.091 267.929 234.229 267.799C234.366 267.668 234.529 267.567 234.707 267.502C234.885 267.437 235.074 267.41 235.263 267.421C235.452 267.433 235.637 267.483 235.805 267.569C235.974 267.655 236.124 267.775 236.244 267.922C236.365 268.068 236.455 268.238 236.507 268.421C236.56 268.603 236.575 268.795 236.551 268.983C236.551 269.745 231.967 345.161 233.785 379.888C233.803 380.255 233.676 380.614 233.432 380.887C233.187 381.16 232.845 381.324 232.48 381.345L232.402 381.356Z" fill="#34AD62"/>
<path d="M184.491 196.234C184.126 196.228 183.779 196.078 183.524 195.816C183.269 195.553 183.128 195.201 183.131 194.834L184.246 122.331C184.252 121.967 184.4 121.619 184.659 121.364C184.917 121.108 185.266 120.965 185.629 120.965C185.995 120.974 186.342 121.126 186.597 121.391C186.851 121.655 186.992 122.009 186.989 122.376L185.874 194.868C185.868 195.232 185.72 195.58 185.461 195.835C185.203 196.091 184.854 196.234 184.491 196.234Z" fill="#34AD62"/>
<path d="M192.789 248.068C192.607 248.067 192.427 248.029 192.259 247.957C192.092 247.885 191.941 247.78 191.814 247.649C191.687 247.518 191.588 247.362 191.522 247.192C191.455 247.022 191.424 246.84 191.428 246.657L192.543 174.165C192.526 173.973 192.549 173.78 192.61 173.597C192.672 173.414 192.77 173.246 192.9 173.104C193.03 172.961 193.187 172.848 193.363 172.77C193.539 172.692 193.729 172.652 193.921 172.652C194.113 172.652 194.303 172.692 194.478 172.77C194.654 172.848 194.812 172.961 194.941 173.104C195.071 173.246 195.17 173.414 195.231 173.597C195.292 173.78 195.315 173.973 195.298 174.165L194.183 246.657C194.186 246.842 194.152 247.026 194.083 247.198C194.014 247.37 193.912 247.526 193.782 247.658C193.652 247.789 193.497 247.893 193.327 247.964C193.156 248.034 192.973 248.07 192.789 248.068Z" fill="#34AD62"/>
<path d="M221.35 339.705C221.168 339.706 220.987 339.672 220.817 339.602C220.648 339.533 220.495 339.431 220.365 339.302C220.235 339.173 220.133 339.019 220.062 338.85C219.992 338.681 219.956 338.499 219.956 338.316L220.882 180.965C220.885 180.599 221.032 180.248 221.291 179.99C221.55 179.732 221.9 179.587 222.265 179.587C222.632 179.59 222.984 179.739 223.243 180.002C223.502 180.264 223.648 180.618 223.648 180.988L222.733 338.316C222.733 338.684 222.587 339.038 222.328 339.298C222.069 339.559 221.717 339.705 221.35 339.705Z" fill="#34AD62"/>
<path d="M122.751 194.386C122.57 194.383 122.391 194.344 122.224 194.272C122.057 194.199 121.906 194.094 121.78 193.963C121.654 193.832 121.554 193.677 121.487 193.508C121.421 193.338 121.388 193.157 121.391 192.974L122.506 120.483C122.506 120.115 122.652 119.761 122.911 119.501C123.17 119.24 123.522 119.094 123.889 119.094C124.256 119.094 124.607 119.24 124.867 119.501C125.126 119.761 125.272 120.115 125.272 120.483L124.157 192.974C124.16 193.161 124.125 193.346 124.056 193.518C123.986 193.691 123.883 193.848 123.752 193.979C123.621 194.111 123.465 194.215 123.293 194.285C123.121 194.355 122.937 194.389 122.751 194.386Z" fill="#34AD62"/>
<path d="M117.231 172.171C117.049 172.17 116.869 172.132 116.702 172.06C116.534 171.988 116.383 171.883 116.256 171.752C116.129 171.621 116.03 171.465 115.964 171.295C115.898 171.125 115.866 170.943 115.87 170.76L116.986 98.2684C116.994 97.9009 117.147 97.5516 117.409 97.2959C117.672 97.0402 118.025 96.8986 118.391 96.9017C118.572 96.9046 118.752 96.9434 118.918 97.016C119.085 97.0885 119.236 97.1933 119.362 97.3243C119.488 97.4554 119.588 97.6102 119.655 97.7799C119.721 97.9495 119.754 98.1308 119.751 98.3132L118.636 170.805C118.627 171.172 118.475 171.521 118.212 171.777C117.949 172.033 117.597 172.174 117.231 172.171Z" fill="#34AD62"/>
<path d="M110.774 185.133C110.592 185.13 110.413 185.091 110.246 185.018C110.079 184.946 109.929 184.841 109.802 184.71C109.676 184.579 109.576 184.424 109.51 184.254C109.443 184.085 109.41 183.904 109.413 183.721L110.528 111.23C110.528 110.861 110.674 110.508 110.933 110.247C111.193 109.987 111.544 109.841 111.911 109.841C112.278 109.841 112.63 109.987 112.889 110.247C113.148 110.508 113.294 110.861 113.294 111.23L112.179 183.721C112.182 183.907 112.148 184.092 112.078 184.265C112.008 184.438 111.905 184.594 111.774 184.726C111.643 184.858 111.487 184.962 111.315 185.031C111.143 185.101 110.959 185.136 110.774 185.133Z" fill="#34AD62"/>
<path d="M79.4351 353.585C79.0703 353.579 78.7226 353.428 78.4677 353.166C78.2129 352.904 78.0715 352.551 78.0745 352.185L79.1898 279.682C79.1881 279.498 79.2236 279.316 79.2942 279.146C79.3648 278.977 79.469 278.824 79.6004 278.696C79.7319 278.568 79.8878 278.468 80.0588 278.403C80.2298 278.337 80.4122 278.308 80.595 278.315C80.9608 278.324 81.3085 278.477 81.5631 278.741C81.8176 279.005 81.9586 279.359 81.9556 279.727L80.8403 352.218C80.8374 352.401 80.7987 352.581 80.7266 352.748C80.6544 352.915 80.5501 353.067 80.4196 353.194C80.2891 353.321 80.135 353.421 79.966 353.488C79.7971 353.555 79.6167 353.588 79.4351 353.585Z" fill="#34AD62"/>
<path d="M263.272 394.328C256.101 394.328 248.941 391.348 242.015 385.478C239.201 383.092 236.638 380.423 234.365 377.513C232.606 375.174 231.758 372.271 231.98 369.348C232.201 366.425 233.478 363.684 235.569 361.639C241.685 355.473 247.365 348.885 252.566 341.923C263.149 327.539 264.61 319.72 263.908 317.591C260.35 306.882 223.904 261.411 190.725 223.636C189.685 222.451 188.887 221.071 188.377 219.577C187.867 218.082 187.655 216.501 187.753 214.924C187.852 213.347 188.258 211.805 188.95 210.386C189.642 208.966 190.605 207.698 191.785 206.653C192.964 205.607 194.338 204.806 195.826 204.294C197.314 203.781 198.888 203.569 200.458 203.668C202.028 203.766 203.563 204.175 204.976 204.87C206.389 205.564 207.651 206.532 208.692 207.717C220.502 221.16 279.755 289.271 286.636 309.985C290.673 322.162 285.766 337.375 271.636 356.486C268.001 361.404 264.253 365.896 261.041 369.537C261.722 369.94 262.485 370.185 263.272 370.254C266.449 370.254 269.495 371.522 271.741 373.778C273.988 376.034 275.25 379.095 275.25 382.286C275.25 385.477 273.988 388.537 271.741 390.793C269.495 393.05 266.449 394.317 263.272 394.317V394.328Z" fill="#9A56DE" stroke="#000419" stroke-miterlimit="10"/>
<path d="M68.8514 423.007C66.4553 423.013 64.1121 422.299 62.1243 420.955C60.1364 419.611 58.595 417.7 57.699 415.467C41.2157 374.253 40.3457 327.36 55.2008 279.917C66.3533 244.338 82.2455 220.97 82.9147 219.995C84.7189 217.368 87.488 215.57 90.6127 214.994C93.7374 214.418 96.9617 215.113 99.5764 216.925C102.191 218.738 103.982 221.519 104.555 224.658C105.128 227.797 104.436 231.035 102.632 233.662C102.342 234.099 87.766 255.708 77.8403 287.837C64.7027 330.306 65.4053 370.243 79.9258 406.584C80.5162 408.055 80.8114 409.628 80.7944 411.214C80.7774 412.799 80.4485 414.366 79.8267 415.823C79.2048 417.281 78.3023 418.6 77.1709 419.706C76.0396 420.812 74.7017 421.683 73.2343 422.267C71.831 422.782 70.3452 423.033 68.8514 423.007Z" fill="#9A56DE" stroke="#000419" stroke-miterlimit="10"/>
<path d="M72.3981 264.693C67.9394 242.691 76.0621 224.587 90.6361 211.807C105.242 199.001 126.332 191.552 147.667 191.04C169.164 190.524 188.955 192.556 204.107 202.389C219.18 212.171 229.866 229.814 232.859 261.003C231.926 273.83 227.814 285.218 223.661 295.241C222.866 297.158 222.066 299.035 221.286 300.864C220.035 303.799 218.837 306.61 217.799 309.267C216.11 313.59 214.796 317.622 214.313 321.325C212.448 335.598 214.248 345.196 218.114 352.859C221.492 359.552 226.429 364.712 231.629 370.147C232.339 370.889 233.055 371.637 233.772 372.394C239.761 378.721 245.978 385.829 250.839 396.528C255.701 407.231 259.233 421.589 259.734 442.423C259.935 450.809 258.098 477.668 244.188 502.681C230.319 527.622 204.429 550.781 156.332 551.936C140.549 552.315 113.603 546.277 90.3804 530.081C67.2025 513.917 47.7583 487.659 46.7949 447.535C46.3694 429.811 48.7773 416.508 52.5824 405.732C56.389 394.952 61.6085 386.657 66.8753 378.94C67.7418 377.67 68.6101 376.415 69.4735 375.168C79.1102 361.245 88.1422 348.195 87.4135 324.518C87.1823 317.003 84.2954 306.437 81.0659 295.633C80.426 293.492 79.7719 291.34 79.1204 289.196C76.4626 280.449 73.8467 271.841 72.3981 264.693Z" fill="#333333" stroke="black"/>
<path d="M129.751 127.239L129.751 127.239C129.701 124.938 130.102 122.65 130.933 120.506C131.763 118.361 133.006 116.402 134.59 114.741C136.174 113.08 138.068 111.749 140.164 110.824C142.257 109.901 144.51 109.4 146.795 109.351L147.186 109.351C147.186 109.351 147.186 109.351 147.186 109.351C147.186 109.351 147.186 109.351 147.186 109.351C151.741 109.353 156.114 111.146 159.369 114.349C162.625 117.551 164.503 121.908 164.599 126.486L164.599 126.486L171.971 472.644L171.971 472.645C172.021 474.945 171.62 477.233 170.79 479.378C169.959 481.522 168.716 483.481 167.132 485.142C165.548 486.803 163.654 488.134 161.558 489.059C159.465 489.983 157.211 490.483 154.926 490.533H154.536C149.982 490.531 145.608 488.737 142.353 485.535C139.097 482.332 137.219 477.975 137.123 473.397L136.123 473.418L137.123 473.397L129.751 127.239Z" fill="#4F4F4F" stroke="black"/>
<path d="M182.426 132.131L182.737 131.766C191.999 120.876 197.777 105.694 197.777 88.8695C197.777 55.5061 175.17 28.7822 147.632 28.7822C120.095 28.7822 97.4983 55.5058 97.4983 88.8695C97.4983 105.68 103.256 120.872 112.513 131.735L112.542 131.764L112.568 131.791L112.593 131.819C114.015 133.481 115.534 135.058 117.14 136.541L117.179 136.577L117.214 136.617C119.656 139.41 122.623 143.216 124.969 147.518C127.31 151.81 129.074 156.67 129.015 161.552L129.015 161.553C128.976 164.583 129.913 166.763 131.337 168.365C132.78 169.99 134.782 171.085 136.958 171.809C141.325 173.264 146.119 173.137 147.588 173.055L147.643 173.052L147.699 173.055C149.168 173.137 153.961 173.264 158.331 171.809C160.507 171.085 162.51 169.989 163.955 168.365C165.38 166.762 166.319 164.582 166.283 161.553L182.426 132.131ZM182.426 132.131C181.085 133.678 179.66 135.151 178.158 136.542L178.12 136.576L178.086 136.615C175.626 139.409 172.656 143.216 170.312 147.518C167.974 151.811 166.219 156.671 166.283 161.553L182.426 132.131Z" fill="#9A56DE" stroke="black"/>
<path d="M138.878 49.067C138.878 49.067 128.74 90.7179 115.848 110.154C102.956 129.591 100.234 143.482 101.104 156.443C101.104 156.443 84.9779 133.758 91.424 95.8151C97.8701 57.8722 108.933 34.7278 119.997 30.1011C131.06 25.4745 143.952 20.8367 138.878 49.067Z" fill="#2D9555"/>
<path d="M136.112 37.0355C137.038 37.0355 133.357 45.3702 157.302 70.363C181.246 95.3558 196.926 109.236 193.235 133.299L189.554 157.362C189.554 157.362 222.186 75.6842 208.915 53.6937C193.246 27.7823 154.547 21.2848 142.569 23.1556C130.591 25.0264 136.112 37.0355 136.112 37.0355Z" fill="#2D9555"/>
<path d="M189.565 158.751H189.354C188.999 158.683 188.684 158.479 188.476 158.182C188.268 157.885 188.183 157.519 188.238 157.16L191.93 133.097C195.22 111.577 182.629 98.5373 161.751 76.9276C160.011 75.124 158.205 73.2644 156.365 71.3264C156.225 71.1984 156.113 71.0431 156.036 70.8701C155.959 70.6971 155.918 70.51 155.915 70.3203C155.912 70.1307 155.948 69.9425 156.021 69.7674C156.093 69.5923 156.201 69.434 156.337 69.3022C156.473 69.1704 156.634 69.0679 156.81 69.0011C156.987 68.9342 157.176 68.9045 157.364 68.9136C157.553 68.9227 157.738 68.9706 157.907 69.0541C158.077 69.1377 158.227 69.2553 158.35 69.3996L163.736 75.0008C184.469 96.4536 198.164 110.625 194.662 133.523L190.96 157.575C190.908 157.907 190.739 158.209 190.482 158.426C190.226 158.642 189.9 158.757 189.565 158.751Z" fill="#34AD62"/>
<path d="M263.272 395.328H264.272V395.278C267.349 395.04 270.254 393.705 272.45 391.499C274.884 389.055 276.25 385.74 276.25 382.286C276.25 378.831 274.884 375.517 272.45 373.073C270.028 370.639 266.745 369.267 263.319 369.254C263.113 369.234 262.91 369.2 262.71 369.15C264.728 366.832 266.92 364.215 269.154 361.385L269.155 361.383C269.63 360.779 269.322 360.114 269.211 359.907C269.055 359.617 268.816 359.332 268.567 359.072C268.054 358.537 267.288 357.894 266.381 357.202C264.553 355.81 262.014 354.124 259.398 352.554C256.785 350.985 254.061 349.513 251.862 348.562C250.77 348.09 249.762 347.726 248.941 347.554C248.535 347.469 248.118 347.419 247.734 347.454C247.362 347.487 246.867 347.617 246.517 348.045C240.58 355.297 235.239 360.561 234.879 360.915C234.876 360.919 234.873 360.922 234.871 360.924L234.871 360.924C232.602 363.139 231.218 366.11 230.978 369.277C230.737 372.445 231.658 375.592 233.566 378.126L233.566 378.126L233.571 378.132C234.666 379.565 238.085 383.843 243.208 387.77C248.326 391.693 255.228 395.328 263.272 395.328Z" fill="#9A56DE" stroke="#000419" stroke-miterlimit="10"/>
<path d="M166.067 171.253L148.101 175.879L130.123 171.253C129.267 171.25 128.447 170.906 127.843 170.297C127.239 169.688 126.9 168.864 126.9 168.004C126.903 167.146 127.243 166.325 127.847 165.718C128.451 165.112 129.269 164.769 130.123 164.767L148.101 169.393L166.067 164.767C166.921 164.769 167.739 165.112 168.343 165.718C168.947 166.325 169.287 167.146 169.29 168.004C169.29 168.864 168.951 169.688 168.347 170.297C167.743 170.906 166.923 171.25 166.067 171.253Z" fill="#333333"/>
<path d="M148.101 177.313L129.934 172.631C128.712 172.605 127.55 172.094 126.704 171.208C125.858 170.323 125.397 169.136 125.422 167.909C125.448 166.682 125.957 165.515 126.838 164.665C127.72 163.815 128.902 163.352 130.123 163.377H130.469L148.101 167.914L166.067 163.333C167.289 163.307 168.471 163.771 169.352 164.62C170.234 165.47 170.743 166.637 170.768 167.864C170.793 169.091 170.332 170.278 169.486 171.163C168.64 172.049 167.479 172.561 166.257 172.586L148.101 177.313ZM129.978 166.167C129.737 166.176 129.499 166.234 129.279 166.335C129.06 166.437 128.862 166.581 128.698 166.76C128.367 167.12 128.191 167.598 128.21 168.088C128.23 168.578 128.442 169.041 128.801 169.374C129.159 169.707 129.635 169.883 130.123 169.864H130.469L148.101 174.401L166.067 169.819C166.556 169.838 167.031 169.662 167.39 169.329C167.749 168.996 167.961 168.534 167.98 168.043C167.999 167.553 167.824 167.075 167.492 166.715C167.161 166.355 166.701 166.141 166.212 166.122L148.101 170.782L129.978 166.167Z" fill="black"/>
<path d="M168.365 478.549C167.883 478.546 167.422 478.355 167.078 478.016C166.735 477.677 166.536 477.217 166.525 476.734L159.153 169.438C159.147 169.195 159.189 168.954 159.276 168.727C159.363 168.501 159.493 168.293 159.66 168.118C159.827 167.942 160.027 167.801 160.248 167.702C160.469 167.604 160.707 167.551 160.948 167.545C161.43 167.542 161.893 167.729 162.237 168.067C162.582 168.405 162.78 168.865 162.789 169.348L170.16 476.644C170.168 476.888 170.127 477.13 170.041 477.357C169.954 477.584 169.824 477.792 169.656 477.968C169.489 478.144 169.289 478.285 169.068 478.383C168.846 478.481 168.607 478.533 168.365 478.538V478.549Z" fill="#BDBDBD"/>
<path d="M160.079 484.094C159.597 484.094 159.134 483.906 158.789 483.569C158.443 483.233 158.242 482.774 158.227 482.291L150.856 173.101C150.85 172.858 150.892 172.615 150.979 172.388C151.067 172.161 151.199 171.953 151.367 171.777C151.535 171.601 151.736 171.46 151.958 171.363C152.18 171.265 152.42 171.212 152.662 171.208C153.143 171.208 153.604 171.396 153.948 171.733C154.292 172.07 154.491 172.529 154.502 173.012L161.874 482.201C161.88 482.444 161.838 482.685 161.751 482.912C161.664 483.138 161.534 483.345 161.367 483.521C161.2 483.697 161.001 483.838 160.78 483.936C160.558 484.035 160.32 484.088 160.079 484.094Z" fill="#BDBDBD"/>
<path d="M150.811 484.094C150.33 484.094 149.869 483.906 149.525 483.569C149.181 483.232 148.982 482.773 148.971 482.29L141.599 173.101C141.622 172.632 141.821 172.19 142.156 171.862C142.49 171.534 142.936 171.346 143.403 171.334C143.87 171.323 144.325 171.49 144.675 171.801C145.025 172.112 145.245 172.544 145.29 173.012L152.662 482.201C152.668 482.445 152.626 482.687 152.538 482.914C152.45 483.141 152.319 483.349 152.151 483.525C151.983 483.701 151.782 483.842 151.56 483.94C151.337 484.037 151.098 484.09 150.855 484.094H150.811Z" fill="#BDBDBD"/>
<path d="M142.569 478.549C142.087 478.549 141.624 478.359 141.28 478.019C140.936 477.68 140.738 477.218 140.729 476.734L133.357 169.438C133.351 169.195 133.393 168.954 133.48 168.727C133.567 168.501 133.698 168.293 133.864 168.118C134.031 167.942 134.231 167.801 134.452 167.702C134.673 167.604 134.911 167.551 135.153 167.545C135.633 167.545 136.095 167.733 136.438 168.07C136.782 168.407 136.981 168.866 136.993 169.348L144.365 476.644C144.371 476.887 144.329 477.129 144.242 477.355C144.155 477.582 144.024 477.789 143.857 477.965C143.691 478.141 143.491 478.282 143.27 478.38C143.049 478.478 142.811 478.532 142.569 478.538V478.549Z" fill="#BDBDBD"/>
<path d="M74.3831 163.377C74.1191 163.378 73.8601 163.305 73.6359 163.165C73.4818 163.068 73.3485 162.941 73.2437 162.792C73.1388 162.643 73.0645 162.474 73.0251 162.296C72.9857 162.118 72.9819 161.933 73.014 161.753C73.0461 161.574 73.1134 161.402 73.2121 161.249C75.4426 157.776 77.6731 142.899 80.2604 125.681C84.9891 94.3139 91.4686 51.4083 103.681 34.3805C114.777 18.8762 128.484 23.178 133.647 24.8248C134.272 25.0264 134.762 25.1944 135.131 25.2617C135.495 25.3323 135.818 25.5451 136.027 25.8538C136.236 26.1624 136.314 26.5416 136.246 26.9084C136.214 27.0913 136.146 27.2659 136.045 27.4218C135.945 27.5778 135.814 27.7119 135.662 27.8163C135.509 27.9208 135.337 27.9934 135.155 28.0298C134.974 28.0663 134.787 28.0659 134.606 28.0287C134.149 27.9278 133.58 27.7486 132.855 27.5246C127.77 25.9226 115.881 22.1698 105.956 36.0385C94.1452 52.5286 87.7214 95.0757 83.0374 126.14C80.1712 145.117 78.0969 158.818 75.5876 162.784C75.4542 162.978 75.2734 163.135 75.0625 163.239C74.8516 163.342 74.6177 163.39 74.3831 163.377Z" fill="#34AD62"/>
<path d="M69.3088 197.164C69.0595 197.165 68.8145 197.098 68.6003 196.97C68.3861 196.841 68.2108 196.657 68.0932 196.436C67.9218 196.112 67.8843 195.732 67.9886 195.38C68.0929 195.028 68.3307 194.732 68.6508 194.554C80.5393 188.09 84.1527 173.818 88.7252 155.76C92.3721 141.286 96.532 124.886 105.9 108.093C125.283 73.3653 135.298 47.409 133.391 36.8227C133.326 36.1983 133.115 35.5981 132.776 35.0707C132.437 34.5432 131.979 34.1034 131.439 33.7868C127.848 31.8488 120.287 35.1087 117.465 36.3298C116.826 36.6975 116.121 36.9372 115.391 37.0355C115.044 37.0409 114.707 36.9149 114.448 36.6825C114.189 36.4502 114.027 36.1285 113.993 35.7815C113.959 35.4344 114.057 35.0872 114.266 34.809C114.476 34.5308 114.781 34.3419 115.123 34.2797C115.324 34.2125 115.848 33.9884 116.316 33.7868C120.086 32.1512 127.926 28.7681 132.688 31.3334C133.594 31.8476 134.368 32.5669 134.949 33.4342C135.53 34.3015 135.901 35.293 136.034 36.3298C138.097 47.7003 128.227 73.6677 108.242 109.449C99.0412 125.916 94.9483 142.137 91.3349 156.499C86.6063 175.218 82.8702 190.006 69.911 197.052C69.7209 197.134 69.5153 197.172 69.3088 197.164Z" fill="#34AD62"/>
<path d="M242.082 163.377H241.937C226.971 161.787 217.826 133.512 213.978 76.9276C211.279 37.1475 188.049 24.4551 169.034 20.8143C153.242 17.8008 145.268 24.9256 141.432 28.3535C140.873 28.8877 140.28 29.3854 139.658 29.8435C139.351 30.0455 138.976 30.1165 138.616 30.0409C138.256 29.9653 137.941 29.7492 137.74 29.4402C137.539 29.1312 137.468 28.7546 137.544 28.3933C137.619 28.0319 137.834 27.7154 138.142 27.5134C138.658 27.1342 139.149 26.7226 139.614 26.2811C143.45 22.8531 152.439 14.8097 169.569 18.0921C189.543 21.9121 213.945 35.1871 216.766 76.7484C220.447 130.991 229.034 159.21 242.25 160.61C242.596 160.654 242.913 160.828 243.138 161.098C243.362 161.367 243.476 161.711 243.458 162.062C243.439 162.412 243.29 162.742 243.039 162.987C242.788 163.231 242.454 163.37 242.105 163.377H242.082Z" fill="#34AD62"/>
<path d="M238.358 189.098C232.764 189.101 227.333 187.206 222.945 183.721C208.291 172.451 199.949 144.445 200.64 108.788C201.008 88.9703 191.439 72.4578 172.19 59.687C163.099 53.7459 153.16 49.2317 142.714 46.3C142.538 46.2558 142.372 46.1772 142.225 46.0686C142.079 45.96 141.956 45.8235 141.862 45.667C141.768 45.5104 141.706 45.3368 141.679 45.1562C141.652 44.9755 141.661 44.7913 141.705 44.614C141.749 44.4367 141.827 44.2699 141.935 44.123C142.043 43.9761 142.179 43.852 142.335 43.7579C142.491 43.6638 142.664 43.6014 142.844 43.5743C143.023 43.5472 143.207 43.556 143.383 43.6002C154.112 46.5835 164.317 51.2124 173.64 57.3232C193.502 70.475 203.752 88.287 203.406 108.855C202.759 143.112 210.9 170.962 224.595 181.537C230.796 186.298 237.978 187.541 245.785 185.245C245.962 185.185 246.149 185.163 246.334 185.178C246.52 185.193 246.701 185.245 246.866 185.332C247.031 185.419 247.176 185.539 247.294 185.684C247.412 185.828 247.499 185.996 247.551 186.175C247.603 186.355 247.618 186.544 247.596 186.729C247.574 186.915 247.514 187.094 247.421 187.256C247.328 187.419 247.203 187.56 247.054 187.673C246.905 187.785 246.735 187.866 246.555 187.911C243.892 188.692 241.132 189.092 238.358 189.098Z" fill="#34AD62"/>
<path d="M223.424 136.267C223.077 136.267 222.743 136.135 222.488 135.898C216.655 130.42 212.138 121.547 209.105 109.516C207.71 104.145 206.741 98.6727 206.205 93.1489C204.265 73.6789 197.227 59.0036 185.272 49.5487C166.424 34.7278 141.621 37.9205 141.376 37.9541C141.012 38.0046 140.643 37.9079 140.35 37.6852C140.058 37.4625 139.865 37.1321 139.815 36.7667C139.764 36.4012 139.861 36.0307 140.082 35.7365C140.304 35.4424 140.633 35.2488 140.997 35.1983C142.056 35.0527 167.194 31.7703 186.923 47.3642C199.491 57.3009 206.885 72.6259 208.904 92.9024C208.904 93.2161 211.346 121.626 224.372 133.87C224.573 134.061 224.712 134.308 224.772 134.579C224.831 134.85 224.808 135.133 224.706 135.391C224.604 135.649 224.428 135.87 224.199 136.027C223.971 136.183 223.701 136.267 223.424 136.267Z" fill="#34AD62"/>
<path d="M232.402 188.829C232.181 188.831 231.962 188.777 231.767 188.673C221.796 183.463 215.239 169.92 212.261 148.411C210.932 138.32 210.428 128.136 210.755 117.962C210.773 117.594 210.936 117.248 211.208 117C211.48 116.752 211.838 116.623 212.205 116.641C212.572 116.658 212.917 116.822 213.164 117.095C213.41 117.368 213.539 117.728 213.521 118.097C213.521 118.657 211.057 174.726 233.049 186.219C233.372 186.391 233.615 186.683 233.726 187.033C233.836 187.383 233.806 187.763 233.64 188.09C233.52 188.314 233.341 188.501 233.123 188.631C232.905 188.761 232.656 188.83 232.402 188.829Z" fill="#34AD62"/>
<path d="M100.625 122.197C100.453 122.196 100.282 122.162 100.123 122.096C99.9535 122.029 99.7991 121.93 99.6682 121.803C99.5373 121.676 99.4326 121.525 99.3601 121.357C99.2875 121.189 99.2486 121.009 99.2456 120.827C99.2425 120.644 99.2753 120.462 99.3422 120.293C102.696 110.716 103.925 100.519 102.944 90.4155C99.8998 62.8797 113.194 47.1514 117.331 42.984C118.58 41.7294 122.852 37.6628 125.662 37.9765C125.842 37.9946 126.017 38.0486 126.176 38.1353C126.335 38.2221 126.475 38.3398 126.588 38.4817C126.702 38.6236 126.786 38.7868 126.835 38.9616C126.885 39.1365 126.899 39.3195 126.878 39.5001C126.838 39.8651 126.657 40.1997 126.372 40.4306C126.088 40.6615 125.724 40.77 125.361 40.7323C124.848 40.6539 122.35 41.7406 118.814 45.4262C115.023 49.4031 102.844 64.3584 105.688 90.1018C106.754 100.657 105.467 111.319 101.918 121.312C101.816 121.573 101.637 121.796 101.407 121.954C101.176 122.112 100.904 122.196 100.625 122.197Z" fill="#34AD62"/>
<path d="M211.681 416.072C211.087 416.072 210.498 415.966 209.941 415.759C196.491 410.852 188.116 388.436 190.034 362.468C191.651 340.579 178.614 333.129 176.551 332.759C175.208 332.745 173.926 332.194 172.987 331.23C172.048 330.266 171.528 328.966 171.543 327.617C171.558 326.269 172.106 324.981 173.066 324.038C174.026 323.094 175.319 322.573 176.662 322.587C180.577 322.587 185.863 325.556 190.123 330.16C194.383 334.765 201.465 345.317 200.16 363.219C199.346 374.186 200.595 384.806 203.651 393.13C206.183 399.997 209.83 404.881 213.421 406.192C214.537 406.604 215.473 407.398 216.067 408.433C216.66 409.469 216.872 410.681 216.666 411.858C216.46 413.034 215.849 414.101 214.94 414.871C214.031 415.642 212.881 416.067 211.692 416.072H211.681Z" fill="#4F4F4F"/>
<path d="M215.361 423.925C221.465 423.925 226.413 418.955 226.413 412.824C226.413 406.692 221.465 401.722 215.361 401.722C209.257 401.722 204.309 406.692 204.309 412.824C204.309 418.955 209.257 423.925 215.361 423.925Z" fill="#4F4F4F"/>
<path d="M225.532 436.898C225.303 436.898 225.075 436.852 224.863 436.763L203.673 428.44C203.218 428.26 202.852 427.906 202.657 427.455C202.461 427.005 202.452 426.495 202.631 426.037C202.81 425.58 203.162 425.212 203.611 425.016C204.059 424.819 204.567 424.81 205.023 424.99L226.213 433.313C226.61 433.474 226.939 433.767 227.145 434.144C227.351 434.521 227.42 434.958 227.341 435.381C227.262 435.804 227.04 436.186 226.712 436.462C226.385 436.739 225.972 436.893 225.543 436.898H225.532Z" fill="#4F4F4F"/>
<path d="M204.343 436.898C203.914 436.895 203.499 436.743 203.169 436.468C202.839 436.192 202.615 435.81 202.535 435.387C202.454 434.963 202.523 434.525 202.729 434.147C202.934 433.769 203.264 433.474 203.662 433.313L224.852 424.99C225.077 424.899 225.317 424.854 225.559 424.858C225.801 424.861 226.04 424.913 226.262 425.01C226.484 425.107 226.685 425.247 226.852 425.422C227.02 425.598 227.151 425.805 227.239 426.031C227.414 426.491 227.403 427.001 227.206 427.452C227.01 427.903 226.645 428.258 226.19 428.44L205.001 436.763C204.792 436.849 204.568 436.895 204.343 436.898Z" fill="#4F4F4F"/>
<path d="M216.287 421.158H213.521C211.993 421.158 210.755 422.402 210.755 423.937C210.755 425.471 211.993 426.715 213.521 426.715H216.287C217.814 426.715 219.053 425.471 219.053 423.937C219.053 422.402 217.814 421.158 216.287 421.158Z" fill="#4F4F4F"/>
<path d="M219.053 420.229C220.069 420.229 220.893 419.401 220.893 418.38C220.893 417.359 220.069 416.532 219.053 416.532C218.036 416.532 217.212 417.359 217.212 418.38C217.212 419.401 218.036 420.229 219.053 420.229Z" fill="#333333"/>
<path d="M211.681 420.229C212.697 420.229 213.521 419.401 213.521 418.38C213.521 417.359 212.697 416.532 211.681 416.532C210.665 416.532 209.841 417.359 209.841 418.38C209.841 419.401 210.665 420.229 211.681 420.229Z" fill="#333333"/>
<path d="M216.744 427.634C216.684 427.634 216.624 427.622 216.569 427.599C216.513 427.575 216.463 427.542 216.421 427.499C216.378 427.456 216.344 427.406 216.321 427.35C216.298 427.294 216.287 427.235 216.287 427.174V423.937C216.287 423.815 216.335 423.698 216.421 423.612C216.506 423.526 216.623 423.477 216.744 423.477C216.865 423.477 216.981 423.526 217.067 423.612C217.153 423.698 217.201 423.815 217.201 423.937V427.174C217.201 427.235 217.189 427.294 217.166 427.35C217.143 427.406 217.11 427.456 217.067 427.499C217.025 427.542 216.974 427.575 216.919 427.599C216.863 427.622 216.804 427.634 216.744 427.634Z" fill="#333333"/>
<path d="M214.904 427.633C214.843 427.635 214.782 427.624 214.726 427.602C214.669 427.579 214.617 427.546 214.573 427.503C214.53 427.46 214.495 427.409 214.471 427.353C214.448 427.296 214.436 427.235 214.436 427.174V423.937C214.436 423.812 214.485 423.692 214.573 423.604C214.661 423.516 214.78 423.466 214.904 423.466C214.965 423.466 215.025 423.478 215.082 423.502C215.138 423.526 215.189 423.561 215.231 423.605C215.274 423.648 215.307 423.7 215.33 423.757C215.352 423.814 215.363 423.875 215.361 423.937V427.174C215.361 427.234 215.349 427.294 215.326 427.35C215.303 427.406 215.27 427.456 215.227 427.499C215.185 427.542 215.134 427.575 215.079 427.598C215.023 427.622 214.964 427.633 214.904 427.633Z" fill="#333333"/>
<path d="M213.053 427.633C212.993 427.633 212.933 427.622 212.878 427.598C212.822 427.575 212.772 427.542 212.729 427.499C212.687 427.456 212.653 427.406 212.63 427.35C212.607 427.294 212.595 427.234 212.595 427.174V423.937C212.585 423.869 212.589 423.801 212.608 423.736C212.626 423.67 212.659 423.61 212.702 423.558C212.746 423.507 212.801 423.465 212.862 423.437C212.924 423.408 212.991 423.394 213.058 423.394C213.126 423.394 213.193 423.408 213.254 423.437C213.316 423.465 213.37 423.507 213.414 423.558C213.458 423.61 213.49 423.67 213.509 423.736C213.527 423.801 213.531 423.869 213.521 423.937V427.174C213.521 427.235 213.509 427.296 213.485 427.353C213.462 427.409 213.427 427.46 213.383 427.503C213.34 427.546 213.288 427.579 213.231 427.602C213.174 427.624 213.114 427.635 213.053 427.633Z" fill="#333333"/>
<path d="M90.9666 416.072C89.7772 416.067 88.6276 415.642 87.7184 414.871C86.8093 414.101 86.1985 413.034 85.9926 411.858C85.7867 410.681 85.9989 409.469 86.5921 408.433C87.1853 407.398 88.1217 406.604 89.2379 406.192C95.9294 403.738 104.283 387.45 102.498 363.219C101.182 345.295 108.208 334.821 112.535 330.16C116.863 325.5 122.082 322.587 126.008 322.587C126.672 322.581 127.332 322.706 127.949 322.955C128.566 323.205 129.128 323.574 129.603 324.041C130.077 324.509 130.456 325.066 130.716 325.681C130.977 326.295 131.114 326.955 131.121 327.623C131.128 328.291 131.003 328.954 130.755 329.573C130.506 330.193 130.139 330.757 129.673 331.234C129.208 331.711 128.653 332.091 128.042 332.353C127.43 332.615 126.773 332.753 126.108 332.759C124.045 333.129 111.019 340.601 112.625 362.468C114.543 388.436 106.167 410.852 92.7175 415.759C92.1574 415.968 91.5642 416.074 90.9666 416.072Z" fill="#4F4F4F"/>
<path d="M87.2752 423.925C93.3791 423.925 98.3273 418.955 98.3273 412.824C98.3273 406.692 93.3791 401.722 87.2752 401.722C81.1713 401.722 76.2231 406.692 76.2231 412.824C76.2231 418.955 81.1713 423.925 87.2752 423.925Z" fill="#4F4F4F"/>
<path d="M77.2046 436.898C76.7756 436.895 76.3608 436.743 76.031 436.468C75.7013 436.192 75.4771 435.81 75.3968 435.387C75.3164 434.963 75.385 434.525 75.5906 434.147C75.7963 433.769 76.1263 433.474 76.5243 433.313L97.714 424.99C97.9386 424.899 98.1789 424.854 98.4209 424.858C98.663 424.861 98.9019 424.913 99.1239 425.01C99.3459 425.107 99.5466 425.247 99.7142 425.422C99.8819 425.598 100.013 425.805 100.101 426.031C100.276 426.491 100.265 427.001 100.069 427.452C99.8723 427.903 99.5072 428.258 99.0523 428.44L77.8626 436.763C77.6536 436.849 77.4304 436.895 77.2046 436.898Z" fill="#4F4F4F"/>
<path d="M98.3943 436.898C98.1647 436.898 97.9373 436.852 97.7252 436.763L76.5355 428.44C76.08 428.26 75.7143 427.906 75.5187 427.455C75.3232 427.005 75.3138 426.495 75.4928 426.037C75.6717 425.58 76.0243 425.212 76.4729 425.016C76.9215 424.819 77.4295 424.81 77.885 424.99L99.0746 433.313C99.4718 433.474 99.8014 433.767 100.007 434.144C100.213 434.521 100.282 434.958 100.203 435.381C100.125 435.804 99.9023 436.186 99.5745 436.462C99.2467 436.739 98.8336 436.893 98.4055 436.898H98.3943Z" fill="#4F4F4F"/>
<path d="M86.3497 426.715H89.1156C90.6431 426.715 91.8813 425.471 91.8813 423.937C91.8813 422.402 90.6431 421.158 89.1156 421.158H86.3497C84.8222 421.158 83.5839 422.402 83.5839 423.937C83.5839 425.471 84.8222 426.715 86.3497 426.715Z" fill="#4F4F4F"/>
<path d="M83.595 420.229C84.6113 420.229 85.4352 419.401 85.4352 418.38C85.4352 417.359 84.6113 416.532 83.595 416.532C82.5787 416.532 81.7549 417.359 81.7549 418.38C81.7549 419.401 82.5787 420.229 83.595 420.229Z" fill="#333333"/>
<path d="M90.9666 420.229C91.9829 420.229 92.8068 419.401 92.8068 418.38C92.8068 417.359 91.9829 416.532 90.9666 416.532C89.9503 416.532 89.1265 417.359 89.1265 418.38C89.1265 419.401 89.9503 420.229 90.9666 420.229Z" fill="#333333"/>
<path d="M85.8925 427.633C85.8325 427.633 85.773 427.622 85.7175 427.598C85.662 427.575 85.6117 427.542 85.5692 427.499C85.5267 427.456 85.4931 427.406 85.4701 427.35C85.4471 427.294 85.4353 427.234 85.4353 427.174V423.937C85.4249 423.869 85.429 423.801 85.4475 423.736C85.466 423.67 85.4983 423.61 85.5423 423.558C85.5863 423.507 85.6409 423.465 85.7023 423.437C85.7637 423.408 85.8305 423.394 85.8981 423.394C85.9657 423.394 86.0325 423.408 86.0939 423.437C86.1553 423.465 86.2099 423.507 86.2539 423.558C86.2978 423.61 86.3302 423.67 86.3487 423.736C86.3671 423.801 86.3713 423.869 86.3609 423.937V427.174C86.3609 427.235 86.3487 427.296 86.3251 427.353C86.3014 427.409 86.2667 427.46 86.2231 427.503C86.1794 427.546 86.1277 427.579 86.0709 427.602C86.0142 427.624 85.9535 427.635 85.8925 427.633Z" fill="#333333"/>
<path d="M87.7438 427.633C87.6828 427.635 87.6222 427.624 87.5654 427.602C87.5086 427.579 87.4569 427.546 87.4132 427.503C87.3696 427.46 87.3349 427.409 87.3112 427.353C87.2876 427.296 87.2754 427.235 87.2754 427.174V423.937C87.2754 423.812 87.3247 423.692 87.4126 423.604C87.5004 423.516 87.6196 423.466 87.7438 423.466C87.8048 423.466 87.8652 423.478 87.9214 423.502C87.9776 423.526 88.0285 423.561 88.0711 423.605C88.1137 423.648 88.1472 423.7 88.1695 423.757C88.1918 423.814 88.2025 423.875 88.201 423.937V427.174C88.201 427.234 88.1892 427.294 88.1662 427.35C88.1433 427.406 88.1096 427.456 88.0671 427.499C88.0246 427.542 87.9743 427.575 87.9188 427.598C87.8633 427.622 87.8039 427.633 87.7438 427.633Z" fill="#333333"/>
<path d="M89.5837 427.634C89.5237 427.634 89.4642 427.622 89.4087 427.599C89.3532 427.575 89.3029 427.542 89.2604 427.499C89.2179 427.456 89.1843 427.406 89.1613 427.35C89.1383 427.294 89.1265 427.235 89.1265 427.174V423.937C89.1265 423.815 89.1746 423.698 89.2604 423.612C89.3461 423.526 89.4624 423.477 89.5837 423.477C89.705 423.477 89.8213 423.526 89.907 423.612C89.9928 423.698 90.041 423.815 90.041 423.937V427.174C90.041 427.235 90.0291 427.294 90.0062 427.35C89.9832 427.406 89.9495 427.456 89.907 427.499C89.8646 427.542 89.8142 427.575 89.7587 427.599C89.7032 427.622 89.6438 427.634 89.5837 427.634Z" fill="#333333"/>
<path d="M68.8544 424.007H68.8547C70.4828 424.002 72.0957 423.693 73.6116 423.097L73.6176 423.095C75.2056 422.459 76.6528 421.514 77.8764 420.316C79.1001 419.117 80.0762 417.689 80.7492 416.111C81.4221 414.534 81.7788 412.839 81.7988 411.123C81.8188 409.408 81.5018 407.705 80.8658 406.112C73.4911 387.606 69.656 367.868 69.5616 347.934L69.5616 347.93C69.5329 344.495 68.1541 341.208 65.7239 338.788C63.2935 336.367 60.0085 335.008 56.5839 335.008C56.5839 335.008 56.5839 335.008 56.5839 335.008H56.4835V335.008L56.4751 335.008C54.7702 335.022 53.0849 335.374 51.5155 336.042C49.9461 336.711 48.5235 337.683 47.3287 338.904C46.1339 340.124 45.1903 341.569 44.5517 343.155C43.9133 344.741 43.592 346.437 43.6062 348.147C43.734 371.34 48.1995 394.301 56.77 415.837L56.7711 415.84C57.7413 418.257 59.4106 420.327 61.5644 421.783C63.7182 423.239 66.2574 424.014 68.8544 424.007Z" fill="#9A56DE" stroke="black"/>
<path d="M65.4865 331.859L43.3573 334.847C38.8359 335.458 35.6845 339.623 36.3132 344.147C36.9418 348.671 41.1136 351.847 45.635 351.237L67.7642 348.249C72.2856 347.638 75.437 343.473 74.8083 338.949C74.1796 334.426 70.0079 331.249 65.4865 331.859Z" fill="#333333" stroke="black"/>
<path d="M104.372 12.4012L112.547 38.0885" stroke="#333333" stroke-width="2" stroke-miterlimit="10" stroke-linecap="round"/>
<path d="M102.889 13.0397C106.473 13.0397 109.379 10.1207 109.379 6.51986C109.379 2.91904 106.473 0 102.889 0C99.3039 0 96.3979 2.91904 96.3979 6.51986C96.3979 10.1207 99.3039 13.0397 102.889 13.0397Z" fill="#4F4F4F"/>
<path d="M105.012 10.9546L103.488 11.496C102.64 11.7971 102.195 12.7292 102.493 13.5779C102.792 14.4266 103.721 14.8706 104.569 14.5695L106.094 14.0281C106.942 13.727 107.387 12.7949 107.088 11.9462C106.79 11.0974 105.86 10.6535 105.012 10.9546Z" fill="#4F4F4F"/>
<path d="M88.2456 19.1451L109.034 39.8585" stroke="#333333" stroke-width="2" stroke-miterlimit="10" stroke-linecap="round"/>
<path d="M83.8738 21.3296C87.785 21.3296 90.9556 18.1447 90.9556 14.216C90.9556 10.2873 87.785 7.10242 83.8738 7.10242C79.9626 7.10242 76.792 10.2873 76.792 14.216C76.792 18.1447 79.9626 21.3296 83.8738 21.3296Z" fill="#4F4F4F"/>
<path d="M88.176 17.4463L86.9729 18.7395C86.3043 19.4583 86.3404 20.5837 87.0537 21.2533C87.767 21.9228 88.8873 21.8829 89.556 21.1642L90.7591 19.8709C91.4277 19.1522 91.3915 18.0267 90.6782 17.3572C89.9649 16.6877 88.8447 16.7276 88.176 17.4463Z" fill="#4F4F4F"/>
<path d="M88.0672 16.098C88.7201 16.098 89.2493 15.5664 89.2493 14.9106C89.2493 14.2547 88.7201 13.7231 88.0672 13.7231C87.4143 13.7231 86.885 14.2547 86.885 14.9106C86.885 15.5664 87.4143 16.098 88.0672 16.098Z" fill="#333333"/>
<path d="M84.8553 19.5596C85.5081 19.5596 86.0374 19.0279 86.0374 18.3721C86.0374 17.7163 85.5081 17.1847 84.8553 17.1847C84.2024 17.1847 83.6731 17.7163 83.6731 18.3721C83.6731 19.0279 84.2024 19.5596 84.8553 19.5596Z" fill="#333333"/>
<path d="M85.491 36.8787L107.472 45.5606" stroke="#333333" stroke-width="2" stroke-miterlimit="10" stroke-linecap="round"/>
<path d="M80.6842 40.3627C83.8378 40.3627 86.3942 37.7947 86.3942 34.627C86.3942 31.4592 83.8378 28.8913 80.6842 28.8913C77.5306 28.8913 74.9741 31.4592 74.9741 34.627C74.9741 37.7947 77.5306 40.3627 80.6842 40.3627Z" fill="#4F4F4F"/>
<path d="M84.8774 35.635L84.3955 36.9847C84.1293 37.7301 84.5152 38.5512 85.2573 38.8185C85.9994 39.0859 86.8168 38.6983 87.0829 37.9529L87.5648 36.6031C87.831 35.8577 87.4451 35.0366 86.703 34.7693C85.9609 34.5019 85.1435 34.8895 84.8774 35.635Z" fill="#4F4F4F"/>
<path d="M84.0188 34.7502C84.5423 34.7502 84.9667 34.3239 84.9667 33.798C84.9667 33.2721 84.5423 32.8458 84.0188 32.8458C83.4952 32.8458 83.0708 33.2721 83.0708 33.798C83.0708 34.3239 83.4952 34.7502 84.0188 34.7502Z" fill="#333333"/>
<path d="M82.7251 38.3462C83.2486 38.3462 83.673 37.9199 83.673 37.394C83.673 36.8681 83.2486 36.4418 82.7251 36.4418C82.2015 36.4418 81.7771 36.8681 81.7771 37.394C81.7771 37.9199 82.2015 38.3462 82.7251 38.3462Z" fill="#333333"/>
<path d="M103.346 51.9012C103.97 49.291 106.201 47.0505 107.316 45.9303C108.431 44.81 107.316 42.5695 107.316 42.5695" stroke="#34AD62" stroke-width="2" stroke-miterlimit="10" stroke-linecap="round"/>
<path d="M269.982 355.231L250.666 344.028C246.719 341.739 241.676 343.099 239.4 347.059C237.124 351.019 238.473 356.086 242.42 358.375L261.737 369.577C265.683 371.866 270.726 370.506 273.002 366.546C275.278 362.587 273.929 357.52 269.982 355.231Z" fill="#333333" stroke="black"/>
<circle cx="135" cy="99" r="8" fill="white" stroke="black" stroke-width="2"/>
<circle cx="135" cy="101" r="5" fill="#070C2A"/>
<circle cx="165" cy="99" r="8" fill="white" stroke="black" stroke-width="2"/>
<path d="M157.789 138.93C156.41 139.75 154.747 139.88 153.239 139.332C147.171 137.125 131.109 130.619 125.478 121.771C120.011 113.18 150.808 112.935 164.562 113.239C168.019 113.316 170.659 116.367 170.111 119.782C168.737 128.343 166.278 133.887 157.789 138.93Z" fill="white" stroke="black" stroke-width="2"/>
<circle cx="165" cy="101" r="5" fill="#070C2A"/>
<path d="M107 125C122.463 100.218 143.725 47.24 139.163 46.009M139 46.009C139.061 45.9969 139.115 45.997 139.163 46.009M189 113C187 102 170.562 89.4079 168.345 86.009C166.127 82.6101 143.943 52.5934 139.163 46.009" stroke="black"/>
<path d="M189 91C189 96.5982 187.268 101.601 184.123 105.19C180.991 108.764 176.404 111 170.537 111C164.675 111 160.333 108.77 157.436 105.217C154.519 101.639 153 96.6312 153 91C153 85.3688 154.519 80.3614 157.436 76.7827C160.333 73.2298 164.675 71 170.537 71C176.404 71 180.991 73.2359 184.123 76.8098C187.268 80.3986 189 85.4018 189 91Z" fill="white"/>
<path d="M189 91C189 96.5982 187.268 101.601 184.123 105.19C180.991 108.764 176.404 111 170.537 111C164.675 111 160.333 108.77 157.436 105.217C154.519 101.639 153 96.6312 153 91C153 85.3688 154.519 80.3614 157.436 76.7827C160.333 73.2298 164.675 71 170.537 71C176.404 71 180.991 73.2359 184.123 76.8098C187.268 80.3986 189 85.4018 189 91Z" fill="white"/>
<path d="M189 91C189 96.5982 187.268 101.601 184.123 105.19C180.991 108.764 176.404 111 170.537 111C164.675 111 160.333 108.77 157.436 105.217C154.519 101.639 153 96.6312 153 91C153 85.3688 154.519 80.3614 157.436 76.7827C160.333 73.2298 164.675 71 170.537 71C176.404 71 180.991 73.2359 184.123 76.8098C187.268 80.3986 189 85.4018 189 91Z" fill="white"/>
<path d="M189 91C189 96.5982 187.268 101.601 184.123 105.19C180.991 108.764 176.404 111 170.537 111C164.675 111 160.333 108.77 157.436 105.217C154.519 101.639 153 96.6312 153 91C153 85.3688 154.519 80.3614 157.436 76.7827C160.333 73.2298 164.675 71 170.537 71C176.404 71 180.991 73.2359 184.123 76.8098C187.268 80.3986 189 85.4018 189 91Z" stroke="black"/>
<ellipse cx="165.902" cy="89.1739" rx="13.9024" ry="13.6957" fill="#070C2A"/>
<path d="M169.799 86.6439L171.209 78.9449C174.127 79.6771 175.368 80.6442 176.83 83.4263L169.799 86.6439Z" fill="white"/>
<path d="M145 93C145 98.5982 143.268 103.601 140.123 107.19C136.991 110.764 132.404 113 126.537 113C120.675 113 116.333 110.77 113.436 107.217C110.519 103.639 109 98.6312 109 93C109 87.3688 110.519 82.3614 113.436 78.7827C116.333 75.2298 120.675 73 126.537 73C132.404 73 136.991 75.2359 140.123 78.8098C143.268 82.3986 145 87.4018 145 93Z" fill="white"/>
<path d="M145 93C145 98.5982 143.268 103.601 140.123 107.19C136.991 110.764 132.404 113 126.537 113C120.675 113 116.333 110.77 113.436 107.217C110.519 103.639 109 98.6312 109 93C109 87.3688 110.519 82.3614 113.436 78.7827C116.333 75.2298 120.675 73 126.537 73C132.404 73 136.991 75.2359 140.123 78.8098C143.268 82.3986 145 87.4018 145 93Z" fill="white"/>
<path d="M145 93C145 98.5982 143.268 103.601 140.123 107.19C136.991 110.764 132.404 113 126.537 113C120.675 113 116.333 110.77 113.436 107.217C110.519 103.639 109 98.6312 109 93C109 87.3688 110.519 82.3614 113.436 78.7827C116.333 75.2298 120.675 73 126.537 73C132.404 73 136.991 75.2359 140.123 78.8098C143.268 82.3986 145 87.4018 145 93Z" fill="white"/>
<path d="M145 93C145 98.5982 143.268 103.601 140.123 107.19C136.991 110.764 132.404 113 126.537 113C120.675 113 116.333 110.77 113.436 107.217C110.519 103.639 109 98.6312 109 93C109 87.3688 110.519 82.3614 113.436 78.7827C116.333 75.2298 120.675 73 126.537 73C132.404 73 136.991 75.2359 140.123 78.8098C143.268 82.3986 145 87.4018 145 93Z" stroke="black"/>
<ellipse cx="121.902" cy="91.1739" rx="13.9024" ry="13.6957" fill="#070C2A"/>
<path d="M125.799 88.6439L127.209 80.9449C130.127 81.6771 131.368 82.6442 132.83 85.4263L125.799 88.6439Z" fill="white"/>
<path d="M4.63849 763.688C-0.84041 721.119 30.2067 723.957 49.3828 718.281C51.8036 675.647 110 688.009 105.998 716.389C100.913 752.446 95.9534 765.58 94.1271 766.526C92.3008 767.472 10.1174 806.257 4.63849 763.688Z" fill="#333333"/>
<path d="M263.973 769.364C253.015 816.663 180.876 770.31 173.571 752.336C170.195 744.029 172.68 724.903 175.865 710.713C179.05 696.523 192.169 687.67 198.226 688.009C216.489 689.901 227.447 688.009 227.447 723.011C238.405 729.633 274.931 722.065 263.973 769.364Z" fill="#333333"/>
<path d="M4.63849 763.688C-0.84041 721.119 30.2067 723.957 49.3828 718.281C51.8036 675.647 110 688.009 105.998 716.389C100.913 752.446 95.9534 765.58 94.1271 766.526C92.3008 767.472 10.1174 806.257 4.63849 763.688Z" stroke="black"/>
<path d="M263.973 769.364C253.015 816.663 180.876 770.31 173.571 752.336C170.195 744.029 172.68 724.903 175.865 710.713C179.05 696.523 192.169 687.67 198.226 688.009C216.489 689.901 227.447 688.009 227.447 723.011C238.405 729.633 274.931 722.065 263.973 769.364Z" stroke="black"/>
<path d="M188.364 738.684C193.474 738.684 197.729 734.785 197.729 729.842C197.729 724.899 193.474 721 188.364 721C183.254 721 179 724.899 179 729.842C179 734.785 183.254 738.684 188.364 738.684Z" fill="#BDBDBD" stroke="black"/>
<path d="M132 116L137.312 129L142.625 116L147.938 134L153.25 116L161.75 134L166 114" stroke="black"/>
<path d="M90.3643 732.684C95.4744 732.684 99.7287 728.785 99.7287 723.842C99.7287 718.899 95.4744 715 90.3643 715C85.2543 715 81 718.899 81 723.842C81 728.785 85.2543 732.684 90.3643 732.684Z" fill="#BDBDBD" stroke="black"/>
<path d="M3.5662 778.301C2.49227 773.995 6.10121 769.914 10.5739 770.351C27.9878 772.055 42.2065 771.832 55.72 768.645C69.2397 765.456 81.9879 759.317 96.4878 749.278C100.209 746.702 105.396 748.56 106.472 752.875C107.104 755.409 106.086 758.066 103.916 759.487C84.646 772.102 69.6376 778.61 55.1519 781.664C40.6554 784.721 26.6131 784.336 9.21276 783.062C6.50459 782.864 4.22411 780.939 3.5662 778.301Z" fill="#C4C4C4" stroke="black"/>
<path d="M165.075 750.351C166.697 746.22 172.004 744.988 175.394 747.938C188.594 759.423 200.308 767.485 213.166 772.724C226.03 777.965 239.976 780.355 257.611 780.583C262.136 780.642 265.285 785.163 263.659 789.303C262.705 791.734 260.335 793.309 257.744 793.208C234.728 792.313 218.727 788.913 205.154 783.002C191.571 777.087 180.353 768.632 166.915 757.505C164.823 755.773 164.082 752.882 165.075 750.351Z" fill="#C4C4C4" stroke="black"/>
</svg>
