<svg width="1216" height="1112" viewBox="0 0 1216 1112" fill="none" xmlns="http://www.w3.org/2000/svg">
<path d="M110.764 980.124C104.548 979.217 98.8269 976.188 94.5184 971.525C90.2099 966.861 87.5642 960.834 87.0061 954.41C86.448 947.985 88.01 941.538 91.4412 936.102C94.8724 930.665 99.9737 926.557 105.926 924.435C167.071 902.649 254.562 798.407 280.788 763.091C280.936 762.856 281.128 762.628 281.301 762.374C284.905 757.616 289.86 754.123 295.47 752.383C301.08 750.644 307.066 750.745 312.588 752.674C318.11 754.602 322.893 758.26 326.267 763.137C329.641 768.013 331.437 773.864 331.404 779.869C331.354 786.406 330.401 790.295 325.322 797.611L325.156 797.819C321.487 803.082 315.774 810.096 306.836 821.04C296.243 834.001 279.504 853.842 259.849 874.725C207.76 930.157 162 965.228 123.903 978.713C119.69 980.265 115.181 980.749 110.764 980.124Z" fill="#F1AFB1" stroke="black" stroke-miterlimit="10"/>
<path d="M180.405 947.167C177.711 953.583 173.196 959.028 167.454 962.787C154.413 971.561 140.439 978.765 125.811 984.254C121.601 985.864 117.126 986.596 112.65 986.407C108.175 986.218 103.788 985.112 99.7479 983.155C95.7079 981.197 92.096 978.427 89.1243 975.008C86.1525 971.588 83.881 967.587 82.4429 963.241C81.0048 958.894 80.4293 954.289 80.75 949.697C81.0708 945.104 82.2813 940.616 84.3107 936.496C86.34 932.377 89.1472 928.708 92.5674 925.706C95.9876 922.705 99.9518 920.43 104.227 919.017C113.895 915.303 123.128 910.471 131.745 904.615C137.202 901.019 143.547 899.122 150.006 899.155" fill="#B90164"/>
<path d="M180.405 947.167C177.711 953.583 173.196 959.028 167.454 962.787C154.413 971.561 140.439 978.765 125.811 984.254C121.601 985.864 117.126 986.596 112.65 986.407C108.175 986.218 103.788 985.112 99.7479 983.155C95.7079 981.197 92.096 978.427 89.1243 975.008C86.1525 971.588 83.881 967.587 82.4429 963.241C81.0048 958.894 80.4293 954.289 80.75 949.697C81.0708 945.104 82.2813 940.616 84.3107 936.496C86.34 932.377 89.1472 928.708 92.5674 925.706C95.9876 922.705 99.9518 920.43 104.227 919.017C113.895 915.303 123.128 910.471 131.745 904.615C137.202 901.019 143.547 899.122 150.006 899.155" stroke="black" stroke-linecap="round" stroke-linejoin="round"/>
<path d="M1037.73 707.516C1075.73 651.994 1099.34 587.521 1106.31 520.237C1113.27 452.953 1103.37 385.096 1077.53 323.126C1051.7 261.156 1010.8 207.136 958.722 166.208C906.645 125.281 845.126 98.8083 780.022 89.3106C770.176 87.8725 760.355 86.8262 750.56 86.1719L565.855 59.1937L556.152 125.567C478.992 164.195 416.305 227.947 377.937 306.809C339.569 385.672 327.693 475.178 344.174 561.269L840.921 633.824L1037.73 707.516Z" fill="#F7898C" stroke="black" stroke-linecap="round" stroke-linejoin="round"/>
<path d="M461.234 774.892L451.531 841.266L636.237 868.244C645.795 870.416 655.504 872.223 665.365 873.663C736.05 884 808.301 873.937 874.053 844.599C939.806 815.261 996.474 767.801 1037.73 707.516L840.854 633.814L344.107 561.259C360.037 643.593 401.049 718.397 461.234 774.892Z" fill="#B90164" stroke="black" stroke-linecap="round" stroke-linejoin="round"/>
<path d="M299.913 338.949C293.565 336.394 286.467 336.539 280.182 339.355C273.896 342.171 268.937 347.426 266.393 353.965C246.836 402.294 224.44 449.379 199.329 494.957C160.351 565.439 121.394 618.271 84.8526 650.706C74.903 645.656 63.6262 643.985 52.6397 645.933C41.6533 647.881 31.5218 653.347 23.6987 661.548C15.8755 669.749 10.7627 680.263 9.09378 691.582C7.42483 702.901 9.28544 714.443 14.4087 724.552C19.532 734.661 27.6547 742.818 37.6115 747.853C47.5683 752.888 58.8477 754.542 69.8315 752.578C80.8153 750.614 90.9392 745.132 98.7508 736.92C106.562 728.707 111.66 718.186 113.313 706.865C113.9 702.796 114.039 698.676 113.727 694.583C225.723 598.717 310.303 383.456 314.264 373.253C316.804 366.712 316.719 359.425 314.028 352.992C311.337 346.56 306.26 341.509 299.913 338.949Z" fill="#F1AFB1" stroke="black" stroke-miterlimit="10"/>
<path d="M1115.73 845.128C1110.23 844.32 1104.62 844.421 1099.13 845.428C1073.49 803.911 1051.2 742.132 1034.03 663.45C1023.01 612.594 1015.03 561.072 1010.12 509.17C1009.92 505.651 1009.03 502.216 1007.51 499.066C1005.99 495.916 1003.87 493.115 1001.27 490.827C998.674 488.539 995.655 486.811 992.39 485.743C989.125 484.675 985.681 484.289 982.258 484.608C978.835 484.927 975.503 485.944 972.458 487.6C969.412 489.257 966.715 491.518 964.524 494.252C962.333 496.986 960.692 500.138 959.698 503.522C958.704 506.907 958.376 510.455 958.735 513.96C959.609 524.87 979.035 755.322 1058.91 879.212C1054.89 889.687 1054.13 901.161 1056.73 912.044C1059.34 922.927 1065.19 932.681 1073.46 939.952C1081.74 947.224 1092.03 951.654 1102.92 952.628C1113.8 953.602 1124.74 951.073 1134.21 945.39C1143.69 939.707 1151.23 931.152 1155.8 920.911C1160.36 910.67 1161.73 899.25 1159.69 888.233C1157.66 877.216 1152.34 867.149 1144.47 859.425C1136.59 851.702 1126.55 846.706 1115.73 845.128Z" fill="#F1AFB1" stroke="black" stroke-miterlimit="10"/>
<path d="M884.314 504.609C892.6 447.458 888.638 389.238 872.708 334.025C856.777 278.811 829.261 227.936 792.086 184.962C754.911 141.987 708.975 107.95 657.492 85.2326C606.009 62.5153 550.223 51.6664 494.037 53.4451C437.852 55.2239 382.625 69.5872 332.221 95.5301C281.816 121.473 237.452 158.369 202.234 203.635C167.015 248.902 141.792 301.446 128.329 357.59C114.867 413.735 113.491 472.123 124.297 528.67L842.717 633.602C863.691 593.324 877.763 549.685 884.314 504.609Z" fill="#F1AFB1" stroke="black" stroke-linecap="round" stroke-linejoin="round"/>
<path d="M443.604 841.272C522.235 852.772 602.602 839.014 673.71 801.878C744.819 764.743 803.196 706.045 840.855 633.814L122.435 528.881C137.841 608.848 176.963 681.776 234.451 737.693C291.939 793.61 364.986 829.785 443.604 841.272Z" fill="#F00182" stroke="black" stroke-linecap="round" stroke-linejoin="round"/>
<path d="M933.234 1099.16C939.365 1100.57 945.796 1099.82 951.492 1097.02C957.188 1094.22 961.817 1089.55 964.635 1083.75C967.452 1077.94 968.294 1071.35 967.024 1065.03C965.755 1058.71 962.448 1053.03 957.636 1048.91C908.343 1006.5 857.524 844.069 845.654 801.629C845.579 801.362 845.509 801.072 845.412 800.802C843.746 795.065 840.372 790.021 835.761 786.375C831.151 782.729 825.535 780.662 819.698 780.463C813.861 780.265 808.095 781.945 803.205 785.269C798.316 788.592 794.547 793.393 792.426 799.001C790.128 805.116 789.614 809.093 791.76 817.813L791.834 818.08C793.369 824.313 796.232 832.928 800.653 846.382C805.893 862.284 820.865 920.385 831.741 947.008C860.565 1017.56 890.75 1066.73 921.473 1093.16C924.865 1096.09 928.897 1098.15 933.234 1099.16Z" fill="#F1AFB1" stroke="black" stroke-miterlimit="10"/>
<path d="M880.009 1043.23C880.225 1050.19 882.498 1056.91 886.526 1062.48C895.59 1075.4 906.089 1087.19 917.812 1097.61C924.623 1103.47 933.445 1106.29 942.336 1105.46C951.227 1104.62 959.46 1100.2 965.223 1093.15C970.986 1086.11 973.807 1077.03 973.066 1067.91C972.325 1058.78 968.082 1050.36 961.271 1044.5C953.573 1037.54 946.68 1029.7 940.725 1021.12C936.909 1015.8 931.664 1011.74 925.627 1009.44" fill="#B90164"/>
<path d="M880.009 1043.23C880.225 1050.19 882.498 1056.91 886.526 1062.48C895.59 1075.4 906.089 1087.19 917.812 1097.61C924.623 1103.47 933.445 1106.29 942.336 1105.46C951.227 1104.62 959.46 1100.2 965.223 1093.15C970.986 1086.11 973.807 1077.03 973.066 1067.91C972.325 1058.78 968.082 1050.36 961.271 1044.5C953.573 1037.54 946.68 1029.7 940.725 1021.12C936.909 1015.8 931.664 1011.74 925.627 1009.44" stroke="black" stroke-linecap="round" stroke-linejoin="round"/>
<path d="M585.902 218.575C575.148 292.138 520.018 344.544 463.165 336.241C406.313 327.937 368.489 261.954 379.242 188.391C389.996 114.828 445.126 62.4215 501.978 70.7254C558.831 79.0294 596.655 145.012 585.902 218.575Z" fill="#F2F2F2" stroke="black"/>
<path d="M523.604 280.307C518.455 315.531 491.241 340.341 463.165 336.24C435.089 332.14 416.114 300.583 421.263 265.359C426.413 230.135 453.627 205.325 481.702 209.426C509.778 213.527 528.753 245.083 523.604 280.307Z" fill="#333333" stroke="black"/>
<path d="M478.796 263.858L491.251 223.878C504.082 229.728 509.03 235.701 513.582 251.47L478.796 263.858Z" fill="white"/>
<path d="M575.438 525.279C571.765 550.406 552.874 571.012 525.039 583.944C497.213 596.871 460.565 602.061 421.701 596.384C382.837 590.708 349.206 575.253 326.244 554.908C303.275 534.556 291.072 509.408 294.745 484.281C298.418 459.153 317.309 438.547 345.144 425.615C372.97 412.688 409.618 407.499 448.482 413.175C487.346 418.852 520.977 434.306 543.939 454.651C566.908 475.004 579.111 500.151 575.438 525.279Z" fill="#34AD62" stroke="black"/>
<path d="M326.273 543.826C336.701 472.494 366.467 472.638 393.507 483.593L392.764 497.495C373.274 494.648 356.246 503.37 349.829 547.266C343.412 591.163 413.623 581.102 420.353 582.085C427.083 583.068 496.72 605.148 504.626 569.876C512.531 534.603 491.954 515.485 472.265 509.107L481 496.372C504.055 503.242 538.208 504.728 528.182 573.316C518.155 641.905 431.307 601.198 417.345 602.662C403.383 604.125 315.846 615.157 326.273 543.826Z" fill="#F2F2F2" stroke="black"/>
<path d="M527.373 383.845C525.98 393.371 517.54 401.174 504.539 405.937C491.58 410.684 474.331 412.303 455.878 409.607C437.424 406.912 421.359 400.428 410.301 392.172C399.207 383.89 393.354 374 394.746 364.474C396.139 354.947 404.578 347.145 417.579 342.382C430.538 337.635 447.788 336.016 466.241 338.711C484.694 341.407 500.76 347.891 511.818 356.147C522.912 364.429 528.765 374.319 527.373 383.845Z" fill="#F7898C" stroke="black"/>
<ellipse rx="7.8481" ry="11.0474" transform="matrix(1.979 0.289054 -0.289285 1.97897 436.727 370.605)" fill="#333333"/>
<ellipse rx="7.8481" ry="11.0474" transform="matrix(1.979 0.289054 -0.289285 1.97897 485.39 377.713)" fill="#333333"/>
<path d="M487.942 512.499C486.484 522.478 479.011 530.741 467.853 535.966C456.704 541.186 441.986 543.305 426.355 541.022C410.723 538.739 397.228 532.499 388.039 524.308C378.843 516.111 374.048 506.055 375.507 496.077C376.965 486.099 384.438 477.835 395.596 472.611C406.746 467.39 421.463 465.271 437.094 467.554C452.726 469.837 466.221 476.078 475.41 484.269C484.606 492.466 489.401 502.521 487.942 512.499Z" fill="#23693E" stroke="black"/>
<path d="M409.253 399.393C414.289 364.945 428.189 364.945 440.792 370.169L440.412 376.88C431.317 375.551 423.345 379.8 420.246 400.999C417.147 422.198 448.992 423.796 452.132 424.255C455.273 424.714 488.71 428.59 492.484 411.55C496.258 394.509 486.693 385.331 477.513 382.299L481.622 376.133C492.373 379.395 508.319 380.032 503.477 413.155C499.55 440.02 460.374 435.189 451.407 433.236C445.168 433.353 405.004 428.459 409.253 399.393Z" fill="#FAC014" stroke="black"/>
<ellipse cx="403.771" cy="711.389" rx="33.615" ry="97.5789" transform="rotate(11.973 403.771 711.389)" fill="#F4F6FC"/>
<ellipse cx="403.968" cy="710.462" rx="22.2522" ry="76.7368" transform="rotate(11.973 403.968 710.462)" fill="#F00182"/>
<ellipse cx="490.115" cy="728.73" rx="33.615" ry="97.5789" transform="rotate(11.973 490.115 728.73)" fill="#F4F6FC"/>
<path d="M328.491 621.339L324.855 638.484L346.953 625.254L312.462 787.901L324.568 790.468L364.857 600.482L328.491 621.339Z" fill="#F4F6FC"/>
<ellipse cx="489.918" cy="729.657" rx="22.2522" ry="76.7368" transform="rotate(11.973 489.918 729.657)" fill="#F00182"/>
</svg>
