<svg width="656" height="542" viewBox="0 0 656 542" fill="none" xmlns="http://www.w3.org/2000/svg">
<path d="M81.3262 536.656C77.8256 536.657 74.4264 535.471 71.6745 533.289C68.9226 531.107 66.9777 528.056 66.1521 524.626C65.3265 521.195 65.6681 517.585 67.122 514.374C68.576 511.162 71.0579 508.537 74.1693 506.92C106.132 490.307 145.976 427.017 157.592 405.845C157.655 405.706 157.742 405.568 157.817 405.417C159.421 402.559 161.872 400.278 164.825 398.894C167.779 397.51 171.088 397.092 174.288 397.699C177.489 398.305 180.422 399.906 182.675 402.277C184.929 404.648 186.391 407.67 186.857 410.921C187.356 414.46 187.144 416.639 184.933 420.997L184.858 421.123C183.26 424.259 180.674 428.503 176.627 435.128C171.831 442.975 164.199 455.028 155.044 467.875C130.788 501.97 108.38 524.552 88.4582 534.855C86.2599 536.027 83.8129 536.645 81.3262 536.656Z" fill="#F1AFB1" stroke="black" stroke-miterlimit="10"/>
<path d="M117.074 513.33C116.105 517.014 114.054 520.315 111.191 522.802C104.706 528.577 97.581 533.577 89.9571 537.702C87.7649 538.905 85.3563 539.654 82.8729 539.905C80.3895 540.157 77.8813 539.905 75.4956 539.166C73.1099 538.426 70.8948 537.214 68.9803 535.599C67.0659 533.984 65.4907 532 64.3473 529.762C63.2039 527.525 62.5153 525.08 62.3219 522.571C62.1286 520.062 62.4344 517.539 63.2214 515.151C64.0084 512.762 65.2607 510.556 66.9048 508.663C68.5489 506.769 70.5516 505.226 72.7954 504.123C77.8276 501.351 82.5294 498.009 86.8096 494.161C89.5288 491.785 92.8747 490.258 96.4396 489.765" fill="#B90164"/>
<path d="M117.074 513.33C116.105 517.014 114.054 520.315 111.191 522.802C104.706 528.577 97.581 533.577 89.9571 537.702C87.7649 538.905 85.3563 539.654 82.8729 539.905C80.3895 540.157 77.8813 539.905 75.4956 539.166C73.1099 538.426 70.8948 537.214 68.9803 535.599C67.0659 533.984 65.4907 532 64.3473 529.762C63.2039 527.525 62.5153 525.08 62.3219 522.571C62.1286 520.062 62.4344 517.539 63.2214 515.151C64.0084 512.762 65.2607 510.556 66.9048 508.663C68.5489 506.769 70.5516 505.226 72.7954 504.123C77.8276 501.351 82.5294 498.009 86.8096 494.161C89.5288 491.785 92.8747 490.258 96.4396 489.765" stroke="black" stroke-linecap="round" stroke-linejoin="round"/>
<path d="M570.534 315.992C587.013 282.962 594.834 246.228 593.252 209.287C591.67 172.347 580.738 136.43 561.497 104.954C542.256 73.4793 515.345 47.4943 483.327 29.4729C451.31 11.4516 415.251 1.99382 378.583 2C373.037 2 367.538 2.20992 362.083 2.62975H258.052V39.2937C218.615 66.2804 189.185 105.712 174.384 151.395C159.583 197.078 160.249 246.424 176.278 291.684H456.061L570.534 315.992Z" fill="#F7898C" stroke="black" stroke-linecap="round" stroke-linejoin="round"/>
<path d="M258.051 397.973V434.637H362.083C367.529 435.057 373.029 435.267 378.583 435.267C418.396 435.273 457.428 424.124 491.323 403.063C525.217 382.001 552.641 351.856 570.534 315.992L456.023 291.684H176.24C191.661 334.955 220.308 372.172 258.051 397.973Z" fill="#B90164" stroke="black" stroke-linecap="round" stroke-linejoin="round"/>
<path d="M133.948 174.941C130.241 174.061 126.339 174.7 123.1 176.719C119.86 178.739 117.549 181.973 116.674 185.71C109.785 213.394 101.23 240.628 91.0559 267.262C75.2432 308.461 58.019 340.112 40.4827 360.541C34.5888 358.596 28.2354 358.583 22.3339 360.504C16.4323 362.425 11.2859 366.182 7.63292 371.236C3.97989 376.289 2.00796 382.379 2.00002 388.633C1.99209 394.886 3.94855 400.981 7.58874 406.044C11.2289 411.107 16.3658 414.877 22.2624 416.814C28.1591 418.75 34.5125 418.754 40.4112 416.824C46.31 414.894 51.451 411.129 55.0967 406.071C58.7424 401.012 60.7056 394.919 60.7045 388.665C60.7002 386.418 60.4447 384.179 59.9426 381.99C113.976 321.295 143.265 198.192 144.627 192.36C145.5 188.622 144.866 184.688 142.864 181.421C140.861 178.155 137.654 175.824 133.948 174.941Z" fill="#F1AFB1" stroke="black" stroke-miterlimit="10"/>
<path d="M624.642 384.257C621.54 384.255 618.458 384.752 615.512 385.731C598.025 365.302 580.751 333.65 564.939 292.452C554.766 265.818 546.211 238.583 539.321 210.9C538.923 209.013 538.155 207.226 537.063 205.642C535.97 204.059 534.575 202.711 532.959 201.679C531.343 200.647 529.539 199.95 527.652 199.63C525.766 199.311 523.835 199.374 521.973 199.817C520.112 200.26 518.356 201.073 516.81 202.21C515.265 203.346 513.959 204.782 512.971 206.434C511.984 208.086 511.333 209.92 511.057 211.829C510.782 213.738 510.887 215.683 511.368 217.55C512.729 223.382 542.019 346.485 596.052 407.18C594.678 413.163 595.184 419.429 597.5 425.109C599.816 430.789 603.826 435.602 608.975 438.881C614.125 442.16 620.158 443.743 626.239 443.41C632.321 443.077 638.149 440.845 642.916 437.023C647.683 433.201 651.153 427.978 652.845 422.079C654.537 416.179 654.367 409.895 652.359 404.097C650.351 398.299 646.605 393.275 641.638 389.72C636.672 386.165 630.732 384.256 624.642 384.257Z" fill="#F1AFB1" stroke="black" stroke-miterlimit="10"/>
<path d="M469.574 218.372C469.536 186.808 462.658 155.633 449.422 127.03C436.186 98.4263 416.911 73.0851 392.947 52.7792C368.982 32.4734 340.906 17.6936 310.685 9.47408C280.463 1.25456 248.824 -0.206117 217.984 5.19426C187.144 10.5946 157.846 22.7256 132.142 40.7383C106.437 58.751 84.9467 82.2102 69.174 109.474C53.4014 136.738 43.7276 167.149 40.8297 198.577C37.9317 230.006 41.8797 261.694 52.3972 291.423H457.033C465.352 267.982 469.595 243.268 469.574 218.372Z" fill="#F1AFB1" stroke="black" stroke-linecap="round" stroke-linejoin="round"/>
<path d="M253.68 435.267C297.969 435.275 341.179 421.485 377.398 395.784C413.618 370.082 441.078 333.725 456.023 291.684H51.387C66.3289 333.716 93.7818 370.069 129.992 395.769C166.201 421.47 209.4 435.265 253.68 435.267Z" fill="#F00182" stroke="black" stroke-linecap="round" stroke-linejoin="round"/>
<path d="M544.479 536.064C547.973 536.342 551.459 535.427 554.375 533.464C557.29 531.502 559.466 528.608 560.552 525.247C561.638 521.886 561.571 518.254 560.362 514.937C559.152 511.619 556.87 508.808 553.884 506.957C523.283 487.914 482.165 404.082 472.198 382.066C472.135 381.927 472.073 381.776 471.998 381.637C470.616 378.667 468.349 376.205 465.513 374.597C462.676 372.989 459.413 372.315 456.178 372.669C452.943 373.023 449.899 374.387 447.47 376.571C445.042 378.755 443.35 381.649 442.633 384.849C441.859 388.338 441.896 390.529 443.782 395.076L443.845 395.215C445.193 398.464 447.467 402.898 450.989 409.825C455.161 418.012 468.101 448.252 476.244 461.792C497.828 497.675 518.437 521.882 537.509 533.747C539.617 535.068 542.006 535.862 544.479 536.064Z" fill="#F1AFB1" stroke="black" stroke-miterlimit="10"/>
<path d="M510.618 510.018C511.299 513.767 513.093 517.22 515.764 519.917C521.804 526.189 528.544 531.734 535.848 536.442C540.077 539.074 545.169 539.905 550.005 538.751C554.841 537.597 559.024 534.553 561.635 530.289C564.245 526.025 565.069 520.89 563.924 516.014C562.78 511.138 559.762 506.919 555.533 504.287C550.727 501.132 546.293 497.435 542.318 493.266C539.785 490.691 536.566 488.91 533.05 488.14" fill="#B90164"/>
<path d="M510.618 510.018C511.299 513.767 513.093 517.22 515.764 519.917C521.804 526.189 528.544 531.734 535.848 536.442C540.077 539.074 545.169 539.905 550.005 538.751C554.841 537.597 559.024 534.553 561.635 530.289C564.245 526.025 565.069 520.89 563.924 516.014C562.78 511.138 559.762 506.919 555.533 504.287C550.727 501.132 546.293 497.435 542.318 493.266C539.785 490.691 536.566 488.91 533.05 488.14" stroke="black" stroke-linecap="round" stroke-linejoin="round"/>
<path d="M281.512 87.2465C281.512 127.723 255.452 160.127 223.756 160.127C192.06 160.127 166 127.723 166 87.2465C166 46.77 192.06 14.3662 223.756 14.3662C255.452 14.3662 281.512 46.77 281.512 87.2465Z" fill="#F2F2F2" stroke="black"/>
<path d="M252.134 125.555C252.134 144.836 239.258 160.127 223.756 160.127C208.254 160.127 195.378 144.836 195.378 125.555C195.378 106.274 208.254 90.9828 223.756 90.9828C239.258 90.9828 252.134 106.274 252.134 125.555Z" fill="#333333" stroke="black"/>
<path d="M226.541 120.198L230.186 97.5917C237.733 99.7416 240.943 102.581 244.725 110.75L226.541 120.198Z" fill="white"/>
<path d="M300.465 253.951C300.465 267.619 291.841 280.132 277.609 289.276C263.387 298.414 243.68 304.098 221.86 304.098C200.041 304.098 180.334 298.414 166.112 289.276C151.88 280.132 143.256 267.619 143.256 253.951C143.256 240.282 151.88 227.77 166.112 218.625C180.334 209.487 200.041 203.803 221.86 203.803C243.68 203.803 263.387 209.487 277.609 218.625C291.841 227.77 300.465 240.282 300.465 253.951Z" fill="#34AD62" stroke="black"/>
<path d="M165 283.664C165 244.262 181.426 241.988 197.221 245.777L197.932 253.355C186.954 253.355 178.267 259.416 178.267 283.664C178.267 307.912 216.174 296.925 219.965 296.925C223.756 296.925 263.937 303.366 265.453 283.664C266.97 263.963 254.081 255.249 242.709 253.355L246.5 245.777C259.767 247.671 278.721 245.777 278.721 283.664C278.721 321.552 227.546 306.397 219.965 308.291C212.384 310.185 165 323.067 165 283.664Z" fill="#F2F2F2" stroke="black"/>
<path d="M262.558 181.254C262.558 186.261 258.719 191.029 251.986 194.604C245.298 198.155 235.989 200.382 225.651 200.382C215.314 200.382 206.004 198.155 199.316 194.604C192.583 191.029 188.744 186.261 188.744 181.254C188.744 176.248 192.583 171.48 199.316 167.905C206.004 164.354 215.314 162.127 225.651 162.127C235.989 162.127 245.298 164.354 251.986 167.905C258.719 171.48 262.558 176.248 262.558 181.254Z" fill="#F7898C" stroke="black"/>
<ellipse cx="211.946" cy="181.254" rx="8.74776" ry="12.0766" fill="#333333"/>
<ellipse cx="239.356" cy="181.254" rx="8.74776" ry="12.0766" fill="#333333"/>
<path d="M251.186 253.951C251.186 259.252 247.862 264.188 242.206 267.846C236.559 271.497 228.699 273.789 219.965 273.789C211.231 273.789 203.371 271.497 197.724 267.846C192.068 264.188 188.744 259.252 188.744 253.951C188.744 248.649 192.068 243.714 197.724 240.056C203.371 236.404 211.231 234.113 219.965 234.113C228.699 234.113 236.559 236.404 242.206 240.056C247.862 243.714 251.186 248.649 251.186 253.951Z" fill="#23693E" stroke="black"/>
<path d="M199.116 198.994C199.116 179.965 206.782 178.868 214.153 180.697L214.484 184.357C209.362 184.357 205.308 187.284 205.308 198.994C205.308 210.704 222.998 209.053 224.767 209.053C226.536 209.053 245.287 208.509 245.994 198.994C246.702 189.48 240.688 185.272 235.381 184.357L237.15 180.697C243.341 181.612 252.186 180.697 252.186 198.994C252.186 213.834 230.193 214.316 225.091 213.968C221.659 214.524 199.116 215.05 199.116 198.994Z" fill="#FAC014" stroke="black"/>
</svg>
