<svg width="982" height="958" viewBox="0 0 982 958" fill="none" xmlns="http://www.w3.org/2000/svg">
<path d="M404.463 217.312C397.248 209.363 388.572 202.915 379.042 198.42C369.512 193.925 359.359 191.492 349.294 191.291C339.228 191.09 329.492 193.126 320.768 197.256C312.045 201.386 304.543 207.511 298.789 215.202C293.035 222.893 289.167 231.964 287.456 241.78C285.745 251.596 286.233 261.921 288.884 272.032C291.536 282.142 296.288 291.794 302.807 300.312C309.326 308.83 317.456 316.009 326.627 321.345L418.302 238.303C414.834 230.686 410.153 223.585 404.463 217.312Z" fill="#23693E" stroke="black" stroke-linecap="round" stroke-linejoin="round"/>
<path d="M518.163 185.868C524.251 177.025 513.787 180.554 522.63 174.826C519.754 176.923 519.382 176.371 529.33 174.826C539.279 173.281 643.862 173.996 653.06 176.923C662.258 179.849 670.511 184.916 677.241 191.768C683.972 198.621 689.018 207.093 692.026 216.592C695.034 226.092 695.931 236.389 694.655 246.763C693.379 257.138 689.96 267.338 684.638 276.652C679.316 285.965 672.219 294.166 663.844 300.681L561.89 230.643C564.308 222.63 513.363 192.845 518.163 185.868Z" fill="#23693E" stroke="black" stroke-linecap="round" stroke-linejoin="round"/>
<path d="M787.798 534.191C776.072 483.308 761.887 458.928 745.396 415.044C728.904 371.16 704.889 332.281 675.03 301.127C645.171 269.973 610.19 247.298 572.535 234.687C534.88 222.076 495.461 219.835 457.035 228.121C418.61 236.406 382.106 255.018 350.08 282.653C318.053 310.289 271.625 388.11 271.625 388.11C271.625 388.11 222.337 472.001 210.937 520.057C201.816 568.114 189.048 621.648 202.153 667.259C226.22 745.99 169.477 799.45 210.937 841.539C291.991 917.08 414.24 897.92 493.667 890.374C578.301 877.175 616.604 859.505 675.03 816.876C730.692 772.84 756.128 741.004 787.798 667.259C798.163 631.296 796.918 573.767 787.798 534.191Z" fill="#23693E" stroke="black" stroke-linecap="round" stroke-linejoin="round"/>
<path d="M237.042 474.662C240.018 471.634 241.666 467.547 241.623 463.299C241.581 459.05 239.85 454.989 236.813 452.007C214.552 429.536 193.678 405.733 174.309 380.733C144.391 341.989 124.339 307.385 115.105 278.93C120.354 274.429 124.036 268.379 125.624 261.649C127.212 254.919 126.624 247.855 123.945 241.469C121.265 235.083 116.631 229.704 110.708 226.104C104.785 222.504 97.8767 220.867 90.9747 221.429C84.0728 221.991 77.5316 224.722 72.2894 229.231C67.0473 233.74 63.3736 239.795 61.7954 246.527C60.2172 253.26 60.8156 260.323 63.5047 266.705C66.1938 273.087 70.8355 278.459 76.7638 282.051C78.8961 283.338 81.1663 284.38 83.5315 285.159C109.85 371.541 209.62 470.188 214.361 474.836C217.4 477.816 221.496 479.472 225.749 479.439C230.002 479.407 234.064 477.689 237.042 474.662Z" fill="#34AD62" stroke="black" stroke-miterlimit="10"/>
<path d="M297.257 217.312C290.042 209.363 281.366 202.915 271.836 198.42C262.306 193.925 252.153 191.492 242.088 191.291C232.022 191.09 222.286 193.126 213.562 197.256C204.839 201.386 197.337 207.511 191.583 215.202C185.829 222.893 181.961 231.964 180.25 241.78C178.539 251.596 179.027 261.921 181.678 272.032C184.33 282.142 189.082 291.794 195.601 300.312C202.12 308.83 210.25 316.009 219.421 321.345L311.095 238.303C307.628 230.686 302.947 223.585 297.257 217.312Z" fill="#2D9555" stroke="black" stroke-linecap="round" stroke-linejoin="round"/>
<path d="M742.279 165.243C744.044 167.84 746.214 170.138 748.706 172.049C741.666 198.254 725.168 230.637 699.893 267.205C683.524 290.803 665.735 313.388 646.624 334.834C645.281 336.236 644.231 337.891 643.536 339.702C642.84 341.513 642.514 343.444 642.575 345.381C642.636 347.318 643.084 349.222 643.893 350.982C644.701 352.742 645.853 354.322 647.282 355.629C648.711 356.936 650.388 357.945 652.214 358.595C654.04 359.245 655.978 359.524 657.915 359.415C659.852 359.306 661.749 358.812 663.494 357.961C665.24 357.11 666.798 355.92 668.078 354.461C672.155 350.018 757.907 255.782 777.636 176.186C783.397 173.946 788.323 169.974 791.73 164.819C795.138 159.664 796.858 153.582 796.654 147.415C796.45 141.249 794.331 135.303 790.59 130.403C786.85 125.502 781.673 121.889 775.778 120.064C769.882 118.24 763.56 118.294 757.688 120.219C751.815 122.145 746.683 125.846 743.002 130.81C739.321 135.775 737.274 141.756 737.145 147.925C737.015 154.095 738.81 160.147 742.279 165.243Z" fill="#34AD62" stroke="black" stroke-miterlimit="10"/>
<path d="M731.615 600.692C729.009 604.042 727.844 608.293 728.377 612.508C728.91 616.723 731.098 620.557 734.459 623.169C759.167 642.922 782.65 664.157 804.778 686.756C838.969 721.79 862.884 753.85 875.342 781.049C870.649 786.126 867.689 792.56 866.889 799.428C866.089 806.296 867.489 813.246 870.888 819.28C874.288 825.314 879.512 830.122 885.811 833.015C892.111 835.908 899.161 836.736 905.952 835.382C912.743 834.028 918.925 830.56 923.612 825.477C928.298 820.393 931.248 813.955 932.038 807.085C932.828 800.216 931.418 793.268 928.01 787.239C924.602 781.21 919.371 776.41 913.067 773.526C910.8 772.494 908.425 771.72 905.986 771.219C869.866 688.451 759.371 601.973 754.124 597.903C750.762 595.293 746.502 594.121 742.281 594.644C738.06 595.167 734.224 597.342 731.615 600.692Z" fill="#34AD62" stroke="black" stroke-miterlimit="10"/>
<path d="M129.325 896.538C127.272 894.162 124.851 892.13 122.155 890.518C126.122 863.677 138.77 829.607 159.652 790.368C173.186 765.038 188.248 740.552 204.754 717.045C205.927 715.498 206.779 713.733 207.26 711.854C207.742 709.974 207.843 708.019 207.558 706.102C207.274 704.185 206.609 702.345 205.603 700.69C204.597 699.035 203.269 697.599 201.699 696.465C200.129 695.332 198.347 694.523 196.458 694.088C194.569 693.653 192.612 693.6 190.7 693.932C188.788 694.263 186.961 694.973 185.326 696.019C183.691 697.066 182.28 698.427 181.177 700.025C177.64 704.908 103.346 808.407 92.9401 889.747C87.4765 892.636 83.0428 897.15 80.2534 902.663C77.464 908.177 76.4571 914.417 77.3721 920.519C78.2872 926.621 81.0789 932.282 85.3604 936.718C89.642 941.155 95.2013 944.146 101.268 945.279C107.335 946.411 113.608 945.628 119.219 943.038C124.83 940.448 129.5 936.179 132.583 930.824C135.666 925.468 137.009 919.29 136.425 913.147C135.841 907.004 133.36 901.199 129.325 896.538Z" fill="#34AD62" stroke="black" stroke-miterlimit="10"/>
<path d="M465.592 207.99C471.68 199.147 479.416 191.597 488.259 185.868C497.102 180.14 506.839 176.371 516.788 174.826C526.736 173.281 536.656 173.996 545.854 176.923C555.052 179.849 563.305 184.916 570.035 191.768C576.766 198.621 581.812 207.093 584.82 216.592C587.828 226.092 588.725 236.389 587.449 246.763C586.173 257.138 582.754 267.338 577.432 276.652C572.11 285.965 565.013 294.166 556.638 300.681L454.684 230.643C457.102 222.63 460.792 214.967 465.592 207.99Z" fill="#2D9555" stroke="black" stroke-linecap="round" stroke-linejoin="round"/>
<path d="M680.591 534.191C668.865 483.308 654.681 458.928 638.189 415.044C621.698 371.16 597.682 332.28 567.824 301.127C537.965 269.973 502.984 247.298 465.329 234.687C427.674 222.076 388.254 219.835 349.829 228.121C311.403 236.406 274.9 255.018 242.874 282.653C210.847 310.289 164.419 388.11 164.419 388.11C164.419 388.11 115.131 472.001 103.73 520.057C94.6098 568.114 81.842 621.648 94.9463 667.259C119.014 745.99 139.794 774.786 181.253 816.876C262.307 892.417 307.034 897.92 386.461 890.374C471.095 877.175 509.398 859.505 567.824 816.876C623.486 772.84 648.922 741.004 680.591 667.259C690.956 631.296 689.712 573.767 680.591 534.191Z" fill="#2D9555" stroke="black" stroke-linecap="round" stroke-linejoin="round"/>
<path d="M312.844 324.063C312.844 313.626 319.907 306.409 328.981 303.519C338.061 300.627 349.109 302.086 356.999 308.974C367.251 317.925 376.99 322.322 386.939 322.023C396.885 321.724 406.988 316.734 417.973 307.03C426.049 299.895 437.277 298.481 446.489 301.553C455.697 304.624 462.852 312.16 462.852 322.905C462.852 328.435 460.757 333.78 456.907 337.742C429.135 366.327 407.201 381.185 385.804 381.438C364.416 381.692 343.46 367.353 317.646 337.235C314.511 333.578 312.844 328.885 312.844 324.063Z" fill="black" stroke="black" stroke-width="0.25"/>
<path d="M292.298 253.463C292.298 279.555 271.148 300.707 245.058 300.707C218.968 300.707 197.818 279.555 197.818 253.463C197.818 227.37 218.968 206.218 245.058 206.218C271.148 206.218 292.298 227.37 292.298 253.463Z" fill="white" stroke="black"/>
<path d="M566.3 241.884C566.3 267.977 545.15 289.129 519.06 289.129C492.97 289.129 471.82 267.977 471.82 241.884C471.82 215.792 492.97 194.64 519.06 194.64C545.15 194.64 566.3 215.792 566.3 241.884Z" fill="white" stroke="black"/>
<ellipse cx="245.058" cy="240.905" rx="32.8031" ry="32.8061" fill="#070C2A"/>
<path d="M253.81 236.08L257.136 217.638C264.021 219.392 266.95 221.709 270.4 228.373L253.81 236.08Z" fill="white"/>
<path d="M204.537 298.765C232.921 327.32 250.416 329.496 285.579 298.765V282.409C253.151 312.355 235.275 312.23 204.537 282.409V298.765Z" fill="#2D9555"/>
<ellipse cx="519.06" cy="229.326" rx="32.8031" ry="32.8061" fill="#070C2A"/>
<path d="M527.812 224.502L531.137 206.06C538.023 207.814 540.951 210.13 544.401 216.794L527.812 224.502Z" fill="white"/>
<path d="M478.539 287.187C506.923 315.741 524.418 317.917 559.581 287.187V270.831C527.153 300.777 509.277 300.652 478.539 270.831V287.187Z" fill="#2D9555"/>
<path d="M416.407 340.904C422.675 343.936 427.652 350.379 430.777 361.541C428.015 364.212 421.285 368.553 413.82 372.404C406.259 376.305 398.004 379.673 392.423 380.296C381.202 381.549 375.264 380.297 368.58 378.66C367.87 378.486 367.417 377.921 367.228 376.95C367.037 375.971 367.128 374.625 367.485 373.007C368.199 369.777 369.955 365.55 372.46 361.2C374.964 356.853 378.208 352.397 381.889 348.707C385.572 345.014 389.679 342.102 393.906 340.818C402.441 338.225 410.107 337.856 416.407 340.904Z" fill="#FF5833" stroke="black" stroke-width="0.25"/>
<rect x="0.415697" y="0.571935" width="6.20029" height="146.827" transform="matrix(1.97546 0.312331 -0.312675 1.97541 108.603 62.5017)" fill="#FAC014" stroke="black" stroke-width="0.5"/>
<rect x="0.704751" y="0.0600344" width="6.19881" height="146.86" transform="translate(634.303 8.63247) scale(2.00055 1.99945) rotate(-40.1337 0.704751 0.0600344)" fill="#FAC014" stroke="black" stroke-width="0.5"/>
<path d="M619.902 627.248C619.902 756.089 509.408 860.629 372.988 860.629C236.567 860.629 126.074 756.089 126.074 627.248C126.074 498.408 236.567 393.867 372.988 393.867C509.408 393.867 619.902 498.408 619.902 627.248Z" fill="#23693E" stroke="black"/>
<path d="M499.797 395.048C499.786 395.16 499.772 395.255 499.758 395.334C499.642 395.18 499.504 394.965 499.345 394.683C498.592 393.344 497.526 390.81 496.156 387.395C495.672 386.189 495.152 384.876 494.596 383.474C492.018 376.974 488.676 368.546 484.658 359.813C479.775 349.199 473.879 338.104 467.115 329.439C460.365 320.791 452.676 314.467 444.185 313.582C427.661 311.859 412.955 308.07 402.54 303.35C397.329 300.989 393.219 298.407 390.491 295.756C387.757 293.099 386.473 290.438 386.738 287.897C387.003 285.356 388.809 283.017 392.032 280.982C395.25 278.95 399.804 277.271 405.39 276.036C416.556 273.566 431.728 272.891 448.252 274.614C456.28 275.45 463.631 282.561 470.137 293.186C476.624 303.778 482.181 317.714 486.676 331.915C491.17 346.111 494.595 360.546 496.824 372.12C497.939 377.907 498.754 382.975 499.254 386.937C499.757 390.919 499.935 393.734 499.797 395.048Z" fill="#FAC014" stroke="black" stroke-width="0.5"/>
<path d="M281.913 383.887C281.929 384.042 281.948 384.171 281.968 384.276C282.022 384.199 282.082 384.105 282.149 383.992C282.756 382.967 283.617 380.878 284.747 377.982C285.123 377.019 285.527 375.971 285.958 374.85C288.105 369.279 290.943 361.912 294.474 354.233C298.714 345.011 303.968 335.307 310.253 327.685C316.531 320.07 323.896 314.465 332.369 313.582C348.893 311.859 363.599 308.07 374.014 303.35C379.225 300.989 383.335 298.407 386.063 295.756C388.797 293.099 390.081 290.438 389.816 287.897C389.551 285.356 387.745 283.017 384.521 280.982C381.304 278.95 376.749 277.271 371.164 276.036C359.998 273.566 344.826 272.891 328.302 274.614C320.259 275.452 313.231 281.885 307.219 291.447C301.22 300.988 296.308 313.525 292.458 326.328C288.609 339.126 285.829 352.164 284.083 362.691C283.21 367.954 282.596 372.585 282.236 376.242C281.875 379.914 281.775 382.564 281.913 383.887ZM282.07 384.612C282.07 384.612 282.068 384.608 282.064 384.603C282.067 384.61 282.07 384.612 282.07 384.612ZM281.747 384.535C281.741 384.538 281.738 384.541 281.738 384.541C281.738 384.542 281.741 384.54 281.747 384.535Z" fill="#FAC014" stroke="black" stroke-width="0.5"/>
</svg>
