<svg width="1862" height="1798" viewBox="0 0 1862 1798" fill="none" xmlns="http://www.w3.org/2000/svg">
<path d="M766.527 407.541C752.852 392.633 736.41 380.54 718.349 372.111C700.289 363.682 681.047 359.119 661.971 358.742C642.895 358.365 624.444 362.183 607.911 369.929C591.378 377.674 577.162 389.161 566.256 403.584C555.351 418.007 548.021 435.018 544.779 453.427C541.536 471.837 542.46 491.199 547.485 510.16C552.511 529.121 561.516 547.222 573.871 563.197C586.227 579.172 601.633 592.634 619.014 602.642L792.753 446.906C786.181 432.621 777.309 419.304 766.527 407.541Z" fill="#23693E" stroke="black" stroke-linecap="round" stroke-linejoin="round"/>
<path d="M982.006 348.573C993.543 331.988 973.712 338.607 990.471 327.863C985.021 331.796 984.316 330.761 1003.17 327.863C1022.02 324.966 1220.23 326.308 1237.66 331.796C1255.09 337.285 1270.73 346.787 1283.49 359.637C1296.24 372.488 1305.8 388.376 1311.51 406.191C1317.21 424.007 1318.91 443.318 1316.49 462.773C1314.07 482.229 1307.59 501.359 1297.5 518.825C1287.42 536.291 1273.97 551.671 1258.1 563.889L1064.88 432.541C1069.46 417.515 972.91 361.656 982.006 348.573Z" fill="#23693E" stroke="black" stroke-linecap="round" stroke-linejoin="round"/>
<path d="M1493.01 1001.81C1470.79 906.383 1443.9 860.661 1412.65 778.362C1381.4 696.063 1335.88 623.15 1279.29 564.725C1222.71 506.3 1156.41 463.775 1085.05 440.126C1013.69 416.476 938.981 412.274 866.158 427.812C793.336 443.35 724.156 478.254 663.46 530.08C602.765 581.907 514.776 727.851 514.776 727.851C514.776 727.851 421.366 885.177 399.761 975.301C382.476 1065.42 358.279 1165.82 383.114 1251.36C428.726 1399.01 321.189 1499.27 399.761 1578.2C553.371 1719.87 785.054 1683.93 935.582 1669.78C1095.98 1645.03 1168.57 1611.89 1279.29 1531.95C1384.78 1449.36 1432.99 1389.66 1493.01 1251.36C1512.65 1183.91 1510.29 1076.03 1493.01 1001.81Z" fill="#23693E" stroke="black" stroke-linecap="round" stroke-linejoin="round"/>
<path d="M449.234 890.168C454.875 884.49 457.998 876.824 457.917 868.857C457.835 860.89 454.557 853.273 448.801 847.681C406.611 805.539 367.052 760.9 330.344 714.015C273.646 641.357 235.644 576.461 218.144 523.097C228.091 514.656 235.07 503.311 238.079 490.689C241.089 478.068 239.974 464.819 234.896 452.843C229.817 440.868 221.035 430.781 209.81 424.029C198.585 417.277 185.493 414.208 172.412 415.261C159.332 416.315 146.935 421.437 137.001 429.893C127.066 438.349 120.104 449.704 117.113 462.33C114.122 474.956 115.256 488.203 120.352 500.171C125.448 512.14 134.245 522.214 145.48 528.95C149.521 531.363 153.824 533.319 158.306 534.78C208.185 696.778 397.265 881.777 406.25 890.494C412.009 896.083 419.772 899.188 427.832 899.127C435.892 899.066 443.591 895.843 449.234 890.168Z" fill="#34AD62" stroke="black" stroke-miterlimit="10"/>
<path d="M563.352 407.541C549.678 392.633 533.235 380.54 515.175 372.111C497.115 363.682 477.873 359.119 458.797 358.742C439.72 358.365 421.27 362.183 404.737 369.929C388.204 377.674 373.987 389.161 363.082 403.584C352.177 418.007 344.847 435.018 341.604 453.427C338.362 471.837 339.286 491.199 344.311 510.16C349.336 529.121 358.342 547.222 370.697 563.197C383.052 579.172 398.459 592.634 415.839 602.642L589.578 446.906C583.007 432.621 574.135 419.304 563.352 407.541Z" fill="#2D9555" stroke="black" stroke-linecap="round" stroke-linejoin="round"/>
<path d="M1406.74 309.892C1410.09 314.762 1414.2 319.071 1418.92 322.656C1405.58 371.8 1374.31 432.53 1326.42 501.108C1295.39 545.365 1261.68 587.72 1225.46 627.939C1222.92 630.568 1220.93 633.671 1219.61 637.068C1218.29 640.464 1217.67 644.085 1217.79 647.718C1217.9 651.351 1218.75 654.922 1220.29 658.222C1221.82 661.523 1224 664.485 1226.71 666.937C1229.42 669.389 1232.59 671.279 1236.06 672.498C1239.52 673.718 1243.19 674.24 1246.86 674.036C1250.53 673.832 1254.13 672.905 1257.43 671.31C1260.74 669.714 1263.69 667.483 1266.12 664.746C1273.85 656.415 1436.36 479.686 1473.75 330.414C1484.67 326.214 1494 318.765 1500.46 309.097C1506.92 299.43 1510.18 288.023 1509.79 276.459C1509.41 264.894 1505.39 253.744 1498.3 244.553C1491.21 235.363 1481.4 228.587 1470.23 225.165C1459.06 221.744 1447.08 221.845 1435.95 225.456C1424.82 229.067 1415.09 236.008 1408.11 245.318C1401.14 254.628 1397.26 265.845 1397.01 277.415C1396.77 288.985 1400.17 300.335 1406.74 309.892Z" fill="#34AD62" stroke="black" stroke-miterlimit="10"/>
<path d="M1386.53 1126.52C1381.59 1132.8 1379.38 1140.77 1380.39 1148.68C1381.41 1156.58 1385.55 1163.77 1391.92 1168.67C1438.75 1205.72 1483.25 1245.54 1525.19 1287.92C1589.99 1353.62 1635.31 1413.75 1658.92 1464.76C1650.02 1474.28 1644.42 1486.34 1642.9 1499.22C1641.38 1512.1 1644.04 1525.14 1650.48 1536.45C1656.92 1547.77 1666.82 1556.79 1678.76 1562.21C1690.7 1567.64 1704.06 1569.19 1716.93 1566.65C1729.8 1564.11 1741.52 1557.61 1750.4 1548.07C1759.28 1538.54 1764.87 1526.47 1766.37 1513.58C1767.86 1500.7 1765.19 1487.67 1758.73 1476.37C1752.27 1465.06 1742.36 1456.06 1730.41 1450.65C1726.12 1448.71 1721.62 1447.26 1716.99 1446.32C1648.54 1291.1 1439.13 1128.92 1429.19 1121.29C1422.82 1116.39 1414.75 1114.2 1406.75 1115.18C1398.75 1116.16 1391.48 1120.24 1386.53 1126.52Z" fill="#34AD62" stroke="black" stroke-miterlimit="10"/>
<path d="M245.092 1681.34C241.202 1676.88 236.615 1673.07 231.505 1670.05C239.022 1619.71 262.992 1555.82 302.568 1482.23C328.217 1434.73 356.762 1388.81 388.044 1344.73C390.266 1341.82 391.88 1338.51 392.793 1334.99C393.706 1331.46 393.898 1327.8 393.358 1324.2C392.819 1320.61 391.559 1317.16 389.652 1314.05C387.745 1310.95 385.23 1308.26 382.254 1306.13C379.278 1304 375.901 1302.49 372.321 1301.67C368.742 1300.86 365.032 1300.76 361.409 1301.38C357.786 1302 354.323 1303.33 351.224 1305.29C348.125 1307.26 345.452 1309.81 343.361 1312.81C336.659 1321.96 195.858 1516.06 176.137 1668.61C165.783 1674.02 157.38 1682.49 152.094 1692.83C146.808 1703.17 144.899 1714.87 146.634 1726.31C148.368 1737.76 153.659 1748.37 161.773 1756.69C169.887 1765.01 180.423 1770.62 191.92 1772.75C203.417 1774.87 215.307 1773.4 225.94 1768.55C236.574 1763.69 245.425 1755.68 251.268 1745.64C257.111 1735.6 259.655 1724.01 258.548 1712.49C257.442 1700.97 252.739 1690.08 245.092 1681.34Z" fill="#34AD62" stroke="black" stroke-miterlimit="10"/>
<path d="M882.376 390.06C893.913 373.475 908.575 359.316 925.334 348.573C942.093 337.829 960.545 330.761 979.4 327.863C998.254 324.966 1017.05 326.308 1034.49 331.796C1051.92 337.285 1067.56 346.787 1080.31 359.637C1093.07 372.488 1102.63 388.376 1108.33 406.191C1114.03 424.007 1115.73 443.318 1113.31 462.773C1110.9 482.229 1104.42 501.359 1094.33 518.825C1084.24 536.291 1070.8 551.671 1054.92 563.889L861.704 432.541C866.286 417.515 873.279 403.144 882.376 390.06Z" fill="#2D9555" stroke="black" stroke-linecap="round" stroke-linejoin="round"/>
<path d="M1289.84 1001.81C1267.61 906.383 1240.73 860.661 1209.48 778.362C1178.22 696.063 1132.71 623.15 1076.12 564.725C1019.53 506.3 953.24 463.775 881.877 440.126C810.514 416.476 735.808 412.273 662.985 427.812C590.163 443.35 520.983 478.254 460.287 530.08C399.592 581.907 311.603 727.85 311.603 727.85C311.603 727.85 218.193 885.177 196.588 975.301C179.303 1065.42 155.106 1165.82 179.94 1251.36C225.553 1399.01 264.934 1453.01 343.506 1531.95C497.117 1673.61 581.881 1683.93 732.409 1669.78C892.805 1645.03 965.395 1611.89 1076.12 1531.95C1181.61 1449.36 1229.82 1389.66 1289.84 1251.36C1309.48 1183.91 1307.12 1076.03 1289.84 1001.81Z" fill="#2D9555" stroke="black" stroke-linecap="round" stroke-linejoin="round"/>
<path d="M592.667 607.52C592.667 587.73 606.033 574.028 623.172 568.525C640.316 563.021 661.192 565.739 676.134 578.768C695.752 595.872 714.333 604.254 733.297 603.694C752.257 603.134 771.545 593.636 792.583 575.102C807.881 561.625 829.094 558.993 846.487 564.835C863.875 570.676 877.405 584.971 877.405 605.328C877.405 615.9 873.369 626.119 865.964 633.658C813.384 687.191 771.789 715.082 731.164 715.558C690.548 716.033 650.802 689.106 601.922 632.699C595.881 625.729 592.667 616.749 592.667 607.52Z" fill="black" stroke="black" stroke-width="0.25"/>
<path d="M554.848 475.336C554.848 524.743 514.375 564.812 464.426 564.812C414.477 564.812 374.003 524.743 374.003 475.336C374.003 425.93 414.477 385.86 464.426 385.86C514.375 385.86 554.848 425.93 554.848 475.336Z" fill="#F4F6FC" stroke="black"/>
<path d="M1074.13 453.622C1074.13 503.029 1033.65 543.098 983.705 543.098C933.756 543.098 893.283 503.029 893.283 453.622C893.283 404.216 933.756 364.146 983.705 364.146C1033.65 364.146 1074.13 404.216 1074.13 453.622Z" fill="#F4F6FC" stroke="black"/>
<ellipse cx="464.427" cy="451.786" rx="62.1673" ry="61.5237" fill="#070C2A"/>
<path d="M481.012 442.738L487.315 408.152C500.364 411.441 505.914 415.786 512.452 428.284L481.012 442.738Z" fill="#F4F6FC"/>
<path d="M387.632 560.296C441.425 613.846 474.582 617.927 541.221 560.296V529.622C479.765 585.782 445.886 585.548 387.632 529.622V560.296Z" fill="#2D9555"/>
<ellipse cx="983.706" cy="430.072" rx="62.1673" ry="61.5237" fill="#070C2A"/>
<path d="M1000.29 421.025L1006.6 386.44C1019.64 389.729 1025.19 394.073 1031.73 406.571L1000.29 421.025Z" fill="#F4F6FC"/>
<path d="M906.911 538.582C960.704 592.132 993.861 596.213 1060.5 538.582V507.908C999.044 564.068 965.165 563.834 906.911 507.908V538.582Z" fill="#2D9555"/>
<path d="M789.262 639.125C801.242 644.859 810.716 657.043 816.647 678.088C811.446 683.114 798.597 691.323 784.362 698.59C770.03 705.907 754.353 712.239 743.732 713.413C722.431 715.766 711.15 713.415 698.468 710.34C697.009 709.986 696.109 708.833 695.74 706.963C695.37 705.084 695.549 702.527 696.229 699.48C697.589 693.394 700.927 685.445 705.681 677.276C710.434 669.11 716.594 660.738 723.587 653.801C730.581 646.862 738.395 641.372 746.455 638.95C762.654 634.079 777.248 633.374 789.262 639.125Z" fill="#FF5833" stroke="black" stroke-width="0.25"/>
<rect x="0.415017" y="0.571011" width="12.1949" height="275.865" transform="matrix(1.97596 0.309147 -0.315894 1.9749 205.596 116.529)" fill="#FAC014" stroke="black" stroke-width="0.5"/>
<rect x="0.708387" y="0.0603404" width="12.1405" height="277.071" transform="matrix(1.53614 -1.28073 1.2974 1.52209 1201.65 17.0647)" fill="#FAC014" stroke="black" stroke-width="0.5"/>
<path d="M1175.71 1176.32C1175.71 1418.47 965.872 1614.87 706.876 1614.87C447.879 1614.87 238.037 1418.47 238.037 1176.32C238.037 934.18 447.879 737.772 706.876 737.772C965.872 737.772 1175.71 934.18 1175.71 1176.32Z" fill="#23693E" stroke="black"/>
<path d="M947.787 741.095C947.721 741.728 947.622 742.119 947.518 742.329C947.5 742.367 947.483 742.393 947.471 742.412C947.445 742.398 947.412 742.377 947.371 742.345C947.28 742.275 947.168 742.165 947.035 742.005C946.769 741.684 946.455 741.209 946.094 740.575C944.647 738.033 942.613 733.248 940.016 726.85C939.096 724.584 938.108 722.121 937.052 719.489C932.159 707.293 925.82 691.494 918.2 675.121C908.937 655.217 897.766 634.434 884.97 618.212C872.187 602.007 857.708 590.258 841.807 588.606C810.459 585.349 782.538 578.213 762.74 569.321C752.838 564.874 744.995 560 739.771 554.974C734.54 549.943 731.998 544.826 732.517 539.871C733.035 534.917 736.583 530.433 742.743 526.584C748.897 522.741 757.581 519.584 768.19 517.268C789.404 512.637 818.203 511.393 849.551 514.65C864.994 516.254 879.032 529.773 891.384 549.725C903.716 569.644 914.278 595.83 922.82 622.487C931.361 649.138 937.874 676.235 942.117 697.96C944.238 708.823 945.791 718.339 946.745 725.782C947.703 733.245 948.051 738.574 947.787 741.095Z" fill="#FAC014" stroke="black" stroke-width="0.5"/>
<path d="M533.701 720.153C533.767 720.786 533.858 721.22 533.961 721.492C534.002 721.6 534.037 721.663 534.061 721.698C534.098 721.676 534.157 721.632 534.241 721.548C534.44 721.349 534.686 721.014 534.979 720.525C536.153 718.563 537.802 714.606 539.941 709.185C540.656 707.376 541.423 705.408 542.243 703.304C546.318 692.851 551.7 679.044 558.395 664.65C566.436 647.361 576.385 629.192 588.269 614.93C600.146 600.675 614.012 590.256 629.895 588.606C661.243 585.349 689.164 578.213 708.962 569.321C718.863 564.874 726.706 560 731.931 554.974C737.162 549.943 739.704 544.826 739.185 539.871C738.666 534.917 735.119 530.433 728.958 526.584C722.805 522.741 714.121 519.584 703.511 517.268C682.297 512.637 653.499 511.393 622.151 514.65C606.693 516.256 593.267 528.486 581.844 546.458C570.433 564.409 561.095 587.973 553.777 612.009C546.46 636.04 541.17 660.517 537.845 680.278C536.182 690.159 535.011 698.856 534.324 705.727C533.635 712.612 533.436 717.623 533.701 720.153Z" fill="#FAC014" stroke="black" stroke-width="0.5"/>
<ellipse cx="598.969" cy="1399.75" rx="44.4032" ry="129.12" transform="rotate(3.3369 598.969 1399.75)" fill="#F4F6FC"/>
<ellipse cx="599.042" cy="1398.5" rx="29.3937" ry="101.541" transform="rotate(3.3369 599.042 1398.5)" fill="#23693E"/>
<ellipse cx="715.169" cy="1405.27" rx="44.4032" ry="129.12" transform="rotate(3.3369 715.169 1405.27)" fill="#F4F6FC"/>
<ellipse cx="826.302" cy="1411.75" rx="44.4032" ry="129.12" transform="rotate(3.3369 826.302 1411.75)" fill="#F4F6FC"/>
<path d="M482.806 1296.92L481.456 1320.07L507.693 1298.37L494.887 1518L511.206 1518.95L526.164 1262.4L482.806 1296.92Z" fill="#F4F6FC"/>
<ellipse cx="715.097" cy="1406.52" rx="29.3937" ry="101.541" transform="rotate(3.3369 715.097 1406.52)" fill="#23693E"/>
<ellipse cx="826.227" cy="1413" rx="29.3937" ry="101.541" transform="rotate(3.3369 826.227 1413)" fill="#23693E"/>
</svg>
