<svg width="470" height="440" viewBox="0 0 470 440" fill="none" xmlns="http://www.w3.org/2000/svg">
<path d="M38.8895 372.227C36.4793 371.762 34.2966 370.496 32.6918 368.632C31.0869 366.769 30.1532 364.416 30.0404 361.952C29.9277 359.488 30.6425 357.056 32.0701 355.046C33.4976 353.035 35.5552 351.564 37.9122 350.868C62.1249 343.719 97.9644 305.585 108.774 292.6C108.836 292.514 108.914 292.43 108.986 292.336C110.47 290.588 112.46 289.349 114.678 288.792C116.895 288.235 119.228 288.389 121.352 289.231C123.475 290.073 125.281 291.562 126.518 293.489C127.755 295.416 128.36 297.684 128.249 299.977C128.122 302.472 127.687 303.939 125.586 306.636L125.517 306.712C124 308.652 121.656 311.221 117.99 315.229C113.645 319.976 106.79 327.233 98.7801 334.831C77.5509 355.003 59.1237 367.52 44.039 371.94C42.3699 372.452 40.603 372.551 38.8895 372.227Z" fill="#828282" stroke="black" stroke-miterlimit="10"/>
<path d="M66.5985 360.974C65.4422 363.373 63.5917 365.366 61.29 366.692C56.0583 369.793 50.4885 372.276 44.6917 374.093C43.0225 374.627 41.2647 374.82 39.5215 374.663C37.7783 374.505 36.0849 373.999 34.5406 373.174C32.9963 372.349 31.6323 371.222 30.5287 369.859C29.4252 368.496 28.6043 366.925 28.1142 365.237C27.6242 363.55 27.4749 361.78 27.6751 360.033C27.8753 358.285 28.4209 356.594 29.28 355.06C30.1392 353.525 31.2944 352.178 32.6779 351.097C34.0614 350.016 35.6452 349.224 37.3365 348.766C41.1693 347.533 44.8505 345.864 48.3085 343.793C50.4963 342.524 53.0028 341.921 55.5225 342.057" fill="black"/>
<path d="M66.5985 360.974C65.4422 363.373 63.5917 365.366 61.29 366.692C56.0583 369.793 50.4885 372.276 44.6917 374.093C43.0225 374.627 41.2647 374.82 39.5215 374.663C37.7783 374.505 36.0849 373.999 34.5406 373.174C32.9963 372.349 31.6323 371.222 30.5287 369.859C29.4252 368.496 28.6043 366.925 28.1142 365.237C27.6242 363.55 27.4749 361.78 27.6751 360.033C27.8753 358.285 28.4209 356.594 29.28 355.06C30.1392 353.525 31.2944 352.178 32.6779 351.097C34.0614 350.016 35.6452 349.224 37.3365 348.766C41.1693 347.533 44.8505 345.864 48.3085 343.793C50.4963 342.524 53.0028 341.921 55.5225 342.057" stroke="black" stroke-linecap="round" stroke-linejoin="round"/>
<path d="M389.264 282.827C404.997 262.351 415.262 238.182 419.08 212.62C422.897 187.058 420.142 160.954 411.076 136.794C402.009 112.634 386.933 91.2211 367.284 74.5942C347.634 57.9673 324.064 46.6798 298.818 41.8062C295 41.0684 291.185 40.4808 287.374 40.0434L215.749 26.2042L210.879 51.3657C180.143 64.6398 154.643 87.7856 138.384 117.168C122.125 146.55 116.028 180.504 121.052 213.697L313.679 250.916L389.264 282.827Z" fill="#070C2A" stroke="black" stroke-linecap="round" stroke-linejoin="round"/>
<path d="M163.234 297.518L158.364 322.68L229.988 336.519C233.682 337.532 237.441 338.407 241.265 339.146C268.675 344.447 297.029 341.988 323.162 332.043C349.296 322.098 372.182 305.058 389.265 282.826L313.654 250.911L121.027 213.691C125.896 245.439 140.675 274.791 163.234 297.518Z" fill="#070C2A" stroke="black" stroke-width="0.25" stroke-linecap="round" stroke-linejoin="round"/>
<path d="M123.167 130.991C120.732 129.894 117.961 129.813 115.462 130.768C112.964 131.723 110.943 133.635 109.844 136.084C101.423 154.166 91.9155 171.718 81.373 188.643C65.0135 214.813 48.9504 234.243 34.1631 245.93C30.3636 243.811 25.9911 242.957 21.6727 243.491C17.3544 244.024 13.3121 245.918 10.1257 248.9C6.9394 251.882 4.77274 255.799 3.93659 260.09C3.10043 264.38 3.63775 268.823 5.47145 272.782C7.30515 276.741 10.341 280.012 14.1435 282.125C17.9461 284.238 22.3198 285.086 26.6374 284.546C30.955 284.006 34.9946 282.107 38.1766 279.12C41.3587 276.133 43.5196 272.213 44.3496 267.921C44.6451 266.379 44.7666 264.808 44.7117 263.239C89.9755 228.773 126.494 148.187 128.206 144.366C129.304 141.917 129.39 139.132 128.445 136.624C127.5 134.116 125.602 132.09 123.167 130.991Z" fill="#828282" stroke="black" stroke-miterlimit="10"/>
<path d="M424.881 319.992C422.746 319.578 420.558 319.509 418.4 319.789C409.074 303.442 401.385 279.423 395.971 249.046C392.506 229.414 390.233 209.586 389.167 189.671C389.144 188.323 388.852 186.994 388.311 185.762C387.769 184.53 386.987 183.42 386.012 182.496C385.036 181.573 383.887 180.855 382.63 180.385C381.374 179.914 380.036 179.701 378.696 179.757C377.355 179.813 376.038 180.138 374.823 180.712C373.608 181.287 372.518 182.099 371.619 183.101C370.719 184.103 370.028 185.275 369.584 186.548C369.141 187.822 368.955 189.171 369.038 190.516C369.201 194.699 373.014 283.078 402.152 331.92C400.412 335.843 399.928 340.21 400.768 344.417C401.607 348.623 403.729 352.459 406.839 355.395C409.949 358.33 413.892 360.219 418.123 360.799C422.354 361.38 426.663 360.623 430.453 358.634C434.243 356.646 437.326 353.523 439.274 349.7C441.223 345.876 441.941 341.541 441.329 337.295C440.716 333.049 438.804 329.102 435.857 326.002C432.911 322.902 429.075 320.801 424.881 319.992Z" fill="#828282" stroke="black" stroke-miterlimit="10"/>
<path d="M348.568 205.649C352.734 183.982 352.14 161.673 346.827 140.282C341.514 118.892 331.61 98.9365 317.808 81.8131C304.006 64.6897 286.639 50.8118 266.924 41.1506C247.208 31.4893 225.62 26.2781 203.669 25.8816C181.718 25.4851 159.936 29.9128 139.846 38.855C119.756 47.7973 101.844 61.0379 87.3627 77.6504C72.8817 94.2629 62.1818 113.846 56.0117 135.029C49.8416 156.212 48.3505 178.484 51.6425 200.285L330.23 254.114C339.071 239.133 345.275 222.738 348.568 205.649Z" fill="#4E5681" stroke="black" stroke-linecap="round" stroke-linejoin="round"/>
<path d="M171.021 325.574C201.512 331.471 233.093 327.756 261.444 314.936C289.795 302.116 313.531 280.818 329.405 253.954L50.8174 200.126C55.5213 230.959 69.5934 259.559 91.1093 282.014C112.625 304.468 140.535 319.682 171.021 325.574Z" fill="#4E5681" stroke="black" stroke-linecap="round" stroke-linejoin="round"/>
<path d="M357.844 433.434C360.213 434.09 362.735 433.925 365.003 432.966C367.271 432.007 369.154 430.31 370.348 428.148C371.542 425.986 371.978 423.485 371.586 421.047C371.194 418.61 369.996 416.377 368.186 414.709C349.647 397.569 332.474 334.568 328.536 318.133C328.512 318.029 328.489 317.917 328.455 317.812C327.899 315.59 326.665 313.599 324.926 312.118C323.187 310.637 321.029 309.74 318.755 309.553C316.481 309.365 314.204 309.897 312.242 311.072C310.28 312.248 308.731 314.009 307.812 316.11C306.815 318.401 306.55 319.91 307.244 323.281L307.269 323.385C307.766 325.794 308.742 329.139 310.247 334.362C312.032 340.535 316.924 363.01 320.732 373.385C330.825 400.882 341.798 420.237 353.354 430.916C354.629 432.103 356.169 432.966 357.844 433.434Z" fill="#828282" stroke="black" stroke-miterlimit="10"/>
<path d="M337.991 411.054C337.962 413.717 338.739 416.325 340.219 418.532C343.545 423.639 347.448 428.341 351.852 432.544C354.414 434.913 357.809 436.161 361.292 436.012C364.775 435.863 368.059 434.331 370.423 431.752C372.786 429.173 374.036 425.759 373.896 422.26C373.756 418.761 372.238 415.465 369.676 413.096C366.786 410.291 364.225 407.164 362.042 403.775C360.64 401.67 358.66 400.02 356.342 399.024" fill="black"/>
<path d="M337.991 411.054C337.962 413.717 338.739 416.325 340.219 418.532C343.545 423.639 347.448 428.341 351.852 432.544C354.414 434.913 357.809 436.161 361.292 436.012C364.775 435.863 368.059 434.331 370.423 431.752C372.786 429.173 374.036 425.759 373.896 422.26C373.756 418.761 372.238 415.465 369.676 413.096C366.786 410.291 364.225 407.164 362.042 403.775C360.64 401.67 358.66 400.02 356.342 399.024" stroke="black" stroke-linecap="round" stroke-linejoin="round"/>
<path d="M179.974 151.272C179.474 153.853 177.121 155.877 173.608 157.022C170.105 158.164 165.506 158.408 160.647 157.469C155.787 156.53 151.611 154.591 148.787 152.226C145.955 149.855 144.526 147.101 145.026 144.519C145.526 141.937 147.879 139.913 151.392 138.768C154.895 137.626 159.494 137.382 164.353 138.321C169.213 139.26 173.389 141.2 176.213 143.564C179.045 145.935 180.474 148.69 179.974 151.272Z" fill="#F2F2F2" stroke="black" stroke-width="0.25"/>
<path d="M215.412 158.12C214.912 160.701 212.559 162.725 209.046 163.87C205.543 165.012 200.944 165.256 196.085 164.317C191.225 163.379 187.049 161.439 184.225 159.074C181.393 156.703 179.964 153.949 180.464 151.367C180.964 148.785 183.317 146.762 186.83 145.617C190.333 144.475 194.932 144.23 199.791 145.169C204.651 146.108 208.827 148.048 211.651 150.412C214.483 152.783 215.912 155.538 215.412 158.12Z" fill="#F2F2F2" stroke="black" stroke-width="0.25"/>
<path d="M203.599 155.837C203.079 158.525 202.173 160.863 201.137 162.469C200.619 163.273 200.076 163.883 199.543 164.264C199.011 164.645 198.509 164.785 198.054 164.698C197.599 164.61 197.186 164.292 196.834 163.741C196.482 163.188 196.205 162.42 196.024 161.482C195.663 159.605 195.695 157.098 196.215 154.41C196.735 151.722 197.642 149.384 198.677 147.777C199.195 146.973 199.738 146.364 200.271 145.983C200.804 145.602 201.306 145.461 201.76 145.549C202.215 145.637 202.628 145.954 202.98 146.506C203.333 147.058 203.609 147.826 203.79 148.765C204.151 150.641 204.12 153.148 203.599 155.837Z" fill="#070C2A" stroke="black" stroke-width="0.25"/>
<path d="M168.16 148.989C167.64 151.677 166.734 154.015 165.698 155.622C165.18 156.426 164.637 157.035 164.104 157.417C163.572 157.797 163.07 157.938 162.615 157.85C162.16 157.762 161.747 157.445 161.395 156.893C161.043 156.341 160.766 155.573 160.585 154.634C160.224 152.758 160.256 150.251 160.776 147.562C161.296 144.874 162.203 142.536 163.238 140.93C163.756 140.126 164.299 139.516 164.832 139.135C165.365 138.754 165.867 138.614 166.321 138.702C166.776 138.789 167.19 139.107 167.541 139.658C167.894 140.211 168.17 140.979 168.351 141.918C168.712 143.794 168.681 146.301 168.16 148.989Z" fill="#070C2A" stroke="black" stroke-width="0.25"/>
<path d="M172.809 172.498C173.643 172.527 174.468 172.687 175.254 172.971L198.886 181.521C204.91 183.701 205.121 192.142 199.213 194.623C197.931 195.161 196.518 195.308 195.153 195.044L146.107 185.567C144.742 185.304 143.486 184.641 142.497 183.664C137.941 179.162 141.286 171.407 147.689 171.629L172.809 172.498Z" fill="#C4C4C4"/>
<path d="M349.833 198.353C348.772 203.832 343.921 208.524 335.553 212.203C327.218 215.868 315.623 218.419 301.558 219.742C273.442 222.387 235.688 220.102 194.979 212.236C154.269 204.37 118.385 192.427 93.2829 179.5C80.7256 173.033 70.919 166.346 64.5526 159.841C58.1605 153.309 55.4104 147.149 56.4708 141.67C57.5312 136.192 62.382 131.5 70.7507 127.82C79.0856 124.155 90.6803 121.604 104.745 120.281C132.862 117.637 170.615 119.922 211.325 127.787C252.034 135.653 287.918 147.597 313.02 160.524C325.578 166.991 335.384 173.677 341.751 180.183C348.143 186.714 350.893 192.875 349.833 198.353Z" fill="#C4C4C4" stroke="black"/>
<path d="M155.105 160.259C158.282 167.189 159.316 174.301 158.466 180.174C157.615 186.056 154.905 190.563 150.715 192.585C146.525 194.608 141.414 193.876 136.454 190.798C131.502 187.725 126.821 182.373 123.644 175.443C120.466 168.513 119.432 161.401 120.282 155.529C121.133 149.646 123.843 145.139 128.033 143.117C132.223 141.095 137.335 141.827 142.295 144.905C147.246 147.977 151.927 153.329 155.105 160.259Z" fill="#F4F6FC" stroke="black"/>
<path d="M224.129 194.63C218.683 199.973 212.396 203.306 206.672 204.413C200.938 205.522 195.902 204.385 192.711 201.004C189.52 197.624 188.6 192.449 189.907 186.65C191.213 180.861 194.721 174.585 200.167 169.243C205.613 163.9 211.9 160.567 217.624 159.46C223.358 158.351 228.394 159.488 231.585 162.868C234.776 166.249 235.696 171.423 234.389 177.222C233.083 183.011 229.575 189.287 224.129 194.63Z" fill="#F4F6FC" stroke="black"/>
<ellipse rx="7.44808" ry="7.00129" transform="matrix(1.96368 0.37942 -0.38007 1.96355 210.731 177.588)" fill="#070C2A"/>
<path d="M213.833 174.642L216.812 167.2C219.74 168.528 220.857 169.751 221.855 172.841L213.833 174.642Z" fill="#F4F6FC"/>
<ellipse rx="6.30159" ry="5.92358" transform="matrix(1.96368 0.37942 -0.38007 1.96355 134.074 160.581)" fill="#070C2A"/>
<path d="M136.698 158.088L139.219 151.792C141.696 152.915 142.641 153.95 143.485 156.564L136.698 158.088Z" fill="#F4F6FC"/>
<path d="M58.5591 67.5674C59.9697 60.2796 65.8709 54.6781 73.2224 53.7494C128.298 46.7921 171.519 46.6204 213.087 54.7844C254.657 62.9489 294.637 79.4621 343.217 105.959C349.828 109.564 353.31 117.073 351.877 124.478C349.648 135.992 336.909 142.105 326.373 136.867C281.799 114.711 244.174 100.375 205.41 92.6949C166.642 85.0146 126.783 84.0013 77.7473 88.4358C65.9966 89.4984 56.3262 79.1032 58.5591 67.5674Z" fill="#FF5833" stroke="black"/>
<path d="M42.7724 191.342C41.4216 198.321 44.7335 205.387 50.992 208.728C99.8579 234.817 140.093 250.653 181.82 258.589C223.55 266.526 266.831 266.573 321.805 261.011C328.973 260.286 334.803 254.903 336.174 247.82C338.253 237.079 329.472 227.318 318.523 228.042C268.277 231.361 227.631 230.305 188.367 222.897C149.1 215.489 111.262 201.739 66.6183 179.719C56.7515 174.852 44.8558 180.579 42.7724 191.342Z" fill="#070C2A" stroke="black"/>
<rect x="-1.27878" y="-0.607178" width="12.4389" height="33.0228" rx="6.21945" transform="matrix(-1.88476 0.669082 -0.672802 -1.88344 82.7345 71.8319)" fill="#FF5833" stroke="black"/>
<rect x="-0.90185" y="1.08839" width="10.7692" height="29.4561" rx="5.38459" transform="matrix(0.187669 1.99118 -1.99137 0.185608 77.4519 50.3354)" fill="#FF5833" stroke="black"/>
<rect x="-0.481931" y="-1.32848" width="19.3809" height="26.5213" rx="9.69047" transform="matrix(-1.81233 -0.84585 0.848467 -1.81111 78.9579 96.3569)" fill="#FF5833" stroke="black"/>
<path d="M147.218 232.232L145.614 239.902L167.792 236.625L152.574 309.394L166.065 312.275L183.841 227.275L147.218 232.232Z" fill="#F4F6FC"/>
</svg>
