<svg width="238" height="192" viewBox="0 0 238 192" fill="none" xmlns="http://www.w3.org/2000/svg">
<path d="M41.7398 188.832C40.5157 188.832 39.327 188.417 38.3647 187.655C37.4024 186.893 36.7223 185.826 36.4336 184.628C36.1449 183.429 36.2643 182.167 36.7727 181.045C37.2812 179.923 38.1491 179.006 39.2371 178.44C50.4142 172.635 64.3475 150.519 68.4095 143.121C68.4313 143.072 68.4619 143.024 68.4881 142.971C69.0491 141.972 69.906 141.175 70.9388 140.692C71.9717 140.208 73.1288 140.062 74.2481 140.274C75.3674 140.486 76.3929 141.045 77.181 141.874C77.9691 142.702 78.4804 143.758 78.6432 144.894C78.8179 146.131 78.7436 146.892 77.9705 148.415L77.9443 148.459C77.3853 149.555 76.4811 151.038 75.066 153.353C73.3887 156.095 70.72 160.307 67.5185 164.797C59.0362 176.711 51.2004 184.602 44.2338 188.202C43.4651 188.612 42.6094 188.828 41.7398 188.832Z" fill="#828282" stroke="black" stroke-miterlimit="10"/>
<path d="M54.2404 180.681C53.9016 181.968 53.1845 183.121 52.1832 183.99C49.9156 186.008 47.424 187.756 44.758 189.197C43.9914 189.617 43.1491 189.879 42.2807 189.967C41.4122 190.055 40.5351 189.967 39.7009 189.709C38.8666 189.45 38.092 189.026 37.4225 188.462C36.7531 187.898 36.2022 187.204 35.8024 186.423C35.4026 185.641 35.1618 184.786 35.0942 183.91C35.0265 183.033 35.1335 182.151 35.4087 181.317C35.6839 180.482 36.1218 179.711 36.6968 179.049C37.2717 178.388 37.972 177.848 38.7567 177.463C40.5164 176.495 42.1606 175.327 43.6573 173.982C44.6082 173.152 45.7783 172.618 47.0249 172.446" fill="black"/>
<path d="M54.2404 180.681C53.9016 181.968 53.1845 183.121 52.1832 183.99C49.9156 186.008 47.424 187.756 44.758 189.197C43.9914 189.617 43.1491 189.879 42.2807 189.967C41.4122 190.055 40.5351 189.967 39.7009 189.709C38.8666 189.45 38.092 189.026 37.4225 188.462C36.7531 187.898 36.2022 187.204 35.8024 186.423C35.4026 185.641 35.1618 184.786 35.0942 183.91C35.0265 183.033 35.1335 182.151 35.4087 181.317C35.6839 180.482 36.1218 179.711 36.6968 179.049C37.2717 178.388 37.972 177.848 38.7567 177.463C40.5164 176.495 42.1606 175.327 43.6573 173.982C44.6082 173.152 45.7783 172.618 47.0249 172.446" stroke="black" stroke-linecap="round" stroke-linejoin="round"/>
<path d="M204.813 111.722C210.575 100.18 213.31 87.3436 212.757 74.435C212.204 61.5265 208.381 48.9754 201.652 37.9767C194.924 26.9779 185.513 17.8976 174.317 11.6002C163.121 5.30279 150.511 1.99784 137.689 2C135.749 2 133.826 2.07335 131.919 2.22006H95.5395V15.032C81.7488 24.4623 71.4574 38.2413 66.2815 54.2049C61.1056 70.1685 61.3385 87.4122 66.9437 103.228H164.782L204.813 111.722Z" fill="#070C2A" stroke="black" stroke-linecap="round" stroke-linejoin="round"/>
<path d="M95.5394 140.37V153.182H131.919C133.823 153.328 135.746 153.402 137.688 153.402C151.611 153.404 165.26 149.508 177.113 142.148C188.965 134.789 198.555 124.255 204.812 111.722L164.769 103.228H66.9304C72.3233 118.349 82.3407 131.354 95.5394 140.37Z" fill="#070C2A" stroke="black" stroke-width="0.25" stroke-linecap="round" stroke-linejoin="round"/>
<path d="M60.1412 62.4331C58.845 62.1252 57.4805 62.3487 56.3477 63.0544C55.215 63.76 54.4067 64.8901 54.1006 66.1961C51.6916 75.8699 48.6999 85.3868 45.1422 94.694C39.6126 109.09 33.5895 120.151 27.4571 127.289C25.3961 126.61 23.1743 126.605 21.1106 127.277C19.0469 127.948 17.2472 129.261 15.9698 131.027C14.6924 132.792 14.0028 134.921 14 137.106C13.9972 139.291 14.6814 141.421 15.9543 143.19C17.2273 144.959 19.0236 146.277 21.0856 146.954C23.1476 147.63 25.3694 147.631 27.4321 146.957C29.4949 146.283 31.2927 144.967 32.5676 143.199C33.8424 141.432 34.5289 139.303 34.5285 137.117C34.5271 136.332 34.4377 135.55 34.2621 134.785C53.1571 113.575 63.3996 70.5577 63.8756 68.52C64.1811 67.2138 63.9593 65.8388 63.259 64.6974C62.5587 63.556 61.4373 62.7415 60.1412 62.4331Z" fill="#828282" stroke="black" stroke-miterlimit="10"/>
<path d="M225.772 126.586C224.687 126.586 223.61 126.759 222.579 127.101C216.464 119.963 210.424 108.902 204.894 94.506C201.337 85.1986 198.345 75.6817 195.936 66.0081C195.797 65.3488 195.528 64.7241 195.146 64.1708C194.764 63.6175 194.276 63.1466 193.711 62.7859C193.146 62.4251 192.515 62.1817 191.856 62.07C191.196 61.9583 190.521 61.9805 189.87 62.1352C189.219 62.29 188.605 62.5743 188.064 62.9713C187.524 63.3684 187.067 63.8703 186.722 64.4475C186.376 65.0247 186.149 65.6657 186.052 66.3327C185.956 66.9997 185.993 67.6795 186.161 68.3319C186.637 70.3697 196.879 113.387 215.774 134.597C215.294 136.687 215.471 138.877 216.281 140.862C217.09 142.847 218.493 144.528 220.294 145.674C222.094 146.82 224.204 147.373 226.331 147.257C228.457 147.141 230.495 146.361 232.162 145.025C233.829 143.689 235.043 141.864 235.634 139.803C236.226 137.741 236.167 135.545 235.465 133.519C234.762 131.493 233.452 129.738 231.716 128.495C229.979 127.253 227.902 126.586 225.772 126.586Z" fill="#828282" stroke="black" stroke-miterlimit="10"/>
<path d="M177.573 77.7009C177.56 66.671 175.155 55.7773 170.526 45.7821C165.898 35.7868 159.158 26.9315 150.777 19.8358C142.397 12.7401 132.579 7.57538 122.011 4.70313C111.442 1.83088 100.379 1.32046 89.5941 3.20758C78.8095 5.0947 68.5643 9.33378 59.5756 15.6282C50.5869 21.9226 43.0719 30.1202 37.5563 39.6475C32.0407 49.1747 28.6578 59.8014 27.6444 70.7839C26.631 81.7664 28.0116 92.8393 31.6895 103.228H173.188C176.097 95.0367 177.581 86.4008 177.573 77.7009Z" fill="#4E5681" stroke="black" stroke-linecap="round" stroke-linejoin="round"/>
<path d="M102.011 153.402C117.498 153.405 132.608 148.586 145.274 139.605C157.94 130.624 167.543 117.919 172.769 103.228H31.2703C36.4954 117.916 46.0954 130.619 58.7577 139.6C71.42 148.581 86.5263 153.401 102.011 153.402Z" fill="#4E5681" stroke="black" stroke-linecap="round" stroke-linejoin="round"/>
<path d="M203.701 188.625C204.923 188.722 206.142 188.402 207.162 187.716C208.181 187.031 208.942 186.019 209.322 184.845C209.702 183.67 209.678 182.401 209.255 181.242C208.832 180.083 208.034 179.1 206.99 178.454C196.289 171.799 181.91 142.504 178.425 134.811C178.403 134.763 178.381 134.71 178.355 134.661C177.872 133.623 177.079 132.763 176.087 132.201C175.095 131.639 173.954 131.404 172.823 131.528C171.692 131.651 170.627 132.128 169.778 132.891C168.929 133.654 168.337 134.665 168.086 135.784C167.815 137.003 167.829 137.769 168.488 139.358L168.51 139.406C168.982 140.541 169.777 142.091 171.008 144.511C172.467 147.372 176.992 157.939 179.84 162.671C187.387 175.21 194.594 183.669 201.264 187.815C202.001 188.276 202.836 188.554 203.701 188.625Z" fill="#828282" stroke="black" stroke-miterlimit="10"/>
<path d="M191.86 179.523C192.098 180.833 192.726 182.04 193.66 182.982C195.772 185.174 198.129 187.111 200.683 188.757C202.162 189.677 203.942 189.967 205.634 189.564C207.325 189.16 208.787 188.097 209.7 186.607C210.613 185.117 210.901 183.322 210.501 181.618C210.101 179.914 209.045 178.44 207.567 177.52C205.886 176.418 204.336 175.126 202.946 173.669C202.06 172.769 200.934 172.147 199.705 171.878" fill="black"/>
<path d="M191.86 179.523C192.098 180.833 192.726 182.04 193.66 182.982C195.772 185.174 198.129 187.111 200.683 188.757C202.162 189.677 203.942 189.967 205.634 189.564C207.325 189.16 208.787 188.097 209.7 186.607C210.613 185.117 210.901 183.322 210.501 181.618C210.101 179.914 209.045 178.44 207.567 177.52C205.886 176.418 204.336 175.126 202.946 173.669C202.06 172.769 200.934 172.147 199.705 171.878" stroke="black" stroke-linecap="round" stroke-linejoin="round"/>
<path d="M89.75 67C89.75 68.2487 88.836 69.4317 87.2425 70.317C85.6576 71.1975 83.451 71.75 81 71.75C78.549 71.75 76.3424 71.1975 74.7574 70.317C73.164 69.4317 72.25 68.2487 72.25 67C72.25 65.7513 73.164 64.5683 74.7574 63.683C76.3424 62.8025 78.549 62.25 81 62.25C83.451 62.25 85.6576 62.8025 87.2425 63.683C88.836 64.5683 89.75 65.7513 89.75 67Z" fill="#F2F2F2" stroke="black" stroke-width="0.25"/>
<path d="M107.75 67C107.75 68.2487 106.836 69.4317 105.243 70.317C103.658 71.1975 101.451 71.75 99 71.75C96.549 71.75 94.3424 71.1975 92.7574 70.317C91.164 69.4317 90.25 68.2487 90.25 67C90.25 65.7513 91.164 64.5683 92.7574 63.683C94.3424 62.8025 96.549 62.25 99 62.25C101.451 62.25 103.658 62.8025 105.243 63.683C106.836 64.5683 107.75 65.7513 107.75 67Z" fill="#F2F2F2" stroke="black" stroke-width="0.25"/>
<path d="M101.75 67C101.75 68.357 101.53 69.5741 101.182 70.4427C101.008 70.8777 100.807 71.2129 100.597 71.4353C100.387 71.6572 100.185 71.75 100 71.75C99.8147 71.75 99.613 71.6572 99.4031 71.4353C99.1928 71.2129 98.9919 70.8777 98.8179 70.4427C98.4705 69.5741 98.25 68.357 98.25 67C98.25 65.643 98.4705 64.4259 98.8179 63.5573C98.9919 63.1223 99.1928 62.7871 99.4031 62.5647C99.613 62.3428 99.8147 62.25 100 62.25C100.185 62.25 100.387 62.3428 100.597 62.5647C100.807 62.7871 101.008 63.1223 101.182 63.5573C101.53 64.4259 101.75 65.643 101.75 67Z" fill="#070C2A" stroke="black" stroke-width="0.25"/>
<path d="M83.75 67C83.75 68.357 83.5295 69.5741 83.1821 70.4427C83.0081 70.8777 82.8072 71.2129 82.5969 71.4353C82.387 71.6572 82.1853 71.75 82 71.75C81.8147 71.75 81.613 71.6572 81.4031 71.4353C81.1928 71.2129 80.9919 70.8777 80.8179 70.4427C80.4705 69.5741 80.25 68.357 80.25 67C80.25 65.643 80.4705 64.4259 80.8179 63.5573C80.9919 63.1223 81.1928 62.7871 81.4031 62.5647C81.613 62.3428 81.8147 62.25 82 62.25C82.1853 62.25 82.387 62.3428 82.5969 62.5647C82.8072 62.7871 83.0081 63.1223 83.1821 63.5573C83.5295 64.4259 83.75 65.643 83.75 67Z" fill="#070C2A" stroke="black" stroke-width="0.25"/>
<path d="M87.7519 78.1971C88.5788 78.0665 89.4212 78.0665 90.2481 78.1971L102 80.0532C105.161 80.5525 106.067 84.6714 103.407 86.4511C102.828 86.8384 102.147 87.0451 101.451 87.0451H76.5491C75.8527 87.0451 75.172 86.8384 74.5931 86.4511C71.9331 84.6714 72.8391 80.5525 76.0004 80.0532L87.7519 78.1971Z" fill="#C4C4C4"/>
<path d="M177 74C177 76.5424 175.238 79.1747 171.536 81.7417C167.865 84.2878 162.487 86.6211 155.752 88.5968C142.294 92.5444 123.643 95 103 95C82.357 95 63.7062 92.5444 50.2485 88.5968C43.513 86.6211 38.1351 84.2878 34.4638 81.7417C30.7625 79.1747 29 76.5424 29 74C29 71.4576 30.7625 68.8253 34.4638 66.2583C38.1351 63.7122 43.513 61.3789 50.2485 59.4032C63.7062 55.4556 82.357 53 103 53C123.643 53 142.294 55.4556 155.752 59.4032C162.487 61.3789 167.865 63.7122 171.536 66.2583C175.238 68.8253 177 71.4576 177 74Z" fill="#C4C4C4" stroke="black"/>
<path d="M78.1497 74.07C80.3139 77.1026 81.4541 80.4029 81.5892 83.2543C81.7248 86.1163 80.8547 88.3901 79.1747 89.6457C77.4946 90.9013 75.1133 91.0576 72.4904 90.0544C69.8772 89.055 67.1521 86.9393 64.9878 83.9067C62.8236 80.8742 61.6834 77.5739 61.5483 74.7225C61.4127 71.8604 62.2828 69.5866 63.9628 68.331C65.6429 67.0754 68.0242 66.9192 70.6471 67.9223C73.2602 68.9217 75.9854 71.0375 78.1497 74.07Z" fill="#F2F2F2" stroke="black"/>
<path d="M115.196 83.8014C113.083 86.8718 110.394 89.0354 107.798 90.0808C105.192 91.1301 102.809 91.0157 101.108 89.7902C99.4077 88.5647 98.4993 86.3069 98.5867 83.4426C98.6738 80.5892 99.7583 77.2691 101.871 74.1986C103.984 71.1282 106.674 68.9646 109.27 67.9192C111.875 66.8699 114.259 66.9843 115.959 68.2098C117.66 69.4353 118.568 71.6931 118.481 74.5574C118.394 77.4108 117.309 80.7309 115.196 83.8014Z" fill="#F2F2F2" stroke="black"/>
<ellipse cx="107.429" cy="77" rx="7.42857" ry="7" fill="#070C2A"/>
<path d="M108.668 75.2594L109.421 71.3244C110.981 71.6986 111.644 72.1929 112.425 73.6149L108.668 75.2594Z" fill="white"/>
<ellipse cx="69.4286" cy="77" rx="7.42857" ry="7" fill="#070C2A"/>
<path d="M70.6682 75.2594L71.4213 71.3244C72.9806 71.6986 73.6438 72.1929 74.425 73.6149L70.6682 75.2594Z" fill="white"/>
<path d="M23 37.4233C23 33.9283 25.2252 30.8156 28.5326 29.7297C54.8047 21.1031 75.8914 16.936 96.9428 17.0007C117.996 17.0654 139.079 21.3629 165.345 29.7509C168.719 30.8281 171 33.9865 171 37.5394C171 43.0632 165.65 47.0435 160.29 45.5546C136.356 38.906 116.539 35.4296 96.781 35.3363C77.0204 35.2429 57.3691 38.5335 33.7649 45.363C28.4064 46.9134 23 42.9535 23 37.4233Z" fill="#FF5833" stroke="black"/>
<path d="M27 99.6853C27 103.02 29.154 105.976 32.327 106.958C58.6915 115.118 79.8362 119.061 100.948 118.999C122.062 118.938 143.203 114.871 169.563 106.936C172.795 105.963 175 102.967 175 99.5808C175 94.4464 170.078 90.7178 165.082 92.033C140.786 98.4284 120.749 101.772 100.775 101.86C80.798 101.948 60.9307 98.7802 36.9706 92.2037C31.9738 90.8322 27 94.5439 27 99.6853Z" fill="#070C2A" stroke="black"/>
<rect x="36.1444" y="37.1049" width="12.4102" height="33" rx="2.85255" transform="rotate(149.454 36.1444 37.1049)" fill="#FF5833" stroke="black"/>
<rect x="28.8189" y="26.6202" width="10.7658" height="29.3794" rx="2.44145" transform="rotate(73.7001 28.8189 26.6202)" fill="#FF5833" stroke="black"/>
<rect x="35.3553" y="51.0311" width="19.3321" height="26.51" rx="4.58302" transform="rotate(-165.885 35.3553 51.0311)" fill="#FF5833" stroke="black"/>
</svg>
