<svg width="640" height="624" viewBox="0 0 640 624" fill="none" xmlns="http://www.w3.org/2000/svg">
<path d="M385.152 201.927C385.186 201.919 385.21 201.915 385.222 201.914L385.653 201.914L385.947 201.571C385.95 201.568 385.956 201.561 385.965 201.552C385.987 201.529 386.027 201.489 386.087 201.436C386.206 201.33 386.403 201.17 386.685 200.986C387.249 200.62 388.164 200.157 389.505 199.843C392.182 199.218 396.641 199.175 403.504 201.846C406.866 203.154 412.324 206.602 419.018 211.567C425.684 216.51 433.495 222.897 441.539 230.011C457.638 244.248 474.613 261.344 485.197 275.554C490.433 282.585 492.127 288.357 491.791 292.757C491.458 297.126 489.117 300.289 485.938 302.154C479.453 305.96 469.802 304.284 466.576 296.436C465.629 294.133 463.777 291.627 461.331 288.985C458.874 286.331 455.76 283.482 452.22 280.496C446.195 275.414 438.876 269.888 431.362 264.215C430.053 263.226 428.737 262.233 427.422 261.237C418.541 254.513 409.647 247.65 402.438 241.079C395.197 234.478 389.795 228.291 387.734 222.935C383.438 211.767 383.143 206.424 383.74 203.945C384.028 202.753 384.507 202.284 384.79 202.094C384.942 201.992 385.073 201.947 385.152 201.927Z" fill="#3348B8" stroke="black"/>
<path d="M371.246 424.121C371.23 423.995 371.214 423.877 371.2 423.767L398.977 421.783C398.985 421.845 398.994 421.911 399.003 421.98C399.101 422.72 399.244 423.813 399.426 425.221C399.789 428.037 400.305 432.114 400.914 437.16C402.134 447.251 403.729 461.213 405.233 476.693C408.242 507.676 410.877 544.666 409.418 568.905C408.69 580.987 406.108 588.438 402.892 592.531C401.295 594.563 399.556 595.752 397.814 596.301C396.074 596.85 394.262 596.783 392.479 596.193C388.887 595.003 385.43 591.682 383.233 587.143C381.047 582.624 380.164 577.001 381.611 571.339C382.397 568.266 382.799 563.635 382.923 557.954C383.047 552.252 382.893 545.42 382.539 537.905C381.83 522.873 380.317 505.061 378.617 488.001C376.917 470.939 375.028 454.618 373.564 442.563C372.832 436.535 372.207 431.573 371.764 428.118C371.542 426.391 371.367 425.04 371.246 424.121Z" fill="#3348B8" stroke="black"/>
<path d="M441.575 89.2096L441.667 89.3611L441.806 89.4716C477.619 118.017 486.602 138.048 485.929 151.377C485.257 164.682 474.941 171.817 470.679 174.527C466.791 176.999 461.245 178.125 454.571 177.646C447.91 177.167 440.2 175.094 432.067 171.263C415.805 163.601 397.928 148.944 383.476 126.172C368.975 103.322 359.207 80.5505 355.116 62.2293C353.07 53.0643 352.456 45.0681 353.345 38.756C354.234 32.4387 356.603 27.9463 360.389 25.5388C364.079 23.1929 369.62 23.6292 376.49 26.5122C383.301 29.3703 391.126 34.5155 399.114 41.0627C415.087 54.154 431.525 72.6936 441.575 89.2096Z" fill="#3348B8" stroke="black"/>
<path d="M161.084 316.166V316.028L161.047 315.895C147.682 268.423 164.23 231.438 194.365 206.256C224.555 181.028 268.4 167.649 309.462 167.649C391.408 167.649 457.84 234.141 457.84 316.166C457.84 398.19 391.408 464.683 309.462 464.683C227.516 464.683 161.084 398.19 161.084 316.166Z" fill="#7A8DED" stroke="black"/>
<path d="M322.875 217.063L322.853 217.059L322.831 217.056C298.634 213.577 272.164 202.321 251.76 185.004C231.363 167.692 217.101 144.393 217.101 116.81C217.101 61.4995 264.325 16.5747 322.688 16.5747C381.052 16.5747 428.276 61.4995 428.276 116.81C428.276 144.539 418.111 172.712 399.855 192.386C381.627 212.031 355.321 223.224 322.875 217.063Z" fill="#7A8DED" stroke="black"/>
<path d="M253.101 133.969L252.934 134.166L252.884 134.42C246.788 165.279 234.661 182.367 222.057 190.778C209.445 199.195 196.263 198.996 187.827 195.133C183.805 193.291 180.88 189.247 179.064 183.419C177.249 177.598 176.587 170.131 176.997 161.699C177.816 144.842 182.909 124.35 191.312 105.968C200.859 85.0825 213.02 67.8374 224.927 56.831C230.882 51.3262 236.736 47.4168 242.13 45.3718C247.52 43.3286 252.374 43.1712 256.44 45.033C265.189 49.0399 277.242 55.8678 280.78 69.19C284.315 82.4983 279.468 102.77 253.101 133.969Z" fill="#3348B8" stroke="black"/>
<path d="M438.947 331.831C439.721 371.906 431.919 397.68 419.298 413.421C406.707 429.122 389.189 435 370.122 435C351.057 435 334.907 429.438 322.996 413.906C311.031 398.305 303.232 372.506 301.296 331.764C299.362 291.082 307.107 266.796 318.736 251.862C330.359 236.937 345.995 231.182 360.263 227.853C374.178 224.606 393.425 230.538 409.45 247.383C425.445 264.196 438.175 291.85 438.947 331.831Z" fill="#3348B8" stroke="black"/>
<path d="M373.972 132.279C377.759 135.638 381.913 139.195 386.956 142.557C388.669 153.206 388.626 164.348 384.908 173.372C381.179 182.421 373.717 189.439 360.278 191.69C336.922 191.71 319.793 188.779 308.09 183.224C296.622 177.78 290.382 169.833 288.527 159.593C292.802 155.498 296.105 151.082 299.048 146.713C300.235 144.951 301.352 143.216 302.448 141.513C304.179 138.822 305.859 136.213 307.677 133.712C313.526 125.67 320.531 119.176 334.022 116.939C340.827 115.811 346.233 116.021 350.829 117.146C355.423 118.271 359.265 120.325 362.929 122.962C366.046 125.205 369.006 127.848 372.201 130.701C372.783 131.22 373.372 131.746 373.972 132.279Z" fill="#3348B8" stroke="black"/>
<ellipse cx="342.403" cy="128.491" rx="20.2283" ry="13.2385" fill="#070C2A"/>
<path d="M41.8447 264.362L330.979 326.109L116.961 539.04L136.938 375.076L136.992 374.636L136.702 374.301L41.8447 264.362Z" fill="#F00182" stroke="black"/>
<path d="M582.968 312.267L511.425 291.408C500.482 288.217 496.957 274.455 505.016 266.388L555.72 215.638C563.779 207.571 577.529 211.099 580.716 222.052L601.556 293.662C604.864 305.032 594.328 315.579 582.968 312.267Z" fill="#F00182" stroke="black"/>
<ellipse cx="227.627" cy="353.988" rx="31.1204" ry="31.1493" fill="#070C2A"/>
<rect width="9.54668" height="39.3023" transform="matrix(1.93173 -0.518087 0.51719 1.93197 161.83 332.014)" fill="black"/>
<rect width="155.069" height="23.0425" transform="matrix(1.93173 -0.518087 0.51719 1.93197 263.046 321.746)" fill="#F00182"/>
<path d="M570.972 247.392L170.75 353.367" stroke="black"/>
<path d="M557.722 260.616L172.648 364.075" stroke="black"/>
<path d="M548.705 273.544L174.103 374.564" stroke="black"/>
<path d="M540.684 285.47L177 383.567" stroke="black"/>
<path d="M278 317L519 253" stroke="black"/>
<path d="M295 360L532 297" stroke="black"/>
<rect width="43.6891" height="11.0262" transform="matrix(1.97918 -0.28781 0.287287 1.97926 295.667 155.728)" fill="white"/>
<path d="M300.39 177.551L295.722 156.585L382.859 144.844V165.81L366.808 150.791L362.074 165.81L350.756 152.278L343.688 170.004L329.177 154.189L322.103 171.681L306.115 156.585L300.39 177.551Z" stroke="black"/>
<path d="M300.39 177.551L384.416 166.649" stroke="black"/>
<path d="M248.117 454.762C247.982 453.831 247.862 453.059 247.766 452.462L277.538 458.854C277.543 458.929 277.548 459.01 277.554 459.097C277.595 459.747 277.652 460.708 277.713 461.946C277.834 464.422 277.968 468.008 278.023 472.436C278.133 481.293 277.922 493.514 276.644 506.971C274.081 533.949 267.246 565.65 250.314 585.299C241.806 595.173 232.907 602.336 225.036 606.861C217.116 611.415 210.389 613.213 206.176 612.608C204.108 612.311 202.77 611.459 202.079 610.201C201.371 608.913 201.209 606.966 202.024 604.214C203.659 598.693 209.054 590.541 219.828 579.801C241.694 558.005 248.569 525.715 250.026 499.04C250.756 485.68 250.129 473.677 249.321 465.013C248.916 460.681 248.466 457.181 248.117 454.762Z" fill="#3348B8" stroke="black"/>
<path d="M170.636 231.429L169.689 232.527L171.051 233.023L171.393 232.083C171.051 233.023 171.051 233.023 171.051 233.023L171.054 233.024L171.063 233.027L171.105 233.042L171.271 233.104C171.42 233.16 171.641 233.244 171.932 233.356C172.513 233.579 173.371 233.915 174.47 234.364C176.669 235.26 179.835 236.605 183.695 238.394C191.417 241.972 201.906 247.325 212.979 254.418C235.162 268.63 259.517 289.725 268.826 317.408C273.548 331.453 278.407 340.192 282.817 344.578C285.022 346.771 287.225 347.984 289.338 348.077C291.51 348.173 293.339 347.078 294.721 345.208C296.084 343.361 297.059 340.712 297.627 337.48C298.196 334.234 298.366 330.334 298.068 325.927C297.472 317.111 295 306.197 290.018 294.298C280.008 270.392 255.197 249.002 233.057 233.643C221.962 225.947 211.49 219.733 203.792 215.443C199.942 213.298 196.785 211.633 194.588 210.503C193.49 209.939 192.632 209.508 192.047 209.218C191.755 209.072 191.531 208.963 191.38 208.889L191.208 208.805L191.164 208.784L191.152 208.778L191.149 208.777C191.148 208.776 191.148 208.776 190.716 209.678L191.148 208.776L190.459 208.445L189.959 209.024L170.636 231.429Z" fill="#3348B8" stroke="black"/>
<path d="M517.617 265.253C517.584 265.233 517.553 265.216 517.526 265.2C517.508 265.18 517.488 265.159 517.468 265.138C517.331 264.996 517.137 264.82 516.87 264.635C516.333 264.263 515.523 263.864 514.341 263.615C511.987 263.119 508.182 263.217 502.102 265.237C498.719 266.361 496.294 269.483 494.405 273.254C492.501 277.054 491.029 281.743 489.674 286.323C489.471 287.011 489.27 287.695 489.071 288.374C487.932 292.261 486.845 295.97 485.602 299.002C484.873 300.779 484.11 302.273 483.284 303.407C482.455 304.544 481.611 305.251 480.743 305.568C479.409 306.056 478.472 306.891 478.037 308.028C477.615 309.134 477.732 310.36 478.142 311.533C478.957 313.861 481.054 316.356 483.722 318.336C489.027 322.273 497.34 324.66 503.679 318.864C509.628 313.425 515.154 304.62 519.021 296.295C520.96 292.122 522.497 288.037 523.468 284.513C524.427 281.032 524.874 277.957 524.502 275.874C523.803 271.96 522.036 269.273 520.431 267.562C519.63 266.709 518.87 266.1 518.304 265.701C518.021 265.501 517.786 265.353 517.617 265.253Z" fill="#3348B8" stroke="black"/>
<path d="M305.614 124.597C305.614 134.293 302.662 143.003 297.253 149.274C291.859 155.529 283.97 159.419 273.938 159.419C263.913 159.419 256.426 155.535 251.423 149.301C246.399 143.04 243.818 134.325 243.818 124.597C243.818 114.87 246.399 106.155 251.423 99.8934C256.426 93.6596 263.913 89.7756 273.938 89.7756C283.97 89.7756 291.859 93.666 297.253 99.9207C302.662 106.191 305.614 114.902 305.614 124.597Z" fill="white"/>
<path d="M305.614 124.597C305.614 134.293 302.662 143.003 297.253 149.274C291.859 155.529 283.97 159.419 273.938 159.419C263.913 159.419 256.426 155.535 251.423 149.301C246.399 143.04 243.818 134.325 243.818 124.597C243.818 114.87 246.399 106.155 251.423 99.8934C256.426 93.6596 263.913 89.7756 273.938 89.7756C283.97 89.7756 291.859 93.666 297.253 99.9207C302.662 106.191 305.614 114.902 305.614 124.597Z" fill="white"/>
<path d="M305.614 124.597C305.614 134.293 302.662 143.003 297.253 149.274C291.859 155.529 283.97 159.419 273.938 159.419C263.913 159.419 256.426 155.535 251.423 149.301C246.399 143.04 243.818 134.325 243.818 124.597C243.818 114.87 246.399 106.155 251.423 99.8934C256.426 93.6596 263.913 89.7756 273.938 89.7756C283.97 89.7756 291.859 93.666 297.253 99.9207C302.662 106.191 305.614 114.902 305.614 124.597Z" fill="white"/>
<path d="M305.614 124.597C305.614 134.293 302.662 143.003 297.253 149.274C291.859 155.529 283.97 159.419 273.938 159.419C263.913 159.419 256.426 155.535 251.423 149.301C246.399 143.04 243.818 134.325 243.818 124.597C243.818 114.87 246.399 106.155 251.423 99.8934C256.426 93.6596 263.913 89.7756 273.938 89.7756C283.97 89.7756 291.859 93.666 297.253 99.9207C302.662 106.191 305.614 114.902 305.614 124.597Z" stroke="black"/>
<ellipse cx="267.714" cy="118.367" rx="23.3403" ry="23.362" fill="#070C2A"/>
<path d="M273.941 114.932L276.307 101.799C281.207 103.048 283.29 104.698 285.745 109.443L273.941 114.932Z" fill="white"/>
<path d="M422.316 99.6779C422.316 109.373 419.363 118.084 413.955 124.355C408.56 130.609 400.671 134.5 390.64 134.5C380.615 134.5 373.127 130.616 368.125 124.382C363.101 118.121 360.519 109.406 360.519 99.6779C360.519 89.9503 363.101 81.2352 368.125 74.974C373.127 68.7402 380.615 64.8562 390.64 64.8562C400.671 64.8562 408.56 68.7466 413.955 75.0012C419.363 81.272 422.316 89.9827 422.316 99.6779Z" fill="white"/>
<path d="M422.316 99.6779C422.316 109.373 419.363 118.084 413.955 124.355C408.56 130.609 400.671 134.5 390.64 134.5C380.615 134.5 373.127 130.616 368.125 124.382C363.101 118.121 360.519 109.406 360.519 99.6779C360.519 89.9503 363.101 81.2352 368.125 74.974C373.127 68.7402 380.615 64.8562 390.64 64.8562C400.671 64.8562 408.56 68.7466 413.955 75.0012C419.363 81.272 422.316 89.9827 422.316 99.6779Z" fill="white"/>
<path d="M422.316 99.6779C422.316 109.373 419.363 118.084 413.955 124.355C408.56 130.609 400.671 134.5 390.64 134.5C380.615 134.5 373.127 130.616 368.125 124.382C363.101 118.121 360.519 109.406 360.519 99.6779C360.519 89.9503 363.101 81.2352 368.125 74.974C373.127 68.7402 380.615 64.8562 390.64 64.8562C400.671 64.8562 408.56 68.7466 413.955 75.0012C419.363 81.272 422.316 89.9827 422.316 99.6779Z" fill="white"/>
<path d="M422.316 99.6779C422.316 109.373 419.363 118.084 413.955 124.355C408.56 130.609 400.671 134.5 390.64 134.5C380.615 134.5 373.127 130.616 368.125 124.382C363.101 118.121 360.519 109.406 360.519 99.6779C360.519 89.9503 363.101 81.2352 368.125 74.974C373.127 68.7402 380.615 64.8562 390.64 64.8562C400.671 64.8562 408.56 68.7466 413.955 75.0012C419.363 81.272 422.316 89.9827 422.316 99.6779Z" stroke="black"/>
<ellipse cx="382.859" cy="96.563" rx="23.3403" ry="23.362" fill="#070C2A"/>
<path d="M389.402 92.2473L391.768 79.1144C396.667 80.3634 398.751 82.0131 401.205 86.7587L389.402 92.2473Z" fill="white"/>
</svg>
