<svg width="444" height="284" viewBox="0 0 444 284" fill="none" xmlns="http://www.w3.org/2000/svg">
<path d="M368.858 114.929L369.043 115.232L369.32 115.453C415.317 152.081 426.611 177.604 425.764 194.353C424.92 211.052 411.959 220.041 406.494 223.512C401.667 226.579 394.707 228.016 386.223 227.408C377.765 226.801 367.941 224.167 357.552 219.277C336.781 209.5 313.903 190.775 295.396 161.639C276.789 132.348 264.274 103.182 259.039 79.7552C256.419 68.033 255.646 57.8578 256.772 49.8682C257.899 41.8686 260.879 36.3358 265.502 33.3992C269.931 30.5859 276.754 31.0225 285.538 34.7051C294.202 38.3378 304.199 44.8981 314.44 53.2836C334.914 70.0484 355.987 93.7959 368.858 114.929Z" fill="#3348B8" stroke="black" stroke-width="2"/>
<path d="M217.033 278.035L216.989 278.027L216.945 278.02C185.972 273.572 152.075 259.171 125.956 237.023C99.8495 214.887 81.6602 185.152 81.6602 150C81.6602 79.4052 142.002 22.0001 216.66 22.0001C291.319 22.0001 351.66 79.4052 351.66 150C351.66 185.446 338.652 221.444 315.322 246.563C292.048 271.622 258.478 285.898 217.033 278.035Z" fill="#7A8DED" stroke="black" stroke-width="2"/>
<path d="M124.672 169.572L124.337 169.967L124.237 170.476C116.426 209.98 100.914 231.726 84.9202 242.39C68.9084 253.066 52.2271 252.781 41.6168 247.927C36.7031 245.679 33.0403 240.702 30.7376 233.321C28.4397 225.955 27.5885 216.458 28.1128 205.678C29.1608 184.132 35.6814 157.906 46.448 134.375C58.6894 107.62 74.2705 85.5595 89.4895 71.5044C97.1025 64.4737 104.549 59.5158 111.369 56.9328C118.18 54.3534 124.211 54.1916 129.211 56.4793C140.448 61.6207 155.647 70.271 160.103 87.034C164.552 103.768 158.526 129.552 124.672 169.572Z" fill="#3348B8" stroke="black" stroke-width="2"/>
<path d="M285.165 162.833C290.294 166.699 295.938 170.799 302.793 174.652C306.259 199.292 287.138 232.321 239.451 240.321C210.057 240.947 192.519 236.294 181.824 228.605C171.52 221.196 167.241 210.726 165.058 198.409C171.085 193.369 175.809 187.996 180.031 182.703C181.779 180.511 183.414 178.37 185.013 176.276C187.526 172.986 189.95 169.812 192.582 166.743C200.989 156.94 210.958 148.924 229.904 145.786C248.954 142.63 260.111 146.018 270.017 152.004C274.287 154.585 278.324 157.647 282.72 160.982C283.522 161.59 284.335 162.208 285.165 162.833Z" fill="#3348B8" stroke="black" stroke-width="2"/>
<ellipse cx="242" cy="165" rx="26" ry="17" fill="#070C2A"/>
<path d="M196 142C196 154.309 192.248 165.319 185.427 173.22C178.634 181.089 168.694 186 156 186C143.319 186 133.905 181.102 127.618 173.275C121.287 165.393 118 154.374 118 142C118 129.626 121.287 118.607 127.618 110.726C133.905 102.898 143.319 98.0001 156 98.0001C168.694 98.0001 178.634 102.911 185.427 110.78C192.248 118.681 196 129.691 196 142Z" fill="white"/>
<path d="M196 142C196 154.309 192.248 165.319 185.427 173.22C178.634 181.089 168.694 186 156 186C143.319 186 133.905 181.102 127.618 173.275C121.287 165.393 118 154.374 118 142C118 129.626 121.287 118.607 127.618 110.726C133.905 102.898 143.319 98.0001 156 98.0001C168.694 98.0001 178.634 102.911 185.427 110.78C192.248 118.681 196 129.691 196 142Z" fill="white"/>
<path d="M196 142C196 154.309 192.248 165.319 185.427 173.22C178.634 181.089 168.694 186 156 186C143.319 186 133.905 181.102 127.618 173.275C121.287 165.393 118 154.374 118 142C118 129.626 121.287 118.607 127.618 110.726C133.905 102.898 143.319 98.0001 156 98.0001C168.694 98.0001 178.634 102.911 185.427 110.78C192.248 118.681 196 129.691 196 142Z" fill="white"/>
<path d="M196 142C196 154.309 192.248 165.319 185.427 173.22C178.634 181.089 168.694 186 156 186C143.319 186 133.905 181.102 127.618 173.275C121.287 165.393 118 154.374 118 142C118 129.626 121.287 118.607 127.618 110.726C133.905 102.898 143.319 98.0001 156 98.0001C168.694 98.0001 178.634 102.911 185.427 110.78C192.248 118.681 196 129.691 196 142Z" stroke="black" stroke-width="2"/>
<circle cx="158" cy="148" r="30" fill="#070C2A"/>
<path d="M150.348 142.665L133.562 139.218C135.317 132.962 137.499 130.335 143.668 127.328L150.348 142.665Z" fill="white"/>
<path d="M344 126C344 138.309 340.248 149.319 333.427 157.22C326.634 165.089 316.694 170 304 170C291.319 170 281.905 165.102 275.618 157.275C269.287 149.393 266 138.374 266 126C266 113.626 269.287 102.607 275.618 94.7256C281.905 86.8984 291.319 82.0001 304 82.0001C316.694 82.0001 326.634 86.9112 333.427 94.7801C340.248 102.681 344 113.691 344 126Z" fill="white"/>
<path d="M344 126C344 138.309 340.248 149.319 333.427 157.22C326.634 165.089 316.694 170 304 170C291.319 170 281.905 165.102 275.618 157.275C269.287 149.393 266 138.374 266 126C266 113.626 269.287 102.607 275.618 94.7256C281.905 86.8984 291.319 82.0001 304 82.0001C316.694 82.0001 326.634 86.9112 333.427 94.7801C340.248 102.681 344 113.691 344 126Z" fill="white"/>
<path d="M344 126C344 138.309 340.248 149.319 333.427 157.22C326.634 165.089 316.694 170 304 170C291.319 170 281.905 165.102 275.618 157.275C269.287 149.393 266 138.374 266 126C266 113.626 269.287 102.607 275.618 94.7256C281.905 86.8984 291.319 82.0001 304 82.0001C316.694 82.0001 326.634 86.9112 333.427 94.7801C340.248 102.681 344 113.691 344 126Z" fill="white"/>
<path d="M344 126C344 138.309 340.248 149.319 333.427 157.22C326.634 165.089 316.694 170 304 170C291.319 170 281.905 165.102 275.618 157.275C269.287 149.393 266 138.374 266 126C266 113.626 269.287 102.607 275.618 94.7256C281.905 86.8984 291.319 82.0001 304 82.0001C316.694 82.0001 326.634 86.9112 333.427 94.7801C340.248 102.681 344 113.691 344 126Z" stroke="black" stroke-width="2"/>
<circle cx="304" cy="132" r="30" fill="#070C2A"/>
<path d="M204 201.844C236.431 203.648 243.311 189.366 242.697 182C243.311 189.366 267.573 199.589 286 191.922" stroke="black" stroke-width="2"/>
<path d="M296.348 126.665L279.562 123.218C281.317 116.962 283.499 114.335 289.668 111.328L296.348 126.665Z" fill="white"/>
<path d="M278 195C278 206.566 255.607 230 244.267 230C232.926 230 213 214.566 213 203C221 201 232.733 197 242 186C253.34 186 256 195 278 195Z" fill="black"/>
</svg>
